{"glyphs":{"0":{"ha":792,"x_min":-37,"x_max":772,"o":"m 185 -74 q 163 -72 168 -74 q 144 -64 157 -71 l 144 -65 l 115 -58 l 126 -64 l 125 -65 l 113 -62 q 85 -50 93 -57 l 83 -50 q 82 -47 83 -47 q 79 -46 81 -47 q 75 -42 78 -44 q 68 -40 72 -40 l 65 -42 l 67 -39 l 61 -35 l 54 -36 l 56 -35 q 54 -33 56 -33 q 50 -33 53 -33 l 53 -31 l 49 -33 q 48 -31 49 -31 q 44 -28 47 -31 l 43 -29 q 40 -28 42 -29 q 37 -27 39 -28 q 34 -25 35 -26 q 32 -22 33 -24 l 33 -21 l 33 -21 q 32 -20 32 -21 q 31 -17 32 -19 q 26 -14 29 -14 l 26 -12 l 25 -14 q 24 -11 25 -11 q 22 -8 24 -11 l 22 -10 l 22 -7 q 18 -4 21 -6 l 19 -6 q 17 -8 19 -8 l 17 -7 q 7 6 14 -4 q -7 26 0 15 q -17 42 -14 36 q -21 55 -19 49 q -24 69 -22 61 q -26 89 -25 76 l -25 92 l -28 92 l -26 93 q -28 94 -28 93 q -29 96 -28 96 l -32 94 l -31 86 q -32 85 -31 85 q -36 104 -32 101 l -35 107 l -36 107 l -35 108 q -37 133 -37 119 q -29 199 -37 169 l -31 200 l -29 201 l -32 203 q 7 324 -18 275 q 86 442 32 372 l 79 435 q 122 485 79 439 q 179 543 164 531 q 197 554 182 543 q 206 560 203 560 q 217 565 208 560 q 229 571 226 571 q 232 572 232 571 q 233 572 232 572 q 237 571 233 571 q 243 571 240 571 l 242 572 l 246 572 l 243 569 l 246 568 q 256 569 249 568 q 275 571 264 571 q 291 567 283 571 q 311 564 299 564 q 319 565 318 564 q 322 569 319 567 q 343 582 336 581 l 343 583 q 349 586 347 583 q 356 589 350 589 q 376 601 358 592 q 397 613 393 610 q 399 611 399 613 q 401 614 400 613 q 407 615 401 615 l 407 618 l 410 615 q 411 617 410 617 q 413 619 413 617 l 415 618 q 416 620 415 619 q 418 621 417 621 l 418 619 l 419 621 l 421 619 l 421 622 l 424 622 l 424 624 q 426 624 426 624 l 428 625 q 431 626 429 626 q 437 628 432 626 q 449 631 442 629 l 450 632 l 451 631 l 453 633 l 456 631 q 457 633 456 633 l 460 632 q 461 635 460 635 q 474 637 463 635 q 485 639 485 639 q 486 640 486 639 l 488 639 l 490 640 l 493 639 l 493 640 l 497 639 q 499 642 497 642 l 499 640 l 500 642 l 503 640 l 506 642 l 508 640 l 508 642 l 510 640 q 511 642 510 642 l 511 644 l 514 642 l 514 643 q 519 644 518 643 q 519 647 519 646 q 550 650 532 650 q 619 642 582 650 q 679 617 656 635 l 686 610 l 685 610 q 692 606 688 608 q 697 603 696 604 q 699 601 697 601 q 700 599 700 600 q 703 598 700 599 q 708 592 706 597 q 713 586 711 586 q 716 583 715 586 q 721 579 717 579 q 739 560 725 579 l 751 539 l 750 538 l 751 538 l 750 536 l 753 535 l 750 533 l 753 532 l 751 532 l 754 531 l 751 529 l 754 528 l 753 528 l 767 489 l 764 489 l 767 485 q 765 483 765 485 l 768 479 l 769 481 q 772 467 772 481 q 772 441 772 456 q 769 417 771 426 l 768 406 l 769 410 l 771 408 q 767 401 771 401 l 768 400 q 758 353 768 390 q 717 267 747 317 q 706 253 707 254 q 704 251 704 251 q 703 249 704 250 q 703 246 703 249 l 701 247 q 699 243 701 243 q 697 240 697 243 q 694 237 696 238 q 693 235 693 236 q 692 231 693 233 q 690 228 692 229 q 686 225 688 228 q 678 218 683 225 l 674 211 q 672 208 674 210 q 665 199 669 207 l 669 201 q 662 197 667 199 q 654 188 657 194 l 657 188 l 657 186 q 590 119 643 165 l 539 75 q 533 72 536 75 q 528 68 529 68 q 526 66 526 68 q 524 63 525 64 q 522 63 524 63 q 519 60 519 63 q 513 58 515 60 q 511 55 511 56 q 508 54 511 54 l 510 53 l 507 53 l 508 50 l 507 51 q 504 50 506 51 l 503 49 q 497 43 499 44 q 489 40 494 42 q 482 35 483 38 q 478 31 481 32 q 354 -36 407 -17 q 294 -56 301 -56 l 294 -54 q 286 -57 292 -57 q 274 -60 281 -57 l 274 -57 l 272 -58 q 252 -60 264 -60 q 236 -65 240 -61 l 235 -62 l 229 -67 l 231 -64 q 224 -65 226 -64 q 219 -67 221 -65 q 218 -65 219 -65 q 215 -72 215 -68 l 214 -68 l 214 -72 l 214 -69 q 211 -67 213 -67 q 210 -69 210 -67 l 213 -68 q 210 -72 213 -71 q 185 -74 208 -74 m -29 96 l -28 97 q -29 100 -28 100 l -29 96 m -1 168 q 3 182 1 168 q 6 201 6 196 q 0 176 4 201 l -1 168 m 7 211 q 17 240 11 211 l 18 244 q 12 230 17 244 q 7 211 7 215 m 29 135 q 31 143 31 135 q 29 141 29 143 q 29 135 29 139 m 28 50 q 27 54 28 51 q 24 57 26 57 l 22 54 q 26 53 25 54 q 28 50 26 51 m 44 14 l 44 15 l 35 28 q 25 39 32 33 q 33 28 25 38 q 40 17 40 19 q 44 14 43 17 m 719 413 q 721 419 721 413 q 719 424 721 424 l 718 418 l 719 413 m 719 385 l 721 390 l 718 385 l 719 385 m 721 456 q 722 463 722 456 l 721 469 q 719 467 719 469 l 721 463 l 719 460 l 721 456 m 721 490 l 722 492 q 719 494 719 493 q 718 497 718 496 q 721 490 718 492 m 719 474 l 719 478 l 715 492 q 717 482 715 486 q 718 476 718 478 q 719 474 718 474 m 714 386 q 717 393 715 386 q 718 414 718 400 q 716 411 717 414 q 715 406 715 408 l 717 406 l 717 400 l 715 401 q 716 399 715 399 q 717 399 717 400 q 714 386 714 397 m 708 369 l 710 371 l 714 383 l 713 385 q 710 379 713 383 q 708 369 708 375 m 706 518 l 701 522 l 703 519 q 706 518 704 518 m 694 543 q 692 548 692 546 q 688 550 692 550 l 690 547 q 694 543 693 543 m 683 432 l 683 438 q 682 447 683 447 q 683 432 682 432 m 679 438 q 677 467 679 464 q 674 471 675 471 l 676 460 l 675 458 l 676 453 q 675 451 675 453 q 677 449 676 450 q 678 447 678 449 q 676 447 676 447 q 675 444 675 446 q 676 440 675 443 q 679 438 676 438 m 675 414 l 676 419 l 675 421 l 675 414 m 676 475 l 672 481 l 675 475 l 676 475 m 674 406 l 674 413 q 672 410 672 413 q 674 406 672 406 m 279 7 q 395 56 332 18 q 503 131 458 93 q 633 258 574 186 q 708 419 692 331 l 708 425 q 706 420 707 425 q 703 413 704 415 q 702 407 703 411 q 701 402 701 403 q 700 401 700 401 q 699 399 700 400 q 696 385 696 392 l 694 386 q 692 373 694 376 q 689 365 690 369 q 686 360 688 361 q 683 354 685 358 l 685 353 l 689 360 q 687 353 689 357 q 683 349 685 350 q 682 344 682 349 q 681 340 682 340 l 681 342 l 676 342 l 678 340 l 676 340 l 678 339 q 676 335 676 336 q 675 332 675 335 l 678 336 q 676 328 676 331 q 668 318 675 325 l 669 317 l 643 276 l 628 257 l 626 256 q 624 253 624 254 q 592 215 614 236 l 583 207 l 586 208 l 575 199 q 572 196 575 197 q 569 192 569 194 q 547 172 561 192 l 540 164 l 542 167 l 524 151 l 519 150 q 515 143 515 147 q 501 136 511 143 l 493 129 l 490 124 l 492 124 l 486 119 l 489 125 q 484 119 486 125 q 474 111 482 114 q 476 114 474 114 q 478 115 478 114 q 474 111 476 115 q 468 107 471 107 q 467 108 468 108 q 461 101 467 106 l 454 97 q 451 94 454 94 q 447 92 449 93 l 447 93 q 443 88 443 93 q 442 88 442 88 q 439 89 442 89 l 440 88 l 438 85 l 439 88 q 433 85 436 86 q 429 81 431 83 q 424 78 428 78 q 421 76 421 78 q 419 73 421 74 q 417 71 417 72 q 389 57 406 68 l 385 54 l 386 54 q 379 50 386 53 l 375 47 q 367 44 371 44 q 363 43 364 43 l 364 43 q 363 42 364 42 q 344 33 363 42 q 300 15 314 18 q 279 7 286 11 m 700 347 q 703 351 701 347 q 707 361 704 356 l 700 347 m 218 -21 q 437 65 333 -4 q 612 213 540 133 q 700 344 683 293 l 700 346 l 699 344 q 697 342 697 343 q 696 340 697 340 q 694 336 694 339 q 686 318 690 325 q 679 307 683 318 q 678 304 679 306 q 677 300 678 303 q 674 297 676 297 q 671 293 672 297 q 665 283 669 289 q 659 275 661 278 q 650 263 657 272 q 572 176 631 236 q 208 -21 414 14 l 218 -21 m 590 185 q 596 190 592 185 l 590 185 m 576 169 l 588 182 l 576 169 m 554 151 l 560 154 l 554 151 m 478 89 q 503 107 481 89 l 514 115 q 478 89 513 115 m 468 82 l 476 86 q 472 85 475 86 q 468 82 468 85 m 397 38 q 419 49 406 40 q 447 67 433 58 q 463 78 460 75 q 419 50 447 69 l 397 38 m 388 32 l 396 36 l 392 35 q 388 32 388 33 m 374 24 l 385 31 l 374 25 l 374 24 m 276 -14 q 344 9 321 -1 q 368 21 368 19 q 330 6 350 13 q 293 -7 310 -1 q 276 -14 276 -12 m 204 -21 l 208 -18 l 203 -18 l 203 -17 l 200 -19 l 199 -18 l 163 -19 l 168 -21 l 204 -21 m 208 32 l 226 35 l 219 36 q 349 75 272 36 q 375 88 364 83 q 304 55 347 71 q 232 33 261 39 l 243 33 q 457 142 361 65 l 451 139 l 460 146 l 458 142 q 468 150 464 147 q 479 160 472 153 q 481 162 479 161 q 483 163 482 163 q 579 257 547 221 q 628 329 628 311 q 624 319 624 322 q 621 313 624 315 l 621 314 l 604 289 l 614 306 q 606 294 613 306 l 597 283 l 601 292 l 592 279 l 596 282 q 589 272 596 279 l 603 286 l 585 264 q 582 263 583 264 q 581 261 581 263 l 582 261 q 556 236 579 260 l 574 256 q 590 276 590 275 q 408 119 492 171 q 267 51 324 67 q 194 35 210 35 l 193 33 l 208 32 m 185 35 l 194 36 q 185 35 185 36 m 254 64 l 268 68 q 260 67 267 68 q 254 64 254 65 m 260 51 q 261 53 261 51 l 256 51 l 260 51 m 275 56 l 285 58 q 328 78 319 68 q 282 61 317 75 q 275 56 275 57 m 329 93 l 344 100 q 336 97 343 100 q 329 93 329 94 m 521 231 l 540 249 l 583 296 l 565 278 q 522 233 549 257 l 521 231 m 592 310 q 600 321 594 310 l 596 315 q 592 310 593 310 m 646 358 q 648 361 647 358 q 649 367 649 364 l 646 358 m 640 343 q 644 347 642 343 q 646 354 646 351 l 640 343 m 640 336 l 644 344 l 640 336 m 639 528 l 640 529 l 636 531 q 639 528 639 531 m 635 346 q 638 353 638 349 l 633 346 l 635 346 m 635 531 q 634 533 635 532 q 632 533 633 533 q 635 531 632 531 m 629 332 q 632 336 631 332 q 633 343 633 340 q 629 332 631 343 m 460 136 l 460 138 q 577 240 519 178 q 663 368 635 301 l 660 371 q 642 333 657 354 l 631 315 q 585 253 617 286 q 476 153 536 200 q 469 148 472 149 q 467 143 467 147 q 458 138 460 140 l 460 136 m 663 369 l 664 374 l 661 375 l 661 372 l 663 372 l 663 369 m 656 388 l 657 397 q 654 390 654 394 l 656 388 m 657 381 q 660 385 660 381 q 662 394 661 389 q 663 406 663 400 l 661 407 l 657 390 l 658 390 l 657 381 m 664 406 l 665 413 l 664 421 q 663 413 663 419 l 664 406 m 664 375 l 667 382 l 663 376 l 664 375 m 660 357 q 665 369 663 357 l 660 357 m 661 376 l 667 386 l 665 388 l 661 376 m 664 390 l 665 397 l 663 392 l 664 390 m 631 306 q 635 310 633 306 l 638 314 q 634 310 636 314 q 631 306 632 307 m 604 233 l 610 239 q 604 233 607 239 m 533 206 q 563 235 544 215 q 598 275 581 254 q 624 310 615 296 q 533 206 583 254 m 433 118 q 438 119 435 118 q 440 124 440 121 q 435 122 438 124 q 433 118 433 119 m 400 96 q 406 99 401 96 q 410 103 410 101 q 400 96 401 99 m 311 50 q 399 96 360 68 q 311 50 371 79 m 268 35 l 271 36 l 264 35 l 268 35 m 267 3 l 276 6 l 264 3 l 267 3 m 200 -3 l 207 -1 l 210 0 l 207 0 q 199 -1 199 0 l 200 -3 m 213 24 l 247 29 l 201 24 l 213 24 m 225 -3 l 225 -1 l 218 -1 l 217 -3 l 225 -3 m 215 -3 l 211 -1 l 210 -3 l 215 -3 m 217 -3 q 213 0 215 0 q 217 -3 214 -3 m 225 -6 l 236 -3 l 219 -4 q 225 -6 219 -6 m 235 -4 l 253 -1 q 263 1 263 0 q 252 0 256 1 q 236 -3 249 -1 l 235 -4 m 261 32 l 263 33 l 256 32 l 261 32 m 192 54 q 182 57 192 57 q 183 56 182 56 q 187 56 185 56 q 192 54 189 56 m 193 31 l 196 32 l 185 33 q 181 35 185 35 l 183 33 q 193 31 186 31 m 178 31 l 181 32 q 178 33 181 33 l 175 32 l 178 31 m 183 22 l 197 24 l 161 25 q 183 22 167 22 m 190 -6 l 192 -4 l 199 -4 l 196 -3 l 183 -3 l 190 -6 m 210 -7 l 201 -6 q 194 -7 194 -6 l 210 -7 m 667 444 l 668 446 l 665 451 l 667 444 m 669 494 q 668 497 669 496 q 665 497 667 497 l 669 494 m 667 456 l 667 465 l 669 464 l 665 469 l 664 468 l 667 456 m 667 424 l 664 436 l 663 431 l 664 432 l 667 424 m 661 507 q 662 508 661 508 q 664 508 663 508 q 653 516 654 514 q 650 518 651 518 q 654 512 651 517 q 661 507 657 507 m 661 513 l 657 517 q 661 513 658 513 m 650 626 l 650 629 l 647 628 l 647 629 q 639 633 646 631 q 636 631 636 632 l 650 626 m 635 632 l 636 635 l 622 639 l 626 636 q 635 632 632 632 m 614 588 l 615 589 l 610 590 l 614 588 m 635 535 q 608 547 617 547 q 635 535 629 536 m 610 544 q 586 550 600 550 q 610 544 596 544 m 588 599 q 582 600 586 600 l 581 600 l 582 599 l 588 599 m 600 611 q 594 613 600 613 q 579 615 588 614 q 565 617 571 617 q 558 615 558 617 q 600 611 579 615 m 182 94 q 216 98 200 94 q 242 101 232 101 l 243 99 l 243 101 q 244 103 244 101 l 246 100 l 247 103 l 249 101 l 249 104 q 250 106 250 104 l 251 103 l 254 104 q 256 106 254 106 l 258 104 l 260 107 l 263 106 q 265 108 264 108 l 275 110 q 276 111 275 111 q 279 113 278 111 l 279 114 l 286 115 q 508 274 408 165 q 607 443 607 383 q 556 483 607 481 q 542 482 546 483 l 536 479 l 535 479 l 535 478 l 532 479 q 528 477 531 478 q 524 476 526 476 q 519 475 522 476 q 510 472 515 474 l 508 474 l 508 472 q 506 469 506 471 l 504 471 l 500 469 l 500 471 l 499 469 l 496 469 q 493 465 496 467 l 488 465 q 482 463 485 464 q 478 461 479 463 q 454 447 478 460 q 404 416 431 435 q 365 378 378 397 q 360 371 363 371 q 357 369 358 371 q 356 371 356 369 l 354 371 l 354 372 l 353 369 l 351 371 l 353 372 l 351 372 q 340 361 350 371 q 331 360 338 360 q 328 357 329 358 q 321 356 328 356 l 318 357 l 301 353 l 301 356 q 300 357 300 356 l 294 357 l 299 372 q 292 363 294 367 q 288 360 290 360 l 286 360 l 289 368 l 286 365 l 288 369 l 283 364 l 286 372 l 279 364 l 279 365 q 271 361 275 361 q 264 371 265 361 l 264 372 l 260 372 q 258 372 258 372 l 257 375 q 254 378 257 378 l 250 375 l 249 385 q 224 353 246 385 q 176 274 201 322 q 138 172 151 226 l 138 171 l 136 171 l 136 169 l 135 169 l 132 138 q 154 101 132 111 q 182 94 160 94 m 156 25 q 148 30 150 29 q 144 31 146 31 l 144 29 l 107 43 l 108 46 l 106 43 q 129 32 117 35 l 139 29 l 135 32 l 139 29 q 156 25 149 25 m 106 43 q 103 47 106 46 q 101 50 101 49 l 104 49 l 104 50 q 101 50 101 50 q 99 51 100 50 q 97 53 99 51 l 96 51 l 99 50 l 97 50 q 101 45 99 46 q 106 43 104 44 m 108 46 l 106 47 l 108 46 m 132 29 l 124 32 l 122 31 l 132 29 m 88 442 q 90 444 89 442 q 94 449 92 446 q 88 442 90 446 m 79 97 l 79 99 q 74 108 76 107 l 72 113 q 71 110 71 113 q 74 101 72 101 q 79 97 76 100 m 78 92 l 79 94 q 77 98 78 96 q 74 100 76 100 q 74 95 74 99 q 78 92 75 92 m 56 114 l 57 117 q 56 121 57 121 l 54 119 l 56 114 m 68 100 l 67 104 l 65 103 l 68 100 m 76 86 q 67 96 71 96 l 67 93 l 65 93 l 68 90 q 74 88 72 88 q 76 86 75 88 m 78 78 l 79 79 q 68 86 72 86 q 72 82 68 83 q 76 80 75 81 q 78 78 76 79 m 79 60 q 78 65 79 65 q 74 68 76 65 l 75 64 q 79 60 78 60 m 89 61 q 86 66 89 64 q 81 68 83 68 l 79 67 q 82 64 79 65 q 87 63 85 63 q 89 61 89 63 m 92 56 q 93 57 93 56 l 85 61 l 83 60 l 81 61 q 90 56 81 56 l 92 56 m 121 31 l 121 32 q 112 37 117 35 q 99 42 107 39 q 90 49 92 46 q 83 54 88 51 q 106 39 97 40 q 111 37 108 38 q 115 34 114 36 q 118 32 117 32 q 121 31 119 32 m 126 -33 l 126 -32 q 106 -22 117 -26 q 88 -15 94 -18 l 86 -15 q 90 -19 86 -17 q 99 -24 94 -22 q 104 -26 103 -25 q 108 -28 106 -26 q 117 -31 111 -29 q 126 -33 124 -32 m 139 -15 q 135 -14 139 -14 l 132 -14 q 135 -15 132 -15 l 139 -15 m 146 0 q 133 7 139 7 q 134 4 133 4 q 136 4 135 4 l 135 3 q 139 1 138 1 q 146 0 140 0 m 193 -8 l 193 -7 l 165 -6 q 160 -4 165 -4 q 154 -1 154 -4 l 149 -3 l 142 -1 q 149 -5 143 -4 q 164 -7 154 -6 l 193 -8 m 617 149 l 628 160 q 639 172 639 171 q 631 165 636 169 q 622 156 626 160 q 617 149 618 151 m 642 172 l 656 188 q 653 187 654 188 q 651 185 651 186 q 650 183 651 185 l 642 174 l 640 174 l 642 172 m 189 -40 l 213 -39 q 511 94 360 -22 q 722 351 663 210 q 613 194 697 289 q 369 11 529 99 l 360 7 q 185 -37 281 -37 l 151 -36 q 189 -40 157 -40 m 729 513 q 725 521 726 521 q 722 521 724 521 q 729 513 726 514 m 739 474 l 739 476 q 738 482 739 482 l 738 475 l 739 474 m 740 429 q 742 446 742 429 l 740 465 q 739 433 739 465 l 740 429 m 488 174 l 488 175 l 513 196 l 525 208 q 508 190 525 207 q 488 174 490 174 m 379 90 q 418 117 388 97 l 436 129 l 438 129 q 426 119 433 125 q 412 110 418 114 q 404 106 406 106 q 399 103 403 106 q 392 98 396 101 q 384 92 388 94 q 379 90 381 90 m 536 218 l 550 231 q 542 222 544 224 q 536 218 539 221 m 325 68 q 336 75 326 71 q 325 68 336 74 m 361 88 l 375 96 q 361 88 368 90 z "},"1":{"ha":607,"x_min":-181,"x_max":581,"o":"m 294 260 l 294 261 q 301 272 294 265 l 294 260 m -60 -106 l -72 -104 q -87 -100 -87 -103 l -89 -101 l -89 -100 q -116 -94 -101 -100 q -141 -82 -131 -89 q -151 -74 -151 -75 q -150 -72 -151 -72 l -153 -71 q -157 -68 -157 -69 l -156 -67 q -158 -63 -157 -67 q -161 -60 -160 -60 q -162 -58 -162 -60 q -162 -56 -162 -57 q -164 -54 -162 -56 q -166 -51 -165 -53 q -167 -47 -167 -50 q -169 -44 -167 -44 q -171 -41 -171 -43 q -175 -35 -171 -39 q -179 -28 -179 -32 l -179 -25 q -178 -22 -179 -22 q -176 -11 -176 -21 l -179 -8 l -178 -7 l -178 -3 l -176 -3 q -181 3 -181 -1 l -178 1 l -178 7 l -179 8 l -178 8 l -179 21 q -140 65 -179 46 l -156 60 q -142 65 -151 63 q -120 71 -132 68 q -103 76 -108 74 l -101 79 l -93 76 l -62 79 q -56 78 -57 79 q -47 76 -54 76 q -29 69 -31 72 q -11 68 -21 68 q 69 75 19 68 l 74 75 l 236 361 q 233 360 235 361 q 229 357 232 360 l 224 358 q 222 357 224 357 q 219 356 219 357 q 217 354 218 354 q 204 349 208 349 q 197 347 200 349 q 192 344 193 344 q 190 342 190 343 q 187 342 189 342 q 185 341 185 342 q 183 340 185 340 q 179 339 181 340 q 175 336 178 338 q 174 338 175 338 q 172 335 172 336 q 157 333 171 335 l 158 335 q 149 333 153 333 q 140 332 146 332 q 131 331 135 332 l 126 332 l 119 331 l 118 332 l 117 331 l 115 332 l 119 333 q 116 335 119 335 q 106 336 113 335 q 82 347 86 342 l 85 350 q 74 354 81 353 q 63 365 68 356 l 57 369 l 58 371 q 55 374 56 372 q 53 375 54 375 q 46 386 46 378 l 47 390 l 46 396 l 47 400 l 47 400 q 45 402 47 401 q 43 407 43 403 q 43 413 43 411 q 36 424 43 414 l 39 439 q 46 453 43 453 q 51 460 46 456 q 63 469 57 464 l 61 471 q 79 477 65 471 q 96 483 93 483 q 97 481 96 481 q 107 485 103 481 q 358 617 133 485 q 392 637 392 636 q 394 639 393 638 q 399 640 394 640 q 403 642 403 640 q 410 647 404 644 q 415 651 415 650 q 416 652 415 651 q 418 653 417 653 l 417 651 q 422 653 421 651 q 424 657 424 656 l 428 657 l 426 658 l 429 660 l 429 658 q 433 660 432 658 q 438 663 435 663 q 442 665 442 663 q 447 670 442 668 q 451 674 451 672 q 462 676 458 674 q 469 678 465 678 q 474 682 472 679 l 476 681 l 478 683 q 481 683 481 683 q 482 682 481 682 q 486 684 483 682 q 497 686 489 686 q 498 683 497 683 q 500 683 499 683 l 504 685 q 518 683 513 685 q 530 681 524 682 q 536 675 536 679 q 533 669 536 672 l 532 667 l 542 671 q 546 668 546 671 q 544 667 546 667 q 555 665 553 667 q 560 661 557 663 q 563 659 563 660 q 563 654 563 658 l 561 653 q 563 652 563 653 q 565 651 564 651 q 566 649 565 650 q 568 648 567 647 q 570 646 569 649 q 573 643 571 643 q 575 640 575 643 q 576 637 575 638 q 576 632 576 636 q 578 622 576 628 q 581 608 581 617 q 560 538 581 572 l 421 333 q 335 206 367 254 q 278 107 303 157 l 324 108 q 431 113 379 113 q 481 108 467 113 l 479 107 l 481 104 l 481 107 l 481 106 q 485 103 482 104 q 488 101 488 103 l 485 101 l 486 100 q 502 94 492 97 q 521 86 513 90 q 529 81 529 82 l 528 78 q 532 75 528 76 q 536 72 536 74 q 538 70 536 71 q 544 65 540 69 q 547 57 547 61 q 546 56 547 56 l 543 56 l 543 54 q 547 51 544 53 q 551 44 550 49 q 550 41 550 43 q 548 39 550 39 q 544 38 546 39 l 547 36 l 544 35 q 549 33 547 35 q 553 31 550 31 l 550 25 l 551 22 q 545 6 549 8 q 542 -1 542 3 q 514 -26 528 -24 l 513 -28 l 518 -31 l 515 -31 q 514 -32 514 -31 l 514 -35 l 504 -36 q 499 -39 504 -37 q 493 -43 493 -40 l 494 -44 l 492 -46 l 493 -49 q 485 -53 489 -53 q 476 -51 483 -51 q 465 -49 468 -50 l 464 -50 l 463 -49 l 461 -50 l 458 -49 l 457 -50 l 456 -49 q 450 -51 456 -51 q 439 -50 439 -51 q 438 -49 439 -49 q 436 -52 438 -51 q 433 -53 435 -53 q 432 -51 432 -53 l 432 -50 q 400 -55 426 -54 q 265 -71 374 -56 q -60 -106 7 -106 m 306 229 l 313 240 l 304 229 l 306 229 m 331 269 q 379 336 351 296 l 385 346 l 331 269 m 349 308 l 349 310 l 351 313 l 349 308 m 372 342 l 392 369 q 372 342 375 349 m 388 347 l 386 347 l 388 347 m 392 353 q 395 358 394 357 q 402 369 396 360 q 408 379 408 378 l 389 353 l 392 353 m 394 374 l 401 385 q 394 374 394 376 m 404 388 l 410 397 l 403 388 l 404 388 m 410 381 q 419 394 419 390 l 415 390 q 410 382 410 383 l 410 381 m 419 396 q 422 397 421 397 q 423 398 422 397 q 426 401 424 399 q 428 406 428 404 q 419 396 419 403 m 428 407 q 432 411 431 408 q 435 416 433 414 q 436 419 436 418 l 435 419 l 426 407 l 428 407 m 417 407 q 426 419 424 417 q 438 436 429 422 l 417 407 m 438 422 l 440 424 l 440 426 l 447 436 l 449 440 q 439 426 446 435 l 438 422 m 451 444 l 456 447 l 456 449 l 454 447 q 451 444 451 446 m 406 439 l 411 447 l 406 439 m 379 439 l 382 443 l 378 440 l 379 439 m 83 1 q 88 3 83 3 l 89 3 q 88 4 89 4 l 82 3 l 83 1 m 79 14 l 83 15 l 83 17 l 82 15 l 76 18 q 76 15 76 15 q 74 15 75 15 l 69 17 l 72 15 q 71 14 72 14 l 79 14 m 53 15 q 62 16 57 15 q 71 17 67 17 q 78 19 75 18 l 75 19 q 60 17 69 19 q 44 15 50 15 l 53 15 m 40 -61 q 147 -47 81 -58 l 147 -46 l 143 -47 l 143 -46 l 138 -47 l 138 -46 l 135 -47 l 135 -46 l 133 -47 l 133 -46 q 130 -47 132 -47 q 113 -49 128 -47 q 83 -52 97 -50 q 64 -57 68 -54 l 63 -57 l 63 -56 l 61 -57 l 56 -57 q 47 -58 54 -58 q 40 -61 40 -58 m 176 200 l 307 396 l 310 401 q 293 381 308 401 l 279 361 q 176 200 226 286 m 283 344 q 288 349 285 344 l 283 344 m 189 181 l 193 190 q 189 181 190 186 m 276 325 l 290 342 q 319 380 303 357 q 349 425 336 403 q 344 419 346 422 q 336 410 342 415 l 331 400 q 275 325 279 329 l 276 325 m 231 224 q 253 256 239 232 l 328 364 q 376 440 376 433 q 303 340 372 439 q 235 233 235 240 q 231 226 235 226 l 232 225 l 231 225 l 231 224 m 349 356 l 350 357 q 365 379 358 367 q 358 371 364 379 q 349 356 351 363 m 268 238 l 322 318 l 346 353 q 313 306 343 351 q 268 238 282 260 m 263 203 q 274 217 265 203 q 281 225 279 225 l 279 221 l 453 476 l 442 465 q 446 472 442 469 q 435 460 444 472 l 426 447 q 417 434 425 447 q 404 415 410 421 l 401 411 q 396 406 399 406 l 415 433 q 415 435 415 435 q 413 435 414 435 l 415 438 l 415 436 l 418 438 l 417 438 l 418 442 l 419 440 q 428 453 419 444 q 438 468 438 461 l 432 461 l 432 463 q 426 456 431 463 l 421 447 q 426 453 424 449 q 431 460 428 458 q 420 445 425 450 q 411 433 415 440 l 413 433 q 400 413 404 418 q 393 403 396 407 l 396 404 l 394 401 l 396 401 l 394 400 l 393 401 q 374 369 376 374 q 367 358 371 365 q 351 339 363 351 q 347 335 350 335 l 365 360 q 368 366 365 361 q 372 371 371 371 l 390 399 q 386 396 389 399 q 379 383 386 392 q 374 378 376 379 q 372 375 372 376 q 371 374 372 374 q 369 371 369 374 q 369 368 369 368 q 367 367 368 368 q 365 365 365 367 q 353 346 365 364 q 346 335 347 339 l 344 332 l 344 333 q 341 328 342 331 q 333 317 340 326 q 331 314 331 317 q 318 296 325 303 q 317 297 318 297 q 316 292 317 293 q 314 289 315 292 l 333 315 q 310 281 333 313 l 311 285 l 307 279 q 310 285 307 282 q 314 292 314 289 q 309 285 313 292 q 305 278 306 279 q 299 269 304 278 q 285 247 285 250 l 286 247 q 283 244 285 246 q 278 238 281 243 l 283 244 l 279 236 q 297 261 281 236 l 263 203 z "},"2":{"ha":717,"x_min":-68,"x_max":778,"o":"m -50 29 l -54 29 q -57 31 -57 29 q -56 31 -56 31 q -56 33 -56 32 q -54 33 -56 33 q -53 32 -53 33 l -53 31 l -46 33 l -44 32 q -50 29 -44 31 m -68 46 l -68 47 q -67 50 -68 50 l -65 49 l -68 46 m 396 225 l 396 226 l 399 229 q 403 231 401 231 l 396 225 m 436 251 q 440 256 436 253 q 451 263 444 260 l 436 251 m 378 215 q 381 218 381 217 q 388 221 382 219 l 378 215 m 465 263 q 481 272 478 272 l 465 263 m 444 251 q 449 256 447 254 q 451 258 450 257 q 456 260 453 258 l 444 251 m 36 -54 l 32 -53 l 36 -50 l 39 -51 l 36 -54 m -53 -1 l -54 0 l -47 1 q -53 -1 -47 -1 m 40 -54 l 39 -53 l 40 -49 l 39 -47 q 38 -50 38 -47 l 35 -47 l 33 -49 l 33 -47 l 32 -50 l 31 -49 q 31 -51 31 -50 q 26 -51 31 -51 l 26 -50 q -1 -51 19 -51 l -3 -50 l -4 -51 l -7 -50 l -7 -51 q -18 -46 -14 -46 q -22 -44 -22 -46 l -22 -43 q -24 -40 -24 -43 q -22 -39 -22 -40 l -24 -39 q -25 -37 -25 -39 l -28 -39 l -28 -36 l -37 -35 q -31 -32 -36 -32 l -33 -32 q -29 -30 -31 -31 q -24 -29 -28 -29 q -25 -28 -24 -28 l -24 -25 q -33 -21 -24 -21 l -49 -22 l -53 -21 l -24 -14 q -14 -11 -14 -12 l -29 -11 q -11 -7 -18 -7 q 4 -3 -4 -7 l -33 -6 l -19 -1 q 3 3 -3 -1 l 3 4 q -31 0 -15 0 q -21 4 -28 3 l -14 6 q 8 9 4 7 q 24 14 13 11 l 24 13 l 29 17 q 32 15 29 15 q 42 18 39 15 q 47 22 44 21 q 31 21 36 22 q 22 19 26 19 q 14 17 17 19 q 7 15 11 15 q -6 11 3 14 l 8 19 q 7 20 7 19 q 7 22 7 21 l 6 19 l 4 21 l -6 18 q -19 14 -15 14 q -29 9 -24 14 q -42 4 -35 4 l -44 3 l -46 4 q -43 8 -43 6 l -54 4 q -52 8 -53 6 q -43 15 -51 11 q -51 13 -47 15 q -58 10 -56 11 q -56 13 -58 11 q -54 15 -54 14 l -56 15 q -47 19 -56 17 q -37 23 -37 21 q -35 25 -37 25 q -28 27 -33 25 q -24 31 -24 29 l -31 33 l -35 32 l -40 35 q -36 38 -40 36 q -30 41 -32 39 q -19 47 -28 43 q -11 53 -11 51 q -49 36 -35 49 l -51 36 q -36 44 -51 38 l -21 53 q -40 49 -33 53 q -54 43 -46 46 l -44 49 q -58 46 -56 49 q -62 43 -61 43 q -58 51 -62 50 q -49 54 -53 51 l -67 54 l -62 57 l -60 56 l -60 57 l -58 56 q -52 58 -54 56 q -48 60 -50 60 q -36 61 -46 60 l -42 63 l -42 61 l -46 64 q -40 65 -40 64 q -35 67 -39 65 l -32 65 q -28 69 -31 69 q -24 71 -26 69 q -27 69 -24 69 q -31 67 -31 68 q -23 69 -29 67 q -17 74 -17 72 l -19 72 l -28 72 q -18 76 -28 75 q -8 82 -8 78 l -14 81 q -28 75 -25 78 q -38 70 -31 72 q -47 66 -46 68 q -49 64 -47 64 q -51 63 -51 64 l -54 64 q -56 61 -54 61 q -60 60 -57 61 q -61 64 -60 64 l -68 61 q -62 68 -65 68 q -60 74 -60 68 l -64 69 q -61 78 -64 78 q -58 81 -58 79 l -62 79 q -64 81 -64 79 q -55 90 -58 86 q -40 100 -51 94 l 103 176 q 449 390 246 253 q 454 395 453 394 q 458 399 456 396 q 463 401 461 401 q 467 403 464 401 q 475 411 471 406 l 482 413 q 488 419 482 414 l 489 421 q 538 458 514 438 q 589 513 589 503 l 588 515 l 589 517 q 565 519 582 519 q 479 511 539 519 l 467 510 q 241 439 333 485 q 149 383 149 393 q 151 374 151 381 q 157 363 151 368 l 154 357 q 157 354 154 354 l 156 353 q 133 314 154 332 q 120 307 125 307 q 115 305 115 307 q 111 301 115 303 l 67 310 l 67 311 q 47 324 58 314 l 44 325 q 32 336 39 328 l 28 342 q 17 360 21 350 q 8 378 14 371 q 7 383 7 378 l 10 408 l 8 414 q 108 552 19 492 q 323 649 197 613 q 558 685 449 685 q 746 617 706 685 q 778 544 772 583 q 737 421 778 471 q 638 324 696 371 q 439 181 514 226 q 400 154 408 161 q 443 151 400 151 q 511 147 475 151 q 528 143 521 146 q 529 144 529 143 l 531 142 l 532 143 l 533 142 l 533 143 q 536 142 536 143 q 539 140 536 142 l 540 142 l 542 139 l 542 140 l 547 138 q 546 137 546 138 q 543 136 546 136 l 551 133 q 564 128 564 129 l 563 128 l 569 125 q 582 119 582 121 q 593 108 593 111 q 579 104 593 104 q 589 100 579 103 q 606 93 606 96 l 600 92 q 604 88 600 90 l 601 86 l 604 85 q 600 83 604 83 l 603 81 l 600 79 l 592 81 l 593 79 l 592 79 q 601 75 594 76 q 613 69 607 74 q 605 67 613 68 q 597 65 597 67 q 603 63 603 65 q 606 60 603 61 q 610 58 610 60 l 604 56 l 607 54 q 610 51 610 54 q 604 42 608 44 l 600 39 l 603 36 q 599 32 603 33 q 596 28 596 31 q 592 26 596 26 q 589 25 589 26 l 592 22 q 590 21 592 21 q 588 19 588 21 q 574 8 588 11 l 571 8 l 572 6 q 563 1 572 3 l 560 0 l 565 -1 l 561 -3 q 552 -5 557 -4 q 547 -7 547 -6 q 544 -9 546 -8 q 543 -11 543 -10 l 544 -12 q 542 -15 544 -14 q 539 -15 540 -15 q 471 -12 511 -12 q 232 -26 365 -12 q 40 -54 63 -43 m -39 53 q -35 53 -37 53 q -30 55 -32 54 q -28 58 -28 56 l -43 54 l -39 53 m -42 8 q -36 10 -40 8 q -29 15 -32 13 l -42 8 m 14 58 q 18 60 17 60 q 20 60 19 60 q 22 63 21 61 l 14 58 m -18 54 l -11 57 l -14 58 q -15 57 -14 57 l -18 57 l -18 58 l -19 58 l -18 54 m -4 61 l 3 64 l 1 65 q -6 64 0 65 q -12 61 -11 63 l -4 61 m -26 33 l -19 35 l -22 40 l -21 42 q -28 39 -26 42 q -36 36 -31 36 q -33 35 -36 35 l -25 36 l -26 33 m -15 39 q 6 47 -1 43 q 24 56 14 51 l 26 58 l 24 58 q 10 56 19 58 q -7 49 1 53 q -15 44 -15 46 l -15 43 l -18 43 q -21 40 -21 43 q -18 39 -21 39 l -15 39 m 26 60 l 31 63 l 28 63 l 24 60 l 26 60 m -8 -26 q -1 -21 -1 -25 q -7 -23 -3 -21 q -11 -26 -11 -25 l -8 -26 m 4 3 l 11 4 l 8 4 q 4 3 4 4 m 15 -4 l 24 1 q 18 0 22 1 q 14 -3 14 -1 l 15 -4 m 585 408 l 589 411 q 587 409 588 410 q 585 408 586 408 m 581 446 l 582 449 l 581 450 l 579 449 l 579 446 l 581 446 m 43 42 q 46 42 44 42 q 47 44 47 43 l 40 42 l 43 42 m 43 1 l 51 4 l 53 7 q 47 5 51 7 q 43 1 43 3 m 154 142 q 542 390 429 294 q 447 324 449 324 q 445 322 446 324 q 444 319 444 321 q 411 299 417 306 l 365 267 q 322 242 342 250 q 314 237 317 239 q 311 233 311 235 l 301 229 q 289 219 292 224 q 283 219 283 219 q 264 207 282 218 l 265 207 q 263 206 265 206 q 257 203 260 206 l 200 169 q 174 154 196 165 l 158 146 q 154 142 154 144 m 190 146 q 199 149 196 149 q 201 153 201 150 l 204 151 q 208 154 207 151 q 272 190 213 156 q 554 381 447 292 l 563 386 q 581 406 576 399 q 228 169 424 278 q 190 146 190 149 m 517 324 q 524 327 519 324 q 531 331 528 331 q 535 334 533 332 q 539 339 538 336 l 538 340 l 517 324 m 506 315 l 514 321 q 506 315 508 319 m 499 310 q 500 312 499 311 q 503 313 501 313 l 499 310 m 458 282 l 468 288 q 458 282 464 288 m 396 239 l 394 239 l 396 239 m 375 226 q 383 232 383 228 q 380 230 382 232 q 375 226 378 228 m 364 219 l 371 224 l 369 224 l 364 221 l 364 219 m 296 179 q 317 191 306 183 q 339 203 329 199 l 338 203 q 318 193 333 203 q 301 183 308 186 l 296 181 l 296 179 m 285 172 q 293 178 293 176 l 290 175 l 285 172 m 257 156 q 265 159 261 157 q 272 163 269 161 q 275 167 275 165 q 268 163 272 165 q 260 160 264 161 q 257 156 257 158 m 339 174 l 346 176 l 339 174 m 396 208 l 399 211 l 396 208 m 408 215 q 415 219 411 217 q 419 222 418 221 q 421 224 419 224 l 408 215 m 422 225 l 442 238 l 422 225 m 449 242 q 615 365 547 306 q 449 242 533 301 m 535 310 q 542 313 539 313 q 546 318 546 314 l 546 319 l 533 313 l 536 313 l 535 310 m 549 319 q 553 324 553 322 q 549 322 551 322 q 547 319 547 321 l 549 319 m 619 368 l 622 369 l 619 368 m 278 151 l 296 157 l 299 157 l 301 160 l 301 157 q 309 162 306 161 q 313 164 313 163 l 310 165 q 317 167 315 167 q 319 168 318 167 l 318 168 l 321 169 l 322 169 q 331 175 322 175 q 341 178 340 175 q 350 186 342 182 l 349 186 l 349 188 q 353 189 350 189 q 356 190 356 189 q 358 192 357 192 q 360 194 360 193 l 361 194 l 353 190 q 362 194 357 193 q 370 198 367 196 q 375 204 374 200 l 382 204 l 382 207 l 399 219 q 403 221 401 219 q 408 224 406 222 l 410 224 l 419 231 q 414 227 418 231 q 406 224 410 224 q 410 228 408 226 q 415 231 413 229 q 420 233 417 232 q 424 234 424 233 q 426 236 425 235 l 428 236 l 424 235 q 424 237 424 236 q 426 239 425 238 l 428 239 l 440 244 q 442 247 440 246 q 450 251 443 247 l 451 250 l 450 253 l 453 253 l 453 254 q 485 275 464 254 l 485 272 l 483 272 l 485 272 q 485 274 485 274 q 487 276 486 275 q 493 279 488 276 q 496 281 493 281 l 494 283 q 503 285 501 283 q 506 290 506 288 l 504 290 l 501 288 l 500 288 l 503 290 l 504 290 q 506 292 504 292 q 510 293 508 292 l 507 289 q 513 292 508 289 q 522 298 518 294 q 525 304 525 301 l 522 303 q 531 307 522 307 l 535 310 l 535 311 l 532 311 q 534 314 532 313 q 554 326 536 315 l 554 325 l 557 328 l 556 328 l 556 329 q 558 330 557 329 q 560 331 558 331 q 561 333 561 332 q 594 358 594 358 l 596 360 q 597 362 596 361 q 599 364 599 363 l 604 367 l 601 367 q 603 369 601 368 q 608 373 606 371 q 612 376 610 375 q 614 379 614 378 l 629 393 l 544 332 q 393 226 469 275 q 311 176 344 194 l 278 157 l 282 157 l 278 151 m 517 307 q 519 310 517 308 q 525 314 522 313 l 517 307 z "},"3":{"ha":785,"x_min":-111,"x_max":738,"o":"m 250 -79 q 78 -58 157 -79 l 79 -57 l 0 -31 l -17 -21 q -29 -14 -28 -15 q -43 -1 -31 -12 q -97 61 -78 26 q -111 113 -106 78 l -110 121 l -108 115 q -107 128 -107 115 q -104 142 -107 142 l -104 140 l -103 143 l -104 144 l -103 144 l -103 154 l -101 156 l -101 163 q -95 175 -99 163 q -87 190 -92 188 q -81 194 -83 193 q -76 197 -79 194 q -68 203 -71 203 q -65 201 -67 203 q -62 199 -64 200 l -60 201 l -60 200 l -58 200 l -58 201 l -57 200 q -54 197 -57 197 l -46 201 l -46 203 l -44 203 q -42 201 -42 203 q -40 197 -42 199 l -39 206 l -37 201 l -32 203 l -32 201 l -31 203 l -29 201 l -21 206 l -15 203 l -12 204 q -11 202 -11 203 q -10 201 -11 201 q -10 200 -10 201 l -8 200 q -7 197 -7 200 l -3 197 l -3 196 l 1 197 l 8 188 l 10 190 l 11 189 l 11 190 l 14 186 q 26 176 14 176 q 33 171 33 174 l 35 172 q 42 167 39 172 q 49 154 46 161 q 56 144 53 147 l 54 150 q 57 147 56 150 q 58 142 58 144 l 57 139 q 63 130 57 135 q 72 121 68 125 q 79 115 76 117 l 82 117 l 81 114 l 83 117 l 83 114 q 85 113 85 114 q 224 88 136 88 q 365 98 293 88 q 485 124 436 108 q 535 153 535 139 l 526 156 q 304 186 393 186 l 283 186 q 183 196 225 188 q 164 203 174 201 q 146 208 154 204 q 140 213 144 208 q 133 217 136 217 l 135 218 q 132 219 133 218 q 129 221 131 219 q 128 224 128 222 l 129 231 l 126 233 q 119 236 122 236 l 119 238 l 118 238 q 114 249 114 240 q 111 260 114 257 q 104 274 104 268 q 107 286 104 282 q 110 297 110 290 l 107 300 l 110 303 l 110 311 l 106 308 q 108 310 107 310 q 108 313 108 311 l 110 317 q 108 321 110 319 q 107 324 107 322 q 114 336 107 328 q 151 374 133 361 q 200 401 169 388 q 213 409 206 406 q 227 415 221 413 q 233 419 233 418 l 233 421 l 149 415 l 90 415 l 89 419 l 85 419 q 79 421 83 421 q 75 422 75 421 l 72 422 l 65 426 l 61 425 l 61 426 l 58 424 l 58 426 l 57 425 q 46 426 46 425 q 41 435 46 433 q 33 441 36 436 q 28 446 29 446 q 22 450 26 446 q 24 453 22 453 q 26 454 25 453 l 29 453 l 33 456 l 24 456 l 22 457 l 26 458 l 21 460 l 22 461 q 20 463 21 463 q 19 465 19 464 l 18 471 l 21 469 l 28 472 l 28 474 l 24 474 l 31 478 l 28 479 l 26 478 l 18 481 l 24 485 l 18 486 l 19 488 l 18 489 q 43 490 18 490 l 15 494 l 15 496 l 17 496 l 18 500 l 7 506 l 7 507 q 15 508 13 508 q 17 511 17 508 l 14 511 l 17 514 l 31 518 l 13 519 l 25 522 q 22 524 22 522 q 15 525 17 525 q 13 526 13 525 l 15 529 q 26 531 17 531 l 24 532 l 25 535 l 31 535 q 26 537 29 536 q 16 538 22 538 q 7 542 10 539 l 10 543 l 21 542 q 20 544 21 543 q 8 547 19 544 q 17 549 8 549 l 22 550 l 19 551 l 26 551 l 24 554 l 26 556 l 26 557 l 25 557 l 29 567 l 31 565 q 33 568 33 565 l 31 569 q 40 578 35 575 q 50 583 44 581 q 61 588 56 585 l 63 586 q 110 585 83 585 q 281 593 183 585 q 479 603 388 603 q 631 578 579 603 q 635 574 635 576 l 636 576 l 653 561 l 651 561 q 668 546 651 557 l 667 543 l 669 543 l 667 542 l 665 542 q 671 539 668 540 q 674 535 674 538 q 669 531 669 533 q 668 522 668 529 l 671 524 l 668 521 l 672 515 q 674 525 674 519 q 676 522 675 525 q 677 517 676 519 q 678 513 678 514 l 676 513 q 675 518 676 518 l 674 514 q 678 508 675 510 q 676 503 676 506 q 672 499 675 500 l 674 494 l 676 499 q 682 497 676 497 l 678 483 q 676 475 678 475 q 667 459 667 468 q 658 442 667 450 q 654 435 654 438 q 650 428 654 432 q 629 411 636 414 q 521 357 575 379 l 521 358 l 515 354 q 483 342 489 343 l 482 340 l 474 338 q 465 331 465 333 q 472 328 465 329 q 488 326 478 328 q 513 321 499 324 q 538 314 526 318 l 540 315 q 542 313 542 315 l 540 311 q 549 311 547 311 q 558 307 551 311 l 561 308 q 589 298 575 301 q 618 289 603 294 q 628 283 622 285 q 635 281 633 282 q 640 279 638 281 l 640 278 l 642 278 q 644 276 643 278 q 648 274 646 275 q 651 273 650 274 q 652 272 651 272 q 661 268 653 271 l 661 267 q 665 265 663 267 q 670 263 668 264 q 679 257 672 263 l 663 264 l 681 253 l 682 254 q 686 247 683 251 q 694 242 689 242 l 693 244 q 698 241 697 243 q 701 236 699 239 q 706 232 704 233 q 708 231 707 231 q 708 229 708 231 q 738 146 738 183 q 723 85 738 110 q 701 61 708 61 l 703 60 l 701 60 l 701 58 l 700 58 q 491 -43 629 -11 q 250 -79 353 -75 m 669 488 l 672 492 l 674 492 l 672 494 q 668 492 668 494 l 671 492 l 668 490 l 669 488 m 656 553 l 656 554 l 653 557 q 656 553 653 554 m 471 531 l 468 533 l 468 532 l 465 533 q 467 531 467 532 q 468 531 467 531 l 471 531 m 147 450 l 332 464 q 325 465 332 465 q 225 458 303 465 l 143 451 q 147 450 143 450 m 313 481 l 326 483 l 301 482 q 286 481 286 482 l 313 481 m 181 511 l 186 513 l 175 513 q 181 511 175 511 m 228 514 l 218 515 q 211 514 211 515 l 228 514 m 435 528 l 440 529 l 431 529 q 435 528 431 528 m 443 532 q 438 533 443 533 l 433 532 l 443 532 m 446 528 l 447 529 l 442 531 l 446 528 m 176 519 l 197 521 q 242 525 218 521 l 236 525 l 244 526 l 243 525 l 253 526 l 254 525 l 278 528 q 289 528 288 528 q 292 529 290 529 l 293 528 q 309 530 296 529 q 324 532 322 531 l 332 531 l 383 536 q 386 535 383 535 l 394 536 l 396 535 l 401 536 l 401 538 l 408 536 l 418 538 l 419 536 q 424 538 421 538 q 433 538 428 538 l 432 539 l 440 539 l 428 540 l 413 539 l 414 538 q 408 539 408 538 q 421 540 408 540 l 440 542 q 450 539 446 542 l 451 539 l 449 540 l 454 539 l 457 542 l 467 542 q 495 542 488 542 q 503 544 503 543 l 488 546 q 501 547 488 547 q 476 549 496 549 q 296 540 422 549 q 169 528 169 531 q 169 525 169 526 q 172 524 169 524 q 200 522 196 524 l 189 524 l 190 522 q 179 521 181 522 q 176 522 179 522 l 176 521 l 174 522 l 169 521 l 176 519 m 504 318 l 507 319 l 503 321 l 500 319 l 504 318 m 524 314 l 526 317 l 524 317 q 522 315 522 317 l 524 314 m 239 14 q 411 31 317 14 q 563 81 506 49 q 514 63 539 69 q 468 47 489 56 q 467 49 467 47 l 465 47 q 444 43 456 44 q 420 37 421 39 q 415 35 419 35 l 414 36 q 379 28 406 29 q 332 24 353 26 q 229 17 286 17 q 196 18 203 17 q 180 19 189 19 q 169 21 171 19 q 163 22 167 22 l 161 21 l 175 19 q 207 15 189 17 q 239 14 225 14 m 529 31 q 534 33 526 29 q 543 36 542 36 q 546 39 544 36 q 529 31 540 38 m 532 39 l 529 39 l 532 39 m 514 33 l 524 36 l 521 36 q 517 35 519 35 q 514 33 515 36 m 485 24 q 492 26 489 24 q 501 28 494 28 q 514 35 514 28 l 514 35 q 507 31 513 33 q 494 27 501 29 q 481 25 486 25 l 485 24 m 511 24 l 513 25 l 507 24 l 511 24 m 456 15 q 469 19 460 18 q 481 24 479 21 q 453 17 465 21 l 456 15 m 219 -8 q 217 -6 219 -7 l 215 -6 l 215 -7 l 210 -7 l 208 -6 l 208 -7 l 201 -6 l 204 -8 q 215 -7 214 -8 l 219 -8 m 151 -6 l 153 -4 q 147 -3 153 -3 l 146 -3 q 125 1 143 0 q 135 -3 125 0 q 147 -6 144 -6 l 149 -6 l 147 -4 l 151 -6 m 133 24 l 135 25 l 125 26 l 133 24 m 132 3 l 129 4 l 126 3 l 132 3 m 174 -8 q 166 -6 174 -7 q 156 -4 158 -4 l 153 -6 q 160 -8 153 -7 q 169 -8 167 -8 l 174 -8 m 429 53 l 489 69 q 490 72 489 72 q 492 72 490 72 l 493 69 l 499 74 l 500 72 q 506 74 503 74 q 508 76 508 74 q 503 75 503 76 l 501 76 l 501 74 q 500 75 500 75 l 497 75 l 432 57 q 427 54 432 54 q 422 53 422 54 l 429 53 m 525 100 l 538 106 l 529 103 l 529 104 l 526 103 l 528 103 l 525 100 m 522 99 q 524 100 522 100 l 522 100 l 522 99 m 413 71 q 431 74 421 71 q 450 76 442 76 l 450 78 l 464 81 l 464 82 q 468 83 464 83 l 469 83 l 468 82 l 492 89 l 472 83 q 489 89 478 86 q 522 101 507 93 q 501 96 519 101 q 419 74 461 82 l 410 71 l 413 71 m 381 46 l 400 47 l 417 51 l 381 46 m 233 31 q 217 33 233 32 l 168 36 q 194 33 175 33 q 226 31 213 31 l 233 31 m 118 -25 l 119 -24 l 99 -18 l 118 -25 m 125 -33 q 119 -32 121 -33 l 125 -33 m 128 -21 l 129 -19 l 111 -14 l 128 -21 m 149 -29 q 142 -26 149 -28 q 149 -29 142 -28 m 172 -42 l 160 -39 q 172 -42 165 -42 m 189 -43 l 190 -42 l 179 -42 l 189 -43 m 261 -29 q 257 -28 261 -28 l 253 -28 q 257 -29 253 -29 l 261 -29 m 372 -25 l 385 -24 q 383 -22 385 -22 q 372 -25 374 -22 m 17 486 l 14 489 l 15 489 q 17 488 17 489 l 17 486 m 233 531 q 229 532 229 531 l 239 532 l 233 531 m 272 528 l 267 529 l 274 529 l 272 528 m 300 532 q 311 535 301 535 q 329 535 321 535 q 350 536 338 536 l 354 536 q 347 534 354 535 q 338 533 340 533 l 338 533 q 333 535 336 535 q 331 533 331 535 l 300 532 m 376 536 l 375 536 q 372 538 372 536 l 365 536 q 358 536 360 536 q 356 538 356 536 l 400 539 l 375 538 l 376 536 m 406 543 l 401 544 l 410 544 l 406 543 m 294 532 l 286 532 l 290 533 l 294 532 z "},"4":{"ha":696,"x_min":-62,"x_max":739,"o":"m 388 -56 l 385 -50 l 379 -51 l 379 -47 l 376 -51 q 383 -36 376 -46 l 388 -25 l 381 -35 q 369 -51 372 -51 l 369 -49 q 371 -47 371 -49 q 369 -46 369 -47 l 378 -18 q 371 -32 375 -18 q 363 -46 364 -46 l 364 -43 q 360 -46 361 -44 q 358 -49 360 -47 l 357 -47 l 353 -49 l 349 -49 q 347 -47 347 -47 q 346 -46 346 -47 l 346 -35 l 343 -36 l 344 -32 q 335 -39 338 -39 l 335 -36 l 333 -36 l 335 -29 l 331 -33 q 331 -26 331 -26 q 332 -24 332 -25 q 335 -14 332 -22 l 333 -14 l 328 -24 q 326 -22 326 -24 l 328 -12 l 326 -11 l 322 -15 l 319 -1 l 321 6 l 315 -3 l 313 0 q 310 6 313 6 q 307 17 307 6 q 344 146 307 58 q 340 147 344 147 q 265 139 319 147 q 113 113 119 113 q 81 106 85 108 q 71 107 75 106 l 68 106 l 65 107 l 61 106 l 51 107 l 49 106 l 42 107 l 42 106 l 33 106 q 25 107 29 107 q 21 108 21 107 q 19 111 21 110 q 18 110 18 111 l 17 113 l 17 111 l 14 111 l 11 114 l 11 115 l 8 115 q 7 114 8 114 l 10 111 l 8 110 l 7 113 l 6 111 q 4 115 6 114 q 2 118 3 117 q 0 119 1 119 l -3 114 q -7 119 -3 117 l -18 126 q -24 131 -24 129 q -26 132 -25 132 q -26 133 -26 132 q -28 136 -26 133 l -25 136 q -23 138 -25 138 q -20 138 -21 138 q -19 143 -19 139 l -18 143 l -18 142 q -14 139 -15 142 q -8 136 -12 136 l -7 138 q -18 146 -12 140 l -19 146 q -22 149 -19 149 q -26 149 -25 149 q -28 153 -28 150 l -31 151 l -31 153 l -37 154 l -33 146 l -32 147 l -33 150 l -32 150 l -32 149 q -29 146 -32 146 q -26 143 -26 146 l -32 142 l -31 138 q -34 145 -33 140 q -40 150 -35 150 l -40 149 l -44 149 l -43 150 q -44 153 -43 153 l -44 156 q -47 160 -44 160 q -50 161 -49 160 l -50 165 l -50 167 q -53 173 -51 169 q -54 183 -54 176 q -56 192 -54 189 q -57 199 -57 194 l -56 204 q -55 208 -56 207 q -54 215 -54 208 l -56 221 l -58 219 l -58 217 l -61 217 l -61 219 l -62 221 l -61 221 l -60 226 l -61 228 q -60 229 -60 228 q -58 233 -60 231 q -56 242 -57 236 q -15 314 -47 272 q 86 432 35 381 l 86 433 q 94 440 90 440 q 99 447 94 443 l 103 450 l 117 465 q 121 468 119 465 l 122 471 l 122 469 l 128 476 q 138 490 136 489 q 147 497 140 490 l 154 503 l 156 507 l 158 507 l 158 508 q 189 542 172 525 q 235 594 221 576 q 363 710 293 675 q 374 713 365 713 l 379 714 l 382 713 l 390 714 q 394 713 393 714 q 394 710 394 713 l 399 713 l 399 710 l 401 711 q 403 713 403 713 q 406 714 404 714 l 406 713 l 413 713 l 411 707 q 418 708 415 707 l 417 706 l 418 706 l 417 701 l 422 706 l 422 703 l 424 703 q 420 695 421 696 q 419 692 419 694 l 428 696 l 431 694 l 435 699 l 435 693 q 433 690 433 693 l 443 696 l 446 693 l 446 690 l 449 690 l 449 689 l 451 692 l 451 690 q 454 689 451 689 l 453 675 l 456 676 q 457 676 457 676 q 458 674 457 675 q 458 672 458 674 l 457 669 l 464 674 l 465 672 l 464 667 q 467 664 467 665 q 468 662 467 663 q 469 656 469 661 l 468 646 l 472 629 l 467 611 q 439 565 465 592 l 354 474 q 188 292 188 299 l 190 292 q 464 339 431 339 q 497 394 467 339 q 542 469 517 429 q 617 572 600 568 q 635 579 628 575 q 646 583 643 583 l 650 582 l 664 583 q 674 579 669 583 l 675 578 l 678 578 q 679 575 679 578 l 681 575 q 683 576 682 575 q 685 578 683 576 l 686 576 l 679 563 q 696 572 686 572 l 697 572 l 699 567 q 701 569 700 568 q 704 569 701 569 q 711 565 711 569 q 715 563 714 564 q 715 558 715 561 l 714 556 q 715 554 714 554 l 724 553 l 724 550 l 726 550 l 726 547 l 728 549 l 729 547 l 726 542 q 734 532 732 542 q 737 513 736 522 q 739 499 738 503 l 738 478 q 736 474 736 475 q 735 474 736 474 q 733 471 733 474 q 639 304 679 364 q 617 267 617 272 q 616 258 617 261 q 613 254 615 256 l 610 254 q 613 253 610 253 l 610 250 q 607 246 607 247 l 610 244 q 601 233 606 238 q 594 226 596 228 q 590 222 592 224 q 589 219 589 221 l 590 215 q 578 207 578 211 l 507 81 q 491 53 496 63 q 483 40 486 44 q 476 26 479 35 q 451 -18 469 11 q 450 -21 451 -19 q 447 -24 449 -22 q 443 -26 446 -26 q 433 -37 440 -26 q 425 -47 426 -47 q 422 -48 424 -47 q 419 -50 421 -49 q 416 -51 417 -51 q 410 -51 415 -51 l 406 -53 l 404 -51 l 399 -50 q 392 -53 394 -50 q 388 -56 389 -56 m 211 181 l 217 183 l 214 183 q 207 181 207 182 l 211 181 m 197 193 q 201 194 199 194 q 203 196 203 194 l 196 194 l 197 193 m 167 172 l 169 174 l 174 174 l 190 178 l 163 172 l 167 172 m 104 176 l 110 178 q 122 179 121 178 l 135 179 l 138 182 l 143 181 q 157 185 149 181 l 164 185 l 165 186 l 169 186 l 169 188 q 179 191 175 189 q 194 193 183 193 l 192 193 q 193 195 192 194 q 196 196 194 196 q 199 197 197 196 l 200 197 q 118 181 149 190 l 115 179 l 107 179 q 104 176 104 178 m 122 279 q 140 297 124 279 l 149 308 q 138 296 147 308 l 122 279 m 156 211 l 186 217 l 182 218 l 169 215 q 156 211 156 213 m 125 221 l 156 224 q 174 228 156 225 q 197 235 193 232 l 179 232 l 179 233 l 181 233 l 181 235 l 165 232 q 132 225 146 231 l 131 225 l 132 224 q 128 222 128 224 l 125 221 m 232 408 q 247 424 236 411 q 270 449 258 436 q 288 469 282 463 q 258 437 283 464 q 232 408 232 410 m 86 272 l 100 285 l 100 283 l 94 274 l 169 360 q 222 414 172 360 q 233 424 231 424 q 236 428 235 425 l 286 481 q 294 493 294 490 q 296 492 296 493 l 297 493 l 296 494 q 283 486 289 494 q 268 471 276 478 l 275 479 l 264 469 q 256 460 258 461 q 250 454 254 458 l 267 468 l 253 453 q 250 451 250 453 q 247 449 250 450 q 244 446 244 447 l 246 446 q 240 443 246 443 l 242 440 q 236 436 240 439 q 232 432 232 433 q 231 431 232 431 q 228 428 229 431 q 215 415 226 425 q 204 404 204 406 l 206 404 l 201 400 l 200 401 q 197 395 200 397 q 190 388 194 393 q 183 381 185 382 q 176 374 181 379 q 161 358 167 361 q 158 354 161 356 q 151 347 156 353 q 144 339 147 340 q 140 336 140 338 l 140 333 l 139 335 l 131 325 q 108 301 110 301 l 115 311 q 99 294 106 300 q 82 272 93 289 l 101 293 q 108 300 106 300 q 106 297 108 299 q 101 292 103 294 q 98 289 100 290 q 96 286 96 288 l 97 286 l 94 285 l 86 272 m 68 268 q 82 283 71 268 q 185 399 114 329 q 236 453 215 429 q 90 299 161 378 l 88 296 l 86 296 l 86 294 l 75 281 q 74 279 74 281 l 74 278 q 72 277 72 278 q 69 275 72 276 q 67 271 67 274 l 68 268 m 75 271 l 136 342 q 103 307 132 340 q 74 272 74 274 l 75 271 m 39 269 l 43 271 q 44 278 44 272 q 49 285 44 285 l 46 279 l 46 276 l 47 281 l 49 281 q 97 335 72 306 q 141 385 121 364 q 182 428 161 407 q 276 533 238 483 l 288 546 q 268 528 274 532 q 247 504 263 524 l 247 506 q 235 492 246 506 q 223 477 225 479 q 219 474 221 475 q 217 471 217 472 l 217 472 l 214 467 q 124 375 193 449 q 40 275 40 288 q 43 272 40 272 l 39 269 m -24 229 l -22 231 l -24 233 l -25 231 l -24 229 m -14 250 l -11 256 l -8 258 l -3 271 q -10 261 -4 271 q -15 250 -15 251 l -14 250 m 1 278 q 13 290 7 282 q 24 300 19 297 l 22 300 q 67 354 22 304 l 110 403 q 115 407 114 403 q 119 413 115 411 q 125 418 122 414 q 129 422 128 422 q 154 449 140 436 q 175 472 175 467 l 181 475 q 190 486 190 483 l 186 483 q 224 524 224 521 l 221 522 q 224 524 222 524 q 233 535 226 525 l 225 525 q 239 540 231 535 l 244 546 q 240 543 242 546 q 244 547 242 547 q 247 550 246 547 q 250 553 247 553 q 261 568 254 561 l 265 574 q 185 488 236 540 q 1 278 33 331 m 17 136 l 17 139 q 15 140 17 140 q 13 139 13 140 l 17 136 m 17 264 q 19 269 19 265 q 157 425 81 349 q 251 528 210 478 l 251 529 q 215 490 239 521 q 212 485 213 486 q 208 482 211 485 q 204 479 206 479 l 203 479 q 156 428 203 476 q 38 296 56 325 q 26 281 36 296 q 15 264 15 267 l 17 264 m 121 146 l 144 149 q 218 164 183 156 l 215 165 q 174 158 196 163 q 137 151 153 154 q 121 146 121 147 m 507 342 l 514 350 q 534 384 525 371 q 547 407 543 397 q 526 374 544 404 q 507 342 507 344 m 531 343 q 547 369 532 344 q 561 394 561 393 q 531 343 533 351 m 564 397 q 575 414 567 400 q 569 406 574 414 q 564 397 564 399 m 585 324 l 590 331 l 589 332 l 585 324 m 581 322 q 597 349 583 324 q 628 397 611 374 q 614 378 625 397 l 608 369 q 581 322 581 328 z "},"5":{"ha":739,"x_min":-96,"x_max":769,"o":"m 292 21 l 313 25 l 313 24 l 292 21 m 68 -57 q -50 -31 -11 -57 l -49 -31 l -49 -28 q -50 -26 -50 -28 l -53 -26 l -57 -22 q -78 1 -67 -15 q -79 3 -79 1 l -81 3 l -81 6 l -82 6 l -85 8 q -91 14 -87 10 q -94 26 -94 18 l -93 31 l -92 33 l -94 51 l -93 63 l -96 71 l -94 72 l -94 79 l -93 79 l -93 83 l -92 85 l -90 83 l -90 86 q -92 88 -92 86 l -87 86 l -87 88 l -86 88 l -86 90 l -85 92 l -86 94 l -83 94 l -83 101 l -76 101 l -78 103 q -77 105 -78 104 q -75 107 -76 106 l -74 107 l -72 104 l -67 108 l -64 108 l -61 110 q -58 112 -60 111 q -49 114 -57 113 l -50 117 l -49 118 l -44 117 l -39 119 q -21 122 -26 122 q -15 124 -15 122 q -12 125 -15 125 q 6 124 6 125 q 9 122 7 122 q 13 120 11 121 q 19 119 15 119 q 99 114 53 114 q 181 117 144 114 l 201 117 l 200 118 l 203 119 q 222 121 213 119 q 238 122 232 122 l 236 124 l 242 122 l 240 125 q 272 131 254 125 l 276 131 l 276 129 l 307 136 q 377 153 336 142 q 457 183 418 165 q 463 184 461 183 q 466 185 465 185 q 468 188 467 186 l 471 188 l 471 189 l 479 193 l 478 196 l 481 193 l 481 196 l 482 194 l 478 189 q 487 192 482 189 q 492 197 492 194 l 492 199 l 489 199 q 483 201 483 199 q 481 206 482 204 q 478 207 481 207 l 478 208 q 475 209 476 208 q 474 211 474 210 l 472 211 q 282 257 389 243 q 181 275 226 265 q 115 303 136 285 l 119 304 l 121 307 l 119 307 l 119 310 l 117 310 l 117 311 q 115 317 117 314 q 111 319 113 319 q 108 322 110 319 q 103 326 106 324 q 99 329 100 329 l 99 328 q 94 332 97 328 q 89 344 89 335 l 89 351 l 83 354 l 85 350 l 83 350 l 81 344 q 79 351 79 344 q 76 364 79 357 l 79 369 l 78 369 q 75 374 78 372 l 76 379 l 74 392 q 72 393 72 392 l 72 394 l 69 394 q 70 399 69 397 q 73 402 71 400 q 75 407 75 404 l 72 407 q 79 431 79 425 q 80 438 79 436 q 83 444 81 440 q 92 454 86 447 q 96 458 94 456 l 93 458 l 93 460 l 90 457 l 90 458 l 92 458 q 90 460 92 460 q 81 461 82 460 q 39 475 53 467 l 36 476 l 36 481 l 32 482 l 35 483 l 33 486 l 28 486 q 29 488 29 486 l 31 488 l 31 489 l 29 490 q 26 492 28 490 q 21 495 24 493 q 18 500 18 497 l 21 503 l 21 504 q 17 505 19 504 q 14 510 14 506 l 15 511 l 14 513 q 11 513 13 513 q 8 515 10 514 q 7 517 7 515 l 10 518 l 7 518 l 7 519 q 14 525 7 522 l 17 528 l 10 528 l 10 531 q 8 532 8 531 l 11 539 l 7 539 l 7 542 l 6 542 l 4 544 q 8 556 7 556 q 8 557 8 556 q 6 558 6 557 l 4 558 l 6 561 l 3 564 l 6 568 l 4 572 l 7 576 l 6 578 q 14 588 11 579 q 21 600 17 596 l 31 606 l 29 606 q 35 608 31 607 q 46 610 40 610 q 56 613 51 611 q 63 615 61 614 q 65 617 64 615 l 67 618 q 75 617 69 617 q 178 628 99 617 q 632 665 347 653 q 682 663 675 665 q 686 661 683 661 q 693 660 689 661 q 706 658 704 660 l 703 657 q 696 651 696 654 q 710 650 697 650 q 713 647 713 649 q 716 646 714 646 q 722 645 718 646 q 730 642 726 644 q 736 639 733 640 q 746 633 746 636 l 742 631 l 743 631 q 748 628 744 629 q 752 626 751 628 q 753 623 753 624 q 757 622 754 622 q 763 618 760 621 l 760 615 l 763 613 q 761 611 763 611 l 757 611 l 756 610 l 768 603 l 763 601 l 765 597 q 753 593 765 593 l 751 592 l 753 592 q 757 590 754 590 q 765 588 760 589 q 769 582 769 586 l 768 579 l 768 574 l 767 569 l 765 569 l 765 565 q 760 556 763 558 q 754 550 758 553 l 753 550 l 753 549 q 732 535 750 535 l 731 532 l 735 526 l 735 525 l 733 525 q 726 524 728 525 q 713 518 724 524 l 711 515 l 710 515 l 708 515 q 703 513 706 514 q 698 511 700 511 q 694 510 696 511 q 692 508 693 508 q 450 490 511 503 q 408 485 425 486 l 407 483 l 406 485 l 406 483 q 392 481 394 483 l 392 482 l 389 482 l 389 481 l 388 483 l 385 481 l 385 482 l 382 479 l 382 481 l 379 481 l 374 478 l 372 481 l 371 478 l 371 479 l 368 478 l 368 479 l 367 478 l 367 479 l 365 479 l 365 476 l 364 479 l 363 479 l 363 478 l 364 478 l 363 476 l 360 476 l 360 478 l 350 475 l 349 476 l 347 475 l 347 476 l 344 475 l 344 476 l 343 474 l 342 476 l 338 476 l 339 474 l 336 475 l 335 472 l 338 469 l 335 468 l 336 468 q 317 447 336 467 l 296 429 l 431 401 q 638 299 603 358 q 643 294 640 296 q 647 291 646 293 q 652 287 649 289 q 657 279 656 285 q 662 273 658 279 q 669 260 665 267 q 672 247 672 253 l 674 247 q 677 238 674 246 q 681 226 681 231 q 682 218 682 221 l 679 211 q 681 208 681 211 q 682 204 681 204 l 682 203 q 681 189 681 197 l 679 186 l 679 172 q 678 171 678 172 q 672 149 672 151 q 667 142 672 147 q 663 133 663 138 l 656 122 q 651 119 651 122 q 649 116 650 117 q 648 115 649 115 q 647 114 647 114 q 640 111 646 114 l 642 110 q 634 103 638 106 q 630 99 631 100 q 629 97 629 99 l 626 96 l 625 97 l 626 94 l 624 94 q 622 90 622 93 q 617 85 622 88 l 617 86 l 608 78 q 594 68 599 68 q 531 33 590 64 q 375 -19 471 3 q 68 -57 213 -57 m 86 438 q 88 440 88 438 q 90 443 89 443 l 89 444 q 86 441 86 442 q 85 438 86 440 l 86 438 m 92 446 l 93 449 l 92 446 m 107 325 q 104 332 107 328 q 98 339 101 336 q 93 342 94 342 q 107 325 99 331 m 188 82 q 199 83 192 83 q 206 84 206 83 q 213 85 207 85 l 218 85 l 215 86 l 181 82 l 188 82 m 203 65 q 439 117 332 75 q 239 72 292 76 q 203 65 215 69 m 256 79 l 253 79 l 256 79 m 263 79 l 271 81 q 263 79 265 81 m 246 15 q 254 17 254 15 l 240 15 l 246 15 m 188 64 l 190 65 l 183 65 q 188 64 183 64 m 199 65 l 199 67 l 196 67 l 196 65 l 199 65 m 303 17 q 318 19 313 17 l 303 17 m 322 21 l 336 25 l 322 21 m 372 15 q 375 18 375 17 l 374 18 q 367 15 367 17 l 372 15 m 363 24 l 379 28 l 363 24 m 386 29 q 423 39 399 32 q 447 47 447 46 q 439 45 442 46 q 411 38 436 44 q 386 29 386 31 m 435 33 l 433 36 q 429 35 429 36 q 431 33 429 33 l 431 35 l 435 33 m 451 39 l 456 42 l 453 42 l 453 40 l 451 42 l 447 40 l 451 39 m 471 61 l 468 63 q 465 61 465 63 l 471 61 m 482 68 l 492 69 l 483 69 l 482 68 m 200 7 q 453 57 328 19 l 454 58 l 443 56 q 450 59 443 57 q 460 61 457 61 l 457 60 l 463 60 q 460 63 463 61 q 494 74 478 69 q 518 83 511 78 q 564 106 547 94 q 581 119 581 118 q 583 122 582 119 q 586 125 585 125 l 585 121 l 589 125 q 588 126 588 125 q 583 128 588 128 l 586 131 l 586 128 l 588 131 l 588 126 l 594 138 l 593 140 q 590 136 590 140 l 588 139 q 583 132 588 133 q 579 130 579 131 q 578 129 579 129 l 575 132 q 568 118 575 125 l 567 121 l 568 125 q 564 124 564 125 q 561 121 564 122 l 564 121 q 560 118 563 119 q 547 110 557 117 q 533 103 538 104 q 514 93 514 97 l 517 92 q 503 89 513 92 l 493 85 l 494 83 l 503 86 q 411 56 499 83 q 325 35 371 43 l 250 21 l 268 22 q 264 21 268 21 l 271 19 q 260 19 263 19 q 254 17 258 18 l 282 19 q 241 13 282 18 q 200 7 200 8 m 296 38 q 300 39 299 39 q 301 42 301 39 l 300 39 l 299 42 q 293 39 299 40 l 288 38 l 296 38 m 301 39 l 304 40 l 310 40 q 313 42 313 40 l 308 42 q 301 39 301 42 m 314 42 l 326 44 l 324 46 q 318 44 322 44 q 314 42 314 44 m 350 46 q 371 50 356 46 l 386 54 l 349 46 l 350 46 m 400 57 l 403 58 l 401 60 q 398 57 399 57 q 394 57 397 57 l 400 57 m 403 58 l 410 60 q 521 104 472 78 q 516 102 518 104 q 510 100 514 100 q 429 68 465 81 q 403 58 403 60 m 496 94 l 497 96 q 501 99 500 96 q 498 98 500 99 q 496 94 496 97 m 257 54 q 506 128 396 71 q 496 124 496 125 l 499 122 q 494 122 496 122 q 489 118 493 121 l 489 119 q 491 119 490 119 q 492 122 492 119 q 489 120 490 121 q 487 119 488 119 q 486 117 486 119 l 485 118 q 465 110 479 115 q 449 106 451 106 q 444 104 447 106 q 440 101 440 103 q 442 100 440 100 q 435 99 436 100 q 432 99 435 99 l 429 99 l 431 97 l 428 97 l 429 96 q 424 94 425 96 l 401 88 l 331 69 l 328 71 l 326 68 l 324 69 q 320 69 322 69 q 318 67 318 68 l 315 68 l 257 54 m 221 85 q 240 86 222 85 q 261 89 257 88 l 264 90 l 264 89 l 268 89 l 269 92 l 271 90 q 367 110 296 92 q 501 160 438 128 q 502 162 501 161 q 504 163 503 163 q 507 165 506 163 l 499 163 q 222 88 397 110 l 221 86 l 218 86 l 221 85 m 174 396 l 176 397 q 176 399 176 399 q 174 400 175 400 l 172 400 l 172 399 l 174 396 m 160 335 l 161 336 l 157 339 l 156 338 l 160 335 m 151 356 l 153 357 q 149 360 151 358 q 143 363 146 363 l 146 360 q 151 356 149 356 m 151 351 q 148 354 151 353 q 143 356 144 356 l 142 356 l 150 351 l 151 351 m 147 339 q 144 340 146 340 q 143 342 143 340 l 147 339 m 118 440 q 121 444 119 440 l 119 446 l 117 442 l 118 440 m 114 433 l 115 435 l 115 438 l 114 436 l 114 433 m 121 311 q 119 315 121 314 q 117 318 117 315 l 115 317 l 118 314 l 118 311 l 121 311 m 119 410 q 122 413 121 410 l 122 418 q 120 416 121 418 q 119 411 119 414 l 119 410 m 122 446 q 126 448 125 446 q 127 452 126 450 q 128 456 128 454 l 129 453 l 131 458 q 128 456 129 457 q 124 452 126 454 q 121 446 121 450 l 122 446 m 146 322 l 131 331 l 131 329 l 146 322 m 175 311 l 164 317 q 158 319 164 318 q 149 324 151 321 l 147 322 q 151 319 147 321 q 157 317 154 317 l 158 318 q 164 314 158 317 q 175 311 169 311 m 176 390 q 172 393 176 393 l 171 393 l 176 390 m 182 397 l 181 399 l 176 399 l 182 397 m 207 306 l 194 310 l 194 308 l 192 310 q 207 306 192 306 m 290 293 l 260 297 q 226 303 238 303 l 224 303 q 251 297 231 300 q 288 293 272 293 l 290 293 m 307 289 q 310 290 310 289 l 290 292 l 296 290 q 307 289 301 289 z "},"6":{"ha":694,"x_min":-71,"x_max":643,"o":"m 493 407 l 454 408 q 482 410 456 410 l 493 407 m 163 -51 q 128 -48 144 -51 q 96 -44 111 -44 l 114 -51 l 103 -50 q 28 -29 40 -42 q 17 -22 21 -22 l 14 -24 q 7 -19 13 -24 q -10 -7 1 -14 l -10 -8 q -16 -5 -11 -8 q -22 1 -21 -1 q -25 3 -22 3 q -28 8 -28 4 l -25 7 q -32 22 -25 11 q -40 33 -39 33 l -35 21 l -37 19 l -36 22 l -37 21 q -44 27 -39 21 q -54 42 -49 33 q -60 57 -60 51 q -60 65 -60 63 l -61 67 q -71 119 -71 90 q -47 219 -71 169 l -49 221 q -47 222 -47 221 q -35 251 -43 235 q -12 292 -15 292 q 29 349 10 328 q 49 374 39 358 l 53 375 q 63 388 57 378 q 74 400 63 392 q 85 411 85 408 q 308 613 207 540 l 317 619 l 307 615 q 313 621 307 617 q 325 628 318 625 q 338 635 332 632 l 331 631 q 324 625 324 626 q 341 635 331 628 q 356 643 351 643 l 371 651 l 371 653 l 372 651 q 381 655 375 653 q 401 662 386 657 q 435 667 415 667 q 482 651 471 667 q 489 649 488 651 q 493 646 490 647 q 503 642 503 646 q 504 639 503 639 q 506 634 506 639 q 510 629 506 629 l 508 628 q 513 624 508 626 q 518 617 518 622 q 519 608 518 613 q 521 589 521 604 q 511 561 521 569 q 515 560 511 560 q 515 557 515 557 q 513 554 514 557 l 514 551 q 512 548 513 551 q 508 544 511 544 q 510 543 508 543 q 503 538 506 539 q 493 531 500 538 l 497 526 q 489 524 492 526 l 486 521 l 486 522 q 483 519 485 522 q 479 515 481 515 l 479 517 q 471 510 476 517 q 463 504 465 504 q 458 501 460 504 q 454 497 456 497 q 397 468 438 497 q 289 376 343 428 q 285 373 288 375 q 283 367 283 371 q 410 404 346 393 l 413 406 l 428 406 l 431 407 q 446 408 444 407 l 446 407 l 449 407 l 449 408 q 489 406 482 408 q 494 406 493 406 q 497 407 496 407 q 499 408 499 407 l 500 410 q 501 407 500 407 l 504 410 l 506 407 l 508 408 l 515 406 l 519 407 l 532 401 l 532 400 l 535 400 l 536 399 l 539 400 l 539 397 l 540 400 q 547 396 540 396 q 557 392 553 396 l 561 392 l 563 389 q 570 388 569 389 q 574 385 571 386 q 578 382 576 383 q 585 380 581 381 q 594 374 589 379 q 603 368 599 368 l 607 369 q 617 358 611 369 l 622 346 q 625 343 624 343 q 626 340 626 343 l 625 340 l 626 339 l 628 339 q 630 331 628 338 q 636 325 632 325 q 638 315 636 317 q 640 311 639 314 q 639 308 639 311 l 640 306 l 640 310 q 643 289 643 301 q 632 226 643 254 l 633 224 q 632 222 632 224 q 631 219 632 221 q 628 208 631 218 l 635 221 q 638 224 636 221 q 642 228 639 228 q 597 160 642 219 q 462 40 553 100 q 235 -42 371 -21 q 232 -43 232 -42 l 228 -43 l 228 -44 l 221 -43 l 224 -46 l 217 -44 l 218 -46 q 163 -51 188 -51 m 181 15 q 376 74 296 35 q 498 147 456 113 q 540 185 540 182 q 535 181 535 185 q 531 179 531 181 q 529 178 531 178 l 529 176 q 527 175 526 176 q 526 172 528 174 l 526 175 q 525 173 525 174 q 524 172 525 172 q 522 172 522 172 q 522 169 522 171 l 510 160 l 511 160 q 508 156 510 158 q 500 154 507 154 q 479 139 490 144 q 478 138 479 138 q 475 137 476 138 q 449 119 474 136 q 438 111 438 113 q 426 106 438 110 l 422 103 l 424 103 l 419 100 l 419 103 l 417 100 l 418 99 l 415 99 l 414 100 q 378 78 400 86 l 369 75 q 349 67 358 69 q 344 64 346 65 q 338 63 343 63 q 324 54 324 61 l 322 56 l 318 53 q 315 53 315 53 q 314 54 315 54 q 313 53 313 54 l 314 53 q 306 49 314 51 q 296 47 299 47 l 297 46 q 292 44 292 46 q 281 41 283 43 q 276 39 279 39 l 275 40 q 257 35 275 38 q 239 31 239 32 q 239 28 239 29 l 235 29 q 224 26 229 29 l 226 26 q 182 18 199 19 l 167 15 l 181 15 m 164 0 l 167 1 q 372 57 274 13 q 508 138 469 101 l 508 140 l 507 138 q 490 125 506 136 q 339 46 453 96 q 276 25 289 32 l 276 24 l 274 24 q 267 23 272 24 q 263 21 263 22 l 219 13 q 147 0 172 3 l 143 1 l 142 0 l 164 0 m 390 61 l 390 63 l 388 61 l 390 61 m 374 53 q 380 56 378 54 q 385 58 382 58 l 385 60 l 374 53 m 540 369 l 542 371 q 529 375 539 374 q 508 378 519 376 q 489 379 496 379 l 483 378 l 483 376 l 481 378 q 475 376 475 378 l 488 376 q 510 374 500 375 q 540 369 521 374 m 163 53 l 169 54 q 261 75 222 60 q 278 78 267 75 q 301 85 289 82 q 317 92 313 89 l 317 93 l 318 92 l 319 93 q 311 88 318 90 q 295 82 304 85 q 282 76 286 79 q 319 89 301 82 q 331 94 326 92 q 340 97 336 97 q 344 99 344 97 q 346 100 344 100 q 349 101 347 100 q 351 102 351 101 q 352 103 351 103 q 353 104 353 103 l 407 131 q 460 164 460 158 l 496 196 l 494 197 q 492 194 493 196 q 488 192 490 192 q 487 194 488 194 q 486 196 486 194 l 485 194 q 482 192 482 194 l 485 194 l 486 192 q 481 190 482 192 q 471 183 481 189 q 454 173 456 174 q 450 165 453 172 q 445 163 449 164 q 438 157 442 161 q 447 167 439 161 q 439 162 444 167 q 431 157 433 157 q 136 58 293 71 l 161 58 q 151 56 161 57 q 140 54 140 56 l 121 53 l 163 53 m 379 131 l 400 142 q 421 152 411 147 q 435 161 431 157 l 454 176 l 450 174 q 431 160 444 169 q 382 133 417 151 l 379 131 m 378 138 l 400 149 q 378 138 396 149 m 317 117 q 365 138 336 124 q 418 166 393 151 q 453 190 443 181 q 328 122 394 151 q 320 120 325 121 q 315 117 315 119 l 317 117 m 135 113 l 139 114 q 263 138 182 114 q 426 219 343 163 q 435 227 433 226 q 436 228 436 228 q 438 229 436 229 l 438 228 q 440 233 440 232 q 444 236 440 235 l 443 238 q 419 232 438 238 q 400 225 400 226 q 288 174 346 211 q 263 160 268 160 l 261 161 q 240 160 244 161 l 239 161 q 236 163 239 163 l 222 158 q 221 163 221 161 q 217 165 221 165 q 214 167 214 165 l 219 176 l 210 169 l 208 171 l 218 183 l 214 182 l 218 186 l 217 188 q 208 181 211 182 l 208 183 q 202 179 204 179 q 194 176 200 179 l 194 181 q 193 182 193 181 l 188 178 q 186 188 186 188 q 179 189 186 189 q 178 190 178 189 l 179 194 l 178 194 l 182 203 l 169 196 q 188 219 169 201 q 179 215 185 219 q 171 210 174 211 l 183 228 l 179 225 q 167 219 175 222 l 168 224 l 164 225 q 167 231 167 229 q 168 236 167 232 q 166 238 168 238 q 163 238 164 238 q 160 239 161 239 q 141 219 157 239 q 111 175 125 200 q 97 131 97 150 q 110 117 97 118 q 135 113 122 115 m 90 213 q 172 313 126 263 l 181 321 l 176 318 q 111 242 132 269 l 90 213 m 328 485 q 328 487 328 486 q 331 488 329 488 l 329 489 l 326 486 l 328 485 m 72 214 l 89 242 l 85 238 q 87 243 85 240 q 90 247 89 246 q 122 289 103 267 q 185 354 165 339 l 161 328 q 96 250 96 257 q 304 464 150 325 q 310 467 310 464 q 319 475 310 469 q 328 483 328 481 q 321 481 324 483 q 340 499 321 483 l 346 504 q 334 496 344 504 q 322 488 324 488 l 321 489 l 321 486 l 310 478 l 308 481 q 303 476 304 478 q 299 475 303 475 l 268 446 q 89 258 157 343 q 88 255 88 257 q 85 251 88 253 l 85 250 q 78 242 79 250 q 75 229 78 235 q 71 219 72 224 l 82 240 l 86 246 q 94 260 89 253 q 104 274 100 268 l 86 244 q 72 214 78 229 m 63 274 q 67 278 67 276 q 69 283 68 281 q 65 279 67 282 q 61 275 64 276 l 63 274 m 43 189 q 44 191 44 190 q 46 192 44 192 q 48 196 47 193 q 51 201 49 199 l 47 200 q 59 218 56 210 q 67 232 63 226 l 65 229 q 69 232 68 229 q 71 235 69 235 l 69 238 l 72 236 q 114 292 72 243 l 154 340 q 57 219 97 286 q 43 189 43 196 m 283 469 l 303 488 l 283 469 m 311 481 l 311 482 l 314 485 l 313 485 q 311 483 311 485 l 310 482 q 311 481 310 481 m 335 547 q 345 556 340 553 q 356 564 350 558 l 340 553 q 335 547 335 549 m -19 206 q 1 244 -10 218 l 50 313 q 54 318 51 313 q 64 329 58 329 l 64 328 l 71 340 l 72 339 l 74 342 l 75 342 l 81 349 l 78 347 l 82 351 l 82 350 l 94 364 l 92 363 l 113 385 q 119 392 119 385 l 138 410 l 140 411 l 140 413 q 144 415 143 413 q 149 421 146 418 l 147 421 q 157 429 157 424 l 171 443 l 175 446 q 236 503 204 475 l 269 532 q 272 536 269 536 q 274 535 274 536 q 276 539 276 539 l 278 539 q 296 557 286 549 l 317 574 l 315 574 q 126 405 229 510 q -19 206 22 300 m 44 303 l 47 307 l 43 303 l 44 303 m 44 288 q 59 303 50 293 q 75 323 68 314 q 82 335 82 332 l 133 390 q 131 389 132 390 q 128 386 129 388 q 67 317 89 344 q 44 288 44 290 m 11 236 q 25 257 14 239 q 38 276 36 275 q 11 236 18 253 m 4 211 q 172 419 69 322 q 322 554 274 515 q 339 568 339 567 q 285 526 331 564 q 181 431 240 488 q 71 315 121 374 q 4 211 21 256 m 4 175 l 10 188 l 8 188 l 18 206 l 17 208 q 19 212 18 208 q 21 215 19 215 l 24 214 q 22 215 24 215 q 26 226 22 218 q 36 240 31 233 q 44 250 42 247 l 43 250 q 56 268 43 251 l 68 285 l 67 285 l 81 301 q 79 298 79 300 q 77 296 79 296 q 75 293 75 296 l 76 293 q 74 291 75 292 q 74 290 74 290 q 73 289 74 289 q 71 288 72 289 q 69 282 69 286 q 192 414 103 331 q 219 442 208 431 l 232 451 q 242 464 242 461 l 208 432 q 204 428 206 432 q 200 424 203 425 q 194 421 197 422 q 264 485 194 425 l 297 515 q 292 513 294 514 q 248 476 289 511 q 154 387 207 440 q 58 276 101 333 q 4 175 15 219 m 117 -19 l 169 -18 q 398 47 306 0 q 538 140 490 94 q 586 190 586 185 l 585 192 q 578 182 578 188 l 576 182 q 576 180 576 181 q 540 144 575 179 q 431 68 504 110 q 246 -1 357 26 q 202 -10 228 -7 q 153 -16 176 -14 q 117 -19 129 -18 m 294 89 q 388 129 335 103 l 389 129 q 349 108 389 126 q 294 89 308 90 z "},"7":{"ha":676,"x_min":-7,"x_max":808,"o":"m 132 304 l 129 306 l 131 308 l 131 306 q 133 308 132 307 q 136 308 133 308 l 139 307 l 132 304 m 39 211 l 39 214 l 43 218 l 42 215 l 44 214 l 39 211 m 93 -122 l 92 -121 l 88 -122 l 75 -117 l 69 -118 q 68 -117 68 -118 q 68 -115 68 -117 l 65 -117 l 65 -114 l 64 -114 l 65 -111 l 63 -114 q 62 -112 63 -112 q 60 -111 61 -111 l 61 -107 l 60 -110 q 51 -114 57 -112 q 53 -110 53 -111 q 60 -103 54 -108 q 54 -104 54 -103 q 50 -108 54 -106 q 52 -101 50 -106 q 54 -93 54 -96 q 51 -97 53 -94 q 46 -101 49 -99 q 42 -104 43 -104 l 38 -103 q 35 -104 36 -103 q 31 -106 33 -106 q 25 -87 25 -106 l 19 -92 q 18 -87 18 -92 l 14 -89 q 15 -81 14 -82 q 19 -74 17 -79 q 14 -78 18 -74 q 7 -82 10 -82 l 11 -72 q 10 -71 11 -71 l 7 -69 l 13 -56 l 10 -57 q 8 -56 10 -56 l 10 -50 q 3 -54 7 -54 l 3 -53 l 1 -54 l 0 -53 l 1 -47 l 0 -49 l -3 -46 l -4 -47 q -2 -44 -3 -44 q -1 -42 -1 -44 q -6 -36 -3 -37 l -7 -36 l -6 -28 l -7 -25 l -4 -19 q 38 58 14 25 q 108 138 61 92 q 97 138 99 138 q 94 140 96 139 l 96 138 q 94 136 96 136 q 93 138 93 136 q 92 139 93 139 q 90 142 90 139 q 89 144 90 144 l 88 146 q 69 156 75 146 l 72 154 q 72 156 72 156 q 69 157 71 157 q 58 165 63 163 q 53 172 53 167 l 51 171 l 53 176 q 51 181 53 178 q 44 185 50 185 q 40 189 39 185 q 39 195 40 193 q 36 197 38 197 q 35 200 35 197 q 38 205 35 204 q 43 207 40 206 l 46 206 q 56 214 47 211 l 57 215 q 55 218 57 218 q 51 219 53 218 q 47 219 49 219 l 50 224 q 49 227 50 226 q 46 228 47 228 l 44 226 q 42 231 43 226 q 39 235 42 235 l 42 236 q 39 242 42 239 q 36 246 36 244 q 42 260 38 254 q 47 274 47 265 l 49 275 l 46 276 q 47 281 46 279 q 51 285 49 282 q 65 294 58 293 q 75 299 72 294 l 76 297 q 87 301 81 301 q 98 303 93 301 q 108 307 103 306 q 110 306 111 307 q 111 306 110 306 q 116 306 115 306 q 121 308 117 307 l 128 307 l 126 304 l 128 303 l 129 304 l 132 303 q 146 301 135 301 q 192 296 153 296 q 279 300 246 296 q 360 375 281 300 l 442 451 l 438 451 l 439 454 l 435 456 l 417 453 q 147 432 210 432 q 86 439 114 432 q 51 446 72 443 q 47 448 49 446 q 44 451 46 450 q 42 453 43 451 q 42 456 42 454 l 43 458 q 34 465 40 463 q 28 470 28 467 q 17 481 28 474 l 19 483 q 17 485 19 485 q 14 489 14 486 l 15 490 q 10 492 13 492 q 7 496 7 493 q 11 501 7 500 q 19 506 15 503 l 8 506 q 12 510 8 508 q 15 514 15 513 q 12 515 15 515 q 8 517 8 515 q 7 524 7 518 q 6 532 7 529 q 4 536 4 535 l 7 542 l 3 547 q 8 557 3 551 l 7 557 l 10 563 q 33 582 18 578 q 38 585 38 583 q 40 588 39 588 q 76 596 65 593 q 100 600 86 599 q 410 624 228 601 q 599 639 526 639 q 657 631 639 639 q 660 632 657 632 l 661 632 l 658 631 q 674 625 668 626 q 682 621 679 624 l 683 621 l 690 607 q 688 596 688 604 l 689 597 l 690 594 q 693 600 693 597 q 694 599 694 600 q 696 597 694 597 q 697 596 697 597 q 692 593 693 596 q 688 590 692 590 q 690 586 688 589 q 696 583 693 583 l 694 586 l 696 588 l 694 588 l 697 589 l 699 586 l 704 586 q 708 578 708 586 q 714 569 708 569 l 713 571 l 713 574 q 721 561 717 564 l 719 560 l 722 551 q 719 555 721 551 q 717 561 718 558 l 715 560 l 715 557 l 718 558 l 714 554 l 715 554 l 714 551 q 719 542 719 551 q 717 540 718 540 q 715 532 717 539 q 714 529 715 531 q 711 504 713 528 q 715 506 714 504 q 717 510 715 508 q 715 507 717 508 q 713 505 714 506 q 711 501 713 504 l 713 501 q 712 497 713 497 q 710 493 711 496 l 710 496 q 706 488 706 496 q 702 485 703 486 q 701 481 701 485 l 704 481 q 703 479 704 479 q 701 477 701 479 q 697 472 701 475 q 695 468 696 468 q 693 466 694 468 q 688 461 692 464 l 688 463 l 682 457 q 600 371 653 419 l 560 332 l 563 331 q 638 335 588 335 q 742 326 688 335 q 743 325 743 326 l 744 326 q 744 324 744 325 q 742 324 743 324 q 746 322 742 322 q 750 319 750 321 l 767 314 q 785 301 785 306 q 783 299 785 299 q 782 297 782 299 q 786 294 782 296 q 791 291 790 293 q 794 288 792 289 q 797 285 797 288 q 799 282 797 282 q 801 276 800 282 q 799 275 801 275 q 796 274 797 275 q 798 273 797 274 q 799 271 799 272 q 790 269 790 271 q 797 266 794 267 q 800 264 799 265 q 802 261 801 263 q 804 260 803 260 l 801 258 q 806 256 806 258 q 801 252 804 254 q 789 250 797 250 q 797 247 789 247 q 800 244 797 244 q 808 240 808 242 q 807 239 808 239 q 804 238 806 239 q 807 231 807 235 q 803 226 807 226 q 800 224 800 225 q 799 219 800 222 l 800 218 q 798 215 800 217 q 794 212 796 214 q 789 208 792 210 l 790 207 l 789 201 q 790 200 789 200 q 779 195 786 197 q 772 190 772 193 q 774 190 774 190 q 776 188 775 189 q 774 185 776 186 q 770 183 772 185 q 766 181 768 182 q 763 180 764 181 q 760 179 763 179 l 761 176 q 758 174 758 176 q 752 170 758 171 q 742 167 746 169 l 743 165 q 401 147 703 165 q 382 145 382 146 q 379 144 382 144 q 359 141 364 143 q 346 131 354 139 q 281 64 333 119 q 139 -89 161 -60 q 115 -111 119 -111 q 108 -114 111 -111 l 106 -117 l 93 -122 m 688 600 l 688 606 l 686 604 q 683 608 686 607 q 679 608 681 608 q 678 606 678 608 q 679 601 678 603 l 682 604 l 681 600 l 682 601 l 688 600 m 53 226 l 54 228 l 51 229 l 50 228 l 53 226 m 57 218 l 63 219 q 61 221 63 221 q 57 218 57 221 m 263 232 q 271 240 267 235 q 275 246 275 244 q 269 239 275 244 q 263 232 263 233 m 293 236 q 297 238 294 236 q 301 244 299 240 q 307 250 304 247 l 300 243 q 293 236 293 238 m 325 246 l 326 247 q 328 249 326 249 l 325 246 m 597 432 l 613 446 l 597 432 m 593 458 l 596 460 q 597 465 597 463 l 596 461 q 593 458 594 458 m 576 444 q 581 447 578 444 q 585 451 585 450 q 583 449 583 450 q 581 449 582 449 l 579 449 q 576 444 579 446 m 572 447 q 576 449 574 447 q 581 453 579 451 l 572 447 m 563 431 l 567 435 l 564 435 q 561 432 561 433 l 563 431 m 519 396 l 546 419 q 565 439 565 438 q 541 417 563 436 q 519 396 519 397 m 532 401 q 536 403 535 403 q 538 407 538 404 l 535 406 q 532 401 532 404 m 399 315 l 457 368 l 433 349 l 449 363 q 472 382 461 375 l 474 383 l 472 383 l 478 388 q 501 410 501 408 l 500 410 l 503 411 q 531 438 524 428 l 528 436 q 540 447 532 440 q 554 458 547 453 q 561 467 561 464 q 478 392 557 467 q 399 315 399 317 m 490 369 q 506 381 494 369 q 518 394 518 392 l 490 369 m 514 386 l 518 389 l 517 390 l 514 386 m 436 318 l 469 349 q 490 368 486 363 l 485 365 l 436 319 l 436 318 m 454 329 l 463 338 q 454 329 457 335 m 371 311 q 538 465 379 311 q 516 447 536 465 q 492 425 496 429 q 488 421 489 421 q 486 419 486 421 q 471 404 478 413 l 469 406 q 471 407 471 406 l 463 400 l 469 404 l 461 396 q 442 378 453 388 q 422 360 432 368 l 425 364 l 418 356 q 371 311 371 314 m 369 250 q 373 251 371 250 q 375 254 375 253 l 372 254 q 369 251 372 251 l 369 250 m 375 247 q 379 251 379 247 l 378 249 q 375 247 376 247 m 340 208 l 347 211 l 346 213 q 340 208 343 213 m 347 208 q 349 209 349 208 q 351 210 350 210 q 351 213 351 211 l 351 214 q 347 208 347 211 m 342 308 q 358 322 351 315 q 367 329 364 329 l 367 328 l 382 344 q 399 358 393 356 l 450 407 q 506 457 501 454 l 506 461 q 460 422 500 461 q 397 363 453 414 q 342 308 342 311 m 357 243 q 368 253 361 243 l 372 257 q 364 251 371 257 q 357 243 357 244 m 367 235 l 382 238 q 379 239 382 239 q 368 238 369 239 q 367 235 367 236 m 393 249 l 407 261 q 399 256 406 261 q 393 249 393 250 m 397 181 q 431 184 417 183 q 464 188 444 185 l 465 188 q 465 190 465 189 q 461 192 465 192 q 425 189 443 192 q 417 188 421 188 q 410 187 413 188 q 406 185 407 186 q 404 186 406 186 q 402 184 404 185 q 397 181 400 183 m 440 221 l 475 224 l 474 226 q 450 224 474 225 q 440 221 442 224 m 456 321 l 464 328 l 461 322 q 479 331 479 322 q 485 333 482 331 q 496 346 496 342 q 507 353 500 346 l 514 358 l 508 358 q 513 360 511 360 q 515 364 515 360 l 517 363 q 524 369 518 365 q 529 376 529 374 l 525 374 q 531 378 528 378 q 534 382 533 379 q 539 385 535 385 l 536 383 q 542 388 542 383 l 540 389 l 543 388 q 543 390 543 390 l 544 392 l 576 419 l 575 421 q 579 422 576 421 q 582 425 582 424 l 581 426 l 583 426 l 585 425 l 585 426 l 593 435 q 621 464 606 446 l 617 463 l 614 465 q 602 457 611 465 q 588 443 593 449 q 578 435 583 438 l 576 436 l 572 429 l 572 432 q 570 430 571 431 q 568 426 569 429 q 564 422 567 422 l 564 424 q 506 371 556 418 q 456 321 456 324 m 703 593 q 704 596 703 594 q 706 600 706 597 l 707 597 l 703 593 m 704 589 l 701 592 l 703 593 l 704 589 m 536 444 q 546 453 542 451 l 536 444 m 519 428 l 525 433 l 519 428 m 601 447 l 604 450 l 601 447 m 589 438 l 594 443 q 589 438 594 440 m 607 451 q 608 453 607 453 q 611 457 608 454 q 607 451 610 453 m 483 335 q 485 337 483 336 q 488 339 486 338 l 483 335 z "},"8":{"ha":653,"x_min":-32,"x_max":665,"o":"m 124 133 q 126 138 124 136 q 131 142 129 139 q 135 147 133 146 l 135 144 l 133 144 q 129 137 132 140 q 124 133 126 133 m 185 -74 q 163 -72 171 -74 q 128 -71 144 -72 q 102 -66 111 -69 q 83 -57 93 -62 q 63 -50 72 -51 l 63 -51 l 57 -50 l 51 -47 l 50 -49 l 50 -46 l 47 -49 l 49 -49 l 49 -51 q 40 -46 44 -50 l 36 -46 q 35 -43 35 -44 q 34 -42 35 -42 q 32 -41 33 -42 q 29 -40 31 -40 q 28 -36 28 -39 l 32 -37 q 28 -33 29 -35 q 24 -31 26 -32 q 21 -31 22 -31 l 19 -31 l 8 -19 l 7 -21 l 10 -26 l 13 -29 q 1 -15 7 -26 l 1 -14 q 1 -12 1 -12 q -1 -11 0 -12 l -3 -11 l -4 -8 q -6 -5 -6 -7 q -7 -1 -7 -3 l -7 0 l -3 -1 l -6 -3 q -3 -4 -4 -3 q -1 -8 -3 -6 q 3 -11 1 -11 q 1 -10 3 -10 l 1 -7 l 0 -6 l 1 -4 l 0 -4 l 0 -3 q -1 3 0 -1 q -7 7 -1 7 l -4 3 l -7 1 l -7 4 l -12 6 l -11 3 l -12 3 l -14 6 l -15 6 l -18 11 l -12 15 l -11 26 l -12 25 l -12 28 l -15 28 l -14 31 l -17 31 l -15 32 l -17 33 l -19 33 l -17 35 l -18 36 l -21 46 q -22 49 -22 47 q -24 50 -22 50 l -24 43 q -25 41 -25 42 q -28 39 -25 40 l -29 36 l -32 50 l -31 74 l -28 79 q -29 83 -28 83 l -31 83 l -31 85 q -24 110 -31 96 q -14 133 -18 124 l -7 150 q 5 170 -7 153 q 51 220 17 188 q 151 303 85 253 l 157 307 q 167 315 167 313 q 133 332 163 319 q 38 382 88 353 q 34 383 36 383 q 31 385 32 383 l 40 383 l 43 385 l 40 385 l 40 386 q 30 390 35 386 q 22 399 25 394 q 15 406 18 403 l 18 406 l 8 419 q 5 428 6 425 q 2 432 4 431 q -1 435 0 433 q -6 443 -1 436 q -5 446 -6 446 q -1 447 -4 446 q 1 449 1 447 l 1 450 q 0 451 0 450 q -1 453 0 451 l 11 447 q 3 453 7 450 q 0 457 0 456 q 11 454 6 457 l 6 458 l 15 454 l 1 467 l 8 464 l 4 467 l 1 471 l 4 469 q 3 474 4 474 l 3 475 l 1 475 l -1 478 l 0 479 l 3 479 q 7 476 4 478 q 13 475 10 475 l -1 488 l 3 488 l 1 490 l -1 492 l -1 493 l 3 493 l 1 496 l 4 499 l 3 500 l 3 504 l 7 504 l 8 507 l 11 507 l 10 508 l 13 508 l 13 514 l 19 514 l 26 510 l 24 513 q 19 517 21 515 l 18 517 q 25 515 21 517 q 31 513 29 513 l 32 514 l 28 519 l 33 519 l 35 521 l 31 525 q 57 519 49 525 l 51 526 q 53 531 51 531 q 76 528 65 531 l 86 526 l 82 531 l 83 533 l 90 532 l 92 533 q 99 532 96 533 q 154 510 111 528 l 169 506 q 171 518 171 506 q 167 520 169 518 q 164 524 164 522 q 158 532 158 524 q 167 554 158 546 l 161 558 q 163 561 161 561 l 163 567 q 161 568 161 567 l 157 568 l 157 569 q 163 585 163 575 q 174 604 164 594 l 171 604 q 176 611 171 607 q 197 626 192 626 q 417 664 269 664 q 606 629 563 664 l 607 626 l 604 628 q 610 622 604 626 q 625 615 615 618 l 625 617 q 632 614 629 617 q 636 608 635 611 q 639 603 638 604 l 633 606 l 631 603 l 631 601 q 632 603 632 601 q 635 599 633 600 q 639 596 638 597 q 640 592 640 594 l 642 592 l 643 586 l 644 588 l 647 588 l 649 565 l 650 565 l 650 561 l 649 561 l 650 556 l 651 557 l 650 558 l 653 560 l 656 554 l 654 551 l 656 551 l 656 549 l 660 554 l 660 551 l 661 550 l 661 551 q 663 550 663 551 q 665 549 664 549 q 663 544 665 546 l 665 535 l 665 515 q 664 507 664 510 q 663 504 664 504 l 664 503 q 662 501 663 503 q 661 499 661 500 q 660 497 661 499 q 658 496 660 496 l 658 499 l 657 499 l 657 494 l 656 492 l 654 499 l 653 486 l 654 486 l 654 482 l 653 479 l 650 474 l 651 474 l 649 471 q 640 461 644 467 q 633 450 636 456 q 599 414 622 433 q 556 378 576 394 q 522 351 535 363 q 508 336 508 340 q 528 317 518 329 q 550 292 538 304 l 551 293 l 549 294 l 549 296 q 567 274 551 296 q 583 244 574 264 l 583 243 l 582 243 q 583 236 583 242 q 586 228 583 231 l 588 231 q 585 241 588 235 q 583 250 583 247 l 586 244 q 592 226 589 232 l 594 225 q 598 221 597 222 q 599 217 599 219 q 601 190 599 199 l 601 193 l 603 190 q 601 189 603 189 l 604 188 l 600 186 l 603 185 q 601 184 601 185 q 600 181 600 183 q 601 178 601 179 q 603 178 601 178 l 604 175 l 604 172 q 603 165 604 167 q 601 162 601 164 q 600 154 600 160 q 601 150 600 150 l 606 151 q 603 139 606 149 q 597 119 600 129 q 589 101 593 108 q 582 93 585 93 l 582 94 q 581 90 581 94 l 579 90 q 578 88 579 89 q 577 87 578 88 q 574 86 576 86 l 574 85 l 571 82 l 571 79 l 572 81 q 575 85 572 82 q 579 88 578 88 l 581 86 l 579 86 l 579 85 q 577 82 578 85 q 568 69 576 79 q 549 50 560 60 q 519 31 539 40 l 511 24 l 525 31 l 518 26 q 485 5 486 6 q 483 3 485 4 q 481 3 482 3 q 408 -31 469 -6 q 400 -34 404 -31 q 390 -37 396 -37 q 185 -74 275 -74 m 411 394 q 463 427 415 394 q 522 474 510 460 l 521 475 q 514 469 519 475 q 507 463 508 463 l 510 467 q 500 458 507 465 q 469 439 481 454 q 465 435 465 435 q 459 433 464 435 q 454 428 454 432 q 451 427 453 428 q 449 426 450 426 q 447 424 449 425 q 439 419 446 424 q 414 401 424 411 q 410 396 414 399 l 411 397 l 414 397 l 411 394 m 438 385 q 476 410 443 388 q 510 435 510 433 q 469 408 499 428 q 438 385 440 388 m 481 290 q 472 298 476 294 q 463 304 467 301 q 457 307 458 307 q 454 306 454 307 q 468 297 454 304 l 469 297 q 481 290 476 290 m 500 244 l 497 251 l 499 253 q 501 249 499 249 l 500 256 q 493 260 496 256 q 488 268 490 265 q 481 274 485 271 q 472 281 472 281 q 460 291 471 282 q 444 300 449 300 l 444 297 l 443 297 q 445 294 443 296 q 450 292 447 292 l 447 296 l 453 292 q 483 267 483 271 l 486 267 q 490 265 489 267 q 492 261 490 263 q 494 256 494 260 l 489 263 q 493 253 489 258 q 500 244 497 249 m 497 275 q 494 280 496 279 q 490 282 493 281 l 490 281 q 497 275 494 275 m 181 -24 q 394 18 318 -14 q 481 63 471 50 l 478 63 q 469 56 471 56 q 458 51 467 56 l 460 51 q 456 48 457 49 q 446 43 454 47 q 444 42 446 42 l 442 43 q 411 29 431 33 q 407 28 407 29 l 408 26 l 404 26 l 404 25 l 403 26 q 269 -8 386 13 q 196 -19 249 -12 q 176 -21 176 -19 l 153 -21 q 181 -24 153 -22 m 129 133 l 146 149 l 146 150 l 129 133 m 128 113 l 211 183 q 170 153 189 168 q 140 126 151 138 q 128 113 128 114 m 168 93 q 295 110 228 93 q 417 157 363 126 q 426 174 426 165 q 392 215 426 194 q 347 235 357 235 l 325 219 l 218 142 l 178 107 q 167 94 167 97 q 168 93 167 93 m 364 233 q 361 236 364 235 l 357 238 l 364 233 m 442 250 l 442 251 q 432 260 442 254 q 420 268 422 265 q 407 274 418 271 l 406 274 l 442 250 m 433 267 l 432 268 q 429 271 431 271 q 433 267 429 269 m 467 243 l 467 244 l 464 247 q 436 267 440 267 q 444 258 439 264 q 457 248 450 253 q 467 243 464 243 m 168 -10 q 474 72 347 -6 l 471 74 l 464 69 q 465 72 464 71 q 467 74 467 72 l 463 72 q 460 68 460 71 q 453 63 456 67 q 439 54 450 60 q 429 50 435 53 q 419 47 424 47 l 418 47 q 416 44 417 47 q 372 27 415 42 q 315 13 329 13 l 313 11 l 314 11 q 299 7 314 10 q 275 4 283 4 l 276 3 l 264 0 l 261 1 l 239 -3 l 231 -1 l 219 -6 l 215 -4 q 190 -7 208 -7 q 168 -10 171 -7 m 167 29 q 433 94 311 31 q 443 100 438 94 q 431 97 438 100 q 422 91 425 93 q 418 88 419 89 l 419 90 l 417 88 q 410 85 413 85 l 410 86 l 401 83 l 403 86 l 397 83 l 400 82 l 399 82 q 390 76 392 78 q 388 75 389 75 q 388 74 388 75 q 385 74 388 74 l 386 75 l 385 75 l 383 74 q 379 72 381 74 q 376 69 378 71 l 378 72 q 366 69 374 72 q 353 63 358 65 q 347 60 349 61 l 350 63 l 349 63 q 335 58 340 60 q 322 54 331 56 q 299 49 313 53 q 283 46 286 46 l 282 44 l 279 44 q 264 42 274 44 q 247 40 254 40 l 303 53 q 369 72 361 65 q 158 36 265 36 l 154 38 l 151 36 q 167 35 158 35 l 197 35 l 149 32 l 167 29 m 303 71 q 404 106 367 85 q 363 90 388 99 q 321 76 338 82 l 303 71 m 458 239 q 450 247 454 243 q 444 250 446 250 l 443 250 q 451 243 443 247 l 458 239 m 444 254 l 440 258 l 444 254 m 197 22 q 322 42 257 26 q 435 86 386 58 l 413 76 q 333 49 365 56 q 331 47 333 47 q 317 44 328 47 q 300 40 307 42 q 268 33 268 35 l 268 32 l 264 33 q 260 32 264 32 q 257 31 257 32 l 254 32 l 250 31 l 247 31 l 249 29 q 181 24 228 24 l 169 25 l 163 24 l 163 25 l 239 32 l 160 26 l 156 25 l 150 28 l 150 25 l 133 26 l 133 25 l 132 26 l 131 25 q 169 22 131 22 l 197 22 m 483 226 q 475 238 483 231 q 482 226 475 233 l 483 226 m 394 403 q 444 435 399 403 q 489 468 489 467 l 394 403 m 376 413 q 396 423 390 418 q 405 430 401 428 q 415 437 408 432 q 432 449 422 442 q 444 456 442 456 l 444 457 q 448 460 446 457 q 454 466 450 463 q 464 469 458 469 l 464 471 q 485 486 478 479 q 489 489 489 486 q 486 490 489 490 q 471 481 483 490 l 436 457 q 375 414 400 433 l 376 413 m 336 433 q 346 436 342 433 q 373 455 356 443 q 407 478 390 467 q 424 494 424 490 l 413 494 q 313 488 342 494 q 276 476 285 481 q 264 469 268 471 q 258 468 260 468 q 271 460 258 465 q 296 449 283 456 q 336 433 324 433 m 93 121 q 104 131 96 122 q 207 221 114 146 l 163 188 q 99 128 114 149 q 95 126 97 128 q 93 122 93 124 l 93 121 m 68 139 l 72 142 l 74 140 q 75 142 75 140 l 74 143 q 76 149 74 146 q 82 151 79 151 l 81 150 q 86 156 82 150 q 101 169 97 169 q 99 167 100 168 q 97 164 97 167 q 135 195 117 178 q 178 229 154 213 q 211 256 193 243 q 247 282 229 268 l 247 283 l 244 282 l 246 285 q 151 218 208 265 q 68 139 94 171 m 81 -8 q 80 -7 81 -7 q 78 -7 79 -7 l 81 -8 m 72 68 l 75 69 l 72 71 l 72 68 m 72 8 l 72 10 q 67 14 72 13 q 64 18 67 17 q 60 21 61 19 l 60 19 l 58 22 q 60 24 58 24 l 56 24 l 57 25 l 54 25 q 53 26 53 25 l 53 28 q 51 25 51 28 q 64 14 53 18 q 67 10 64 13 q 72 8 69 8 m 64 53 q 67 57 67 53 l 64 58 l 63 54 l 64 53 m 71 135 l 74 140 l 72 140 l 71 139 q 69 136 69 138 l 71 135 m 76 165 q 144 224 106 194 q 206 272 182 254 q 231 292 231 290 q 138 225 203 278 q 74 165 74 172 l 76 165 m 47 164 l 68 183 l 68 182 l 71 186 q 118 225 99 207 l 149 251 l 149 250 q 153 252 150 251 q 156 256 156 253 l 156 257 l 175 271 q 183 276 182 274 q 188 281 185 279 q 201 290 199 288 q 208 300 203 293 q 136 247 200 299 q 67 190 72 196 q 56 174 63 183 l 47 164 m 101 -35 l 106 -33 l 99 -29 l 100 -32 q 84 -26 92 -29 q 68 -19 76 -24 q 49 -10 60 -15 l 50 -12 q 47 -10 49 -12 q 42 -7 46 -7 q 49 -16 42 -11 q 67 -25 57 -21 q 81 -29 76 -29 l 83 -28 q 97 -33 83 -31 l 101 -35 m 107 114 q 113 117 108 114 q 117 124 117 121 l 133 140 q 138 145 136 140 q 142 150 139 150 l 139 146 q 257 239 239 226 q 290 264 290 263 l 289 264 l 289 265 q 286 267 288 267 q 277 266 278 267 q 275 262 276 265 q 267 258 274 258 l 256 253 q 242 239 246 246 l 242 242 l 240 239 q 233 234 233 239 q 225 229 232 229 q 224 228 225 228 l 224 225 l 222 226 q 215 222 218 226 l 211 218 l 211 215 l 208 215 l 201 213 q 194 204 194 208 l 193 206 q 192 203 193 204 q 190 203 192 203 q 189 201 189 203 q 183 197 189 199 q 178 190 178 196 l 176 192 q 174 190 176 190 q 172 188 172 189 q 156 175 168 188 l 138 158 l 138 157 l 140 158 l 111 128 l 115 133 l 107 126 l 107 129 q 102 126 103 129 q 101 122 101 124 l 103 122 q 102 119 103 119 q 100 117 101 118 q 107 120 106 117 q 110 125 108 124 l 108 125 l 121 135 q 116 128 118 131 q 113 124 114 125 q 109 122 111 124 q 107 114 107 119 m 169 -42 q 529 76 411 -32 l 529 78 l 467 33 q 297 -24 381 -8 q 167 -39 213 -39 q 146 -38 153 -39 q 135 -37 139 -37 q 124 -36 131 -36 l 124 -37 q 169 -42 143 -42 m 528 250 l 517 264 q 522 256 517 261 q 528 250 526 250 m 533 229 q 531 233 533 232 q 529 236 529 235 l 531 236 q 529 240 531 238 q 526 242 528 242 l 526 239 q 529 233 526 238 q 533 229 532 229 m 533 199 l 529 214 l 528 213 l 533 199 m 561 196 l 563 199 l 561 199 l 561 197 l 560 197 q 561 196 560 196 m 571 163 l 572 165 l 571 171 q 569 168 569 171 l 571 163 m 564 175 q 565 176 565 175 q 565 178 565 176 l 564 183 l 564 175 m 564 211 q 563 220 564 215 q 559 228 561 225 q 556 231 557 231 l 561 215 q 563 214 563 215 q 564 211 564 213 m 558 275 l 550 290 l 558 275 m 553 233 q 549 244 551 243 q 544 250 547 246 l 543 250 l 553 233 m 535 260 l 536 261 l 531 268 q 510 290 525 278 q 497 302 506 296 q 481 313 489 308 q 472 318 474 318 q 489 306 482 308 q 511 285 500 299 l 515 279 q 526 269 524 269 q 531 265 528 269 q 535 260 533 260 m 456 375 q 510 413 463 379 q 558 447 557 446 q 565 451 560 449 q 569 458 569 454 q 562 451 567 456 q 551 442 557 447 q 539 435 544 438 l 544 439 q 556 449 549 443 q 569 460 563 454 q 577 467 575 465 q 581 471 579 469 q 578 467 581 469 q 576 464 576 465 q 583 468 582 467 q 586 472 583 469 l 582 472 l 582 478 l 578 471 l 575 474 q 574 469 575 472 q 569 465 572 465 q 571 467 569 467 q 572 469 572 468 q 564 460 564 464 l 563 460 l 563 461 q 563 463 563 463 q 561 464 563 464 q 557 458 558 458 q 553 457 556 458 q 537 445 544 450 q 522 433 529 440 l 519 432 q 515 429 517 429 l 517 432 l 513 429 q 508 424 508 426 l 510 424 q 483 406 497 415 q 458 390 468 397 q 449 379 449 383 q 449 376 449 376 q 451 376 450 376 q 456 375 453 376 z "},"9":{"ha":607,"x_min":-17,"x_max":632,"o":"m 471 382 l 472 385 q 475 386 474 386 l 471 382 m 458 363 q 463 369 461 365 q 468 375 465 374 l 458 363 m 418 310 q 419 314 418 314 q 422 315 421 314 l 418 310 m 108 -122 q 104 -120 106 -121 q 101 -119 103 -119 q 92 -118 100 -118 l 83 -118 q 79 -118 81 -118 q 75 -116 78 -118 q 67 -112 72 -114 l 65 -112 l 65 -110 l 63 -108 q 61 -106 63 -106 l 61 -100 l 58 -103 l 56 -97 l 53 -96 l 53 -94 q 51 -93 53 -93 l 49 -93 q 38 -87 39 -90 q 36 -83 38 -85 q 38 -82 38 -82 q 39 -81 39 -82 l 39 -79 q 38 -75 39 -76 q 36 -74 38 -74 l 32 -75 q 31 -74 31 -75 l 33 -67 l 28 -68 q 28 -66 28 -67 q 31 -65 29 -65 l 31 -67 l 32 -67 l 31 -64 l 24 -67 l 22 -64 q 30 -56 22 -60 q 39 -49 38 -51 q 43 -45 40 -47 q 49 -41 46 -43 q 58 -35 53 -39 l 25 -51 q 27 -48 25 -50 q 32 -43 29 -46 q 38 -37 35 -40 l 39 -36 l 35 -37 l 35 -36 l 32 -36 q 28 -39 31 -37 q 24 -40 26 -40 q 25 -33 24 -35 l 25 -28 l 24 -25 l 26 -21 l 22 -21 l 21 -19 l 24 -17 l 22 -6 q 28 15 22 7 q 44 35 33 24 l 46 36 q 63 44 56 42 q 72 50 69 47 l 99 69 q 200 144 115 81 q 222 167 222 163 l 206 168 l 150 167 q 24 211 64 171 q -17 308 -17 251 q 59 483 -17 392 q 268 622 135 575 q 276 625 275 625 q 276 628 276 625 l 278 625 l 304 633 q 364 647 329 640 q 426 654 399 654 q 546 625 489 654 l 546 622 q 547 624 547 622 l 549 624 l 549 619 q 563 610 550 619 q 580 597 576 600 q 588 589 583 593 l 594 581 q 603 572 600 581 q 611 556 606 563 q 623 524 621 528 q 625 518 625 521 l 622 519 l 624 519 l 621 522 q 629 490 621 506 l 629 486 l 632 486 l 629 483 l 632 481 l 632 474 l 631 472 l 632 472 l 629 464 q 626 425 626 444 q 621 400 626 413 q 620 397 621 399 q 619 394 619 396 q 617 392 618 393 q 616 389 617 392 q 611 382 615 386 q 609 379 610 381 q 608 375 608 378 q 606 369 607 372 q 599 356 606 358 q 596 351 599 351 l 597 350 l 594 349 l 594 346 l 593 346 l 594 344 l 592 344 l 592 343 l 590 339 l 589 339 l 590 338 q 588 336 588 338 l 588 331 l 586 332 q 564 292 578 315 q 396 96 519 211 q 228 -51 306 11 q 140 -112 150 -112 q 108 -122 121 -122 m 53 192 q 47 198 51 194 q 38 201 42 201 l 40 200 q 53 192 50 192 m 375 258 l 378 260 q 392 276 390 275 q 395 280 393 276 q 399 283 397 283 l 399 285 l 400 285 q 410 294 406 288 q 418 306 414 301 l 419 308 l 419 307 l 422 310 l 421 310 q 424 315 422 314 q 427 317 426 315 q 431 321 428 318 l 428 319 q 429 322 428 322 q 432 324 431 322 l 431 324 l 440 335 q 449 346 449 346 q 466 372 450 346 q 482 399 482 397 q 476 393 479 393 l 476 392 q 442 344 476 390 q 399 286 407 297 q 375 258 375 261 m 471 349 l 472 353 l 474 353 l 474 354 q 469 349 471 354 l 471 349 m 451 321 l 456 326 l 456 328 q 451 324 453 326 q 450 321 450 322 l 451 321 m 438 303 q 443 308 439 304 q 447 315 447 313 l 438 306 l 438 303 m 432 296 l 435 299 l 435 301 l 432 300 l 433 300 l 432 296 m 349 206 q 363 218 350 206 q 398 255 390 246 q 406 265 406 264 l 414 275 l 413 275 l 414 278 q 412 274 413 276 q 409 270 411 272 q 404 267 407 268 q 354 211 383 242 l 349 206 m 243 544 l 282 563 q 285 564 283 564 q 288 565 288 564 l 286 565 q 277 563 282 565 q 269 561 272 561 l 269 560 l 247 549 l 247 547 q 245 547 246 547 q 243 544 244 547 m 150 488 l 157 492 q 161 494 158 494 l 158 494 q 160 497 158 496 q 164 498 163 497 q 169 501 165 499 q 175 503 174 503 q 182 508 176 504 q 197 517 188 511 q 219 531 206 522 l 221 531 l 221 533 l 224 532 l 224 533 l 240 543 l 239 546 l 240 546 q 242 547 242 546 l 240 547 q 238 546 239 546 q 236 544 236 546 l 238 544 l 226 539 l 224 538 l 224 536 l 221 536 l 204 528 q 196 525 201 528 q 184 518 190 522 q 175 511 178 514 l 172 511 q 166 506 172 508 q 151 496 160 503 l 150 493 l 156 496 l 153 493 l 154 493 l 153 493 q 150 491 151 492 q 149 489 149 490 l 150 488 m 201 479 l 210 483 q 214 488 210 486 q 219 490 218 489 l 215 489 q 201 479 201 481 m 367 308 l 371 311 l 371 314 q 376 321 376 314 q 417 369 389 329 l 444 410 q 447 415 444 413 l 449 415 l 447 411 l 449 411 q 463 449 457 419 l 460 449 l 460 451 l 463 450 l 461 457 l 463 457 l 463 454 q 467 461 465 454 q 463 475 467 469 q 461 478 461 475 q 438 483 461 482 q 347 467 406 483 q 231 413 289 451 q 161 347 168 360 q 157 342 158 342 q 155 341 156 342 q 149 335 154 340 l 151 333 l 151 332 l 153 332 l 153 329 l 151 329 l 153 326 q 172 325 161 325 q 246 333 206 325 q 279 338 271 338 l 286 336 l 304 339 l 301 336 l 306 332 l 313 332 l 313 331 q 323 328 318 329 q 331 328 328 328 q 333 326 333 328 l 331 324 q 333 322 331 322 q 340 321 336 321 q 344 320 343 321 q 346 318 346 319 l 347 318 l 347 313 l 353 313 l 354 311 l 353 308 l 367 308 m 233 99 q 343 199 289 138 l 342 199 q 338 197 339 199 q 329 188 336 196 q 325 183 326 185 q 319 180 324 182 q 315 174 315 178 l 317 174 l 306 164 q 282 144 289 151 q 274 136 275 138 q 272 135 274 135 l 272 133 l 267 128 q 247 114 254 114 l 239 106 l 236 103 q 233 99 233 100 m 218 108 q 265 149 232 119 q 299 181 299 179 q 265 153 292 179 q 249 139 254 142 q 230 124 244 136 q 215 108 215 111 l 218 108 m 219 69 l 222 71 q 224 74 224 72 l 219 69 m 228 76 q 388 218 304 133 q 517 393 471 303 q 519 401 519 399 q 515 393 518 401 q 511 385 514 392 q 506 378 508 378 l 499 365 l 481 340 q 274 117 439 263 l 228 76 m 476 289 q 481 294 481 292 q 476 292 479 294 l 475 289 l 476 289 m 288 92 q 310 111 290 92 q 322 122 321 122 l 321 121 q 288 92 304 108 m 279 85 q 283 87 281 85 q 285 90 285 89 l 286 93 q 278 88 279 90 q 279 86 278 86 l 279 85 m 303 71 q 318 83 313 78 q 327 91 324 88 q 333 97 331 94 q 317 83 332 97 l 303 71 m 375 124 l 379 128 l 374 125 l 375 124 m 379 129 q 388 136 381 129 l 388 138 l 379 129 m 411 160 q 413 162 413 161 q 414 164 414 163 l 411 160 m 349 114 l 354 117 q 427 190 385 144 q 492 264 469 235 l 476 247 q 353 118 435 197 l 349 114 m 408 179 l 428 199 q 422 194 425 197 q 415 187 419 192 q 408 179 411 182 m 442 215 q 474 251 444 215 q 465 242 472 251 q 456 231 457 233 q 452 227 454 229 q 446 221 450 225 q 442 215 442 217 m 499 274 q 510 289 510 285 l 504 283 q 499 274 499 276 m 518 303 q 529 313 526 308 q 534 322 532 317 q 542 335 536 328 q 532 322 539 335 l 518 303 m 238 33 l 285 71 l 275 61 q 306 86 276 61 q 336 113 336 111 l 338 113 q 357 132 339 115 q 367 143 367 142 q 369 144 367 144 l 371 143 l 372 146 l 371 144 q 396 171 371 147 q 442 222 401 175 q 485 269 483 268 q 490 275 489 275 q 490 272 490 272 q 488 272 489 272 q 482 263 488 271 l 475 254 q 509 297 490 271 q 542 344 528 322 q 556 371 556 367 q 552 366 554 371 q 540 347 550 361 l 550 365 q 568 401 564 390 l 565 399 q 567 403 565 401 q 571 408 568 404 q 579 442 579 425 q 582 464 582 447 q 579 475 582 475 l 581 471 l 579 471 q 578 460 579 460 l 576 458 l 578 456 l 575 457 q 572 453 574 457 q 569 444 571 450 q 568 435 568 439 l 569 431 l 563 417 q 565 419 564 417 q 567 421 565 421 q 557 401 563 408 q 550 385 551 394 l 549 383 l 549 386 l 546 382 l 547 379 l 544 376 l 544 378 q 540 372 543 378 q 508 318 538 365 q 478 276 496 299 q 428 219 431 219 q 425 217 426 218 l 426 217 q 424 215 426 215 q 422 211 422 215 l 389 178 q 307 101 344 132 q 265 63 285 82 l 278 72 l 238 33 m 583 453 l 586 458 q 585 464 586 464 l 585 461 q 583 454 583 460 l 583 453 m 401 179 q 433 213 432 213 l 401 179 m 438 218 q 442 224 442 222 l 442 224 q 438 218 442 222 m 503 293 q 512 303 508 299 q 519 315 515 308 q 513 303 519 313 q 503 293 506 293 m 490 276 q 497 285 490 278 l 503 290 q 490 276 494 276 m 535 340 l 535 344 l 538 346 l 535 340 m 340 119 l 343 122 l 340 119 m 361 139 l 367 144 l 361 139 z "}," ":{"ha":490,"x_min":0,"x_max":0,"o":""},"":{"ha":490,"x_min":0,"x_max":0,"o":""},"":{"ha":467,"x_min":-19,"x_max":443,"o":"m 54 247 q 13 256 28 247 q -1 267 -1 265 q -3 268 -1 268 q -6 269 -6 268 l -4 271 q -11 285 -10 271 q -16 289 -14 288 q -18 299 -18 290 q -17 300 -17 299 q -17 304 -17 301 l -18 306 l -18 310 l -17 310 q -19 311 -18 311 q -19 313 -19 311 l -18 313 q -15 335 -18 328 q 6 351 -11 343 l -4 347 q 14 354 1 351 q 29 360 26 357 l 29 358 l 53 360 q 56 359 56 360 q 61 357 57 358 q 83 353 74 353 q 108 354 94 353 q 129 356 122 356 l 135 357 l 233 531 l 229 528 l 226 529 q 224 526 226 528 q 218 524 221 525 q 210 522 215 522 q 206 519 206 521 q 202 518 206 518 q 198 517 199 518 q 196 515 197 517 l 196 517 q 194 515 194 515 q 160 513 194 514 l 163 514 q 140 522 146 514 l 142 524 q 122 539 126 536 q 118 546 118 542 l 119 549 l 118 551 l 119 554 l 118 557 q 115 564 117 560 q 113 572 113 568 q 121 589 113 585 q 149 604 135 604 l 149 603 q 156 606 153 603 q 299 681 171 606 q 328 699 328 697 q 332 701 329 700 q 336 701 335 701 l 336 703 q 338 705 336 704 q 341 706 340 706 q 344 708 342 707 q 350 710 347 710 l 349 711 l 350 711 l 351 713 q 356 714 353 714 q 358 716 358 714 q 361 718 358 718 q 364 721 364 718 q 372 723 368 721 q 382 726 376 725 l 383 725 q 386 726 385 725 q 392 728 388 728 q 393 726 392 726 q 415 721 415 726 q 414 718 415 719 l 413 717 l 419 718 q 427 715 425 718 q 431 712 429 713 q 432 710 432 711 l 431 707 q 441 697 439 703 q 443 681 443 690 q 439 658 443 671 q 343 510 432 638 q 258 376 281 421 l 288 378 l 351 379 q 382 376 372 379 l 381 376 l 382 375 l 385 375 l 386 374 q 385 372 386 372 q 415 354 410 363 q 419 353 417 353 q 422 346 422 353 q 422 344 422 344 q 419 344 421 344 l 425 339 q 424 336 425 338 q 421 335 424 335 l 422 333 l 421 332 l 426 329 l 424 326 l 425 325 q 424 318 425 321 q 421 314 422 315 q 419 311 419 313 q 410 299 415 303 q 404 296 406 296 l 401 294 l 404 293 q 403 292 403 293 q 393 288 403 290 q 389 285 389 288 l 390 285 q 387 281 388 282 q 385 279 386 279 l 372 282 l 372 281 l 371 282 l 369 281 l 368 282 l 368 281 l 367 282 l 367 281 l 357 281 l 356 282 q 355 281 356 281 q 353 279 354 281 l 353 281 q 321 278 347 278 l 274 272 q 54 247 100 247 m 299 485 l 321 517 l 299 485 m 326 525 q 333 533 329 525 q 338 542 338 540 l 326 525 m 332 539 l 335 546 l 329 539 l 332 539 m 335 547 q 339 550 339 549 q 340 554 339 551 q 335 547 338 553 m 339 543 q 344 547 343 546 q 344 550 344 549 q 339 543 340 547 m 344 551 q 350 557 350 554 q 344 551 344 556 m 350 558 q 354 563 353 561 l 354 565 l 350 558 m 349 565 l 353 571 l 349 565 m 356 568 q 360 573 360 571 q 364 581 361 575 l 356 568 m 336 578 l 339 582 q 337 581 338 582 q 336 578 336 579 m 144 313 l 143 314 l 140 313 l 144 313 m 133 319 l 140 321 l 138 322 l 133 319 m 133 321 l 138 324 l 122 321 l 133 321 m 115 274 q 179 282 139 275 l 179 283 l 174 282 l 174 283 l 172 282 l 172 283 l 171 282 l 171 283 q 150 280 168 281 q 129 276 132 279 l 124 276 q 119 276 122 276 q 115 274 115 275 m 197 433 l 276 551 l 278 556 l 260 531 q 197 433 228 485 m 258 508 l 265 518 q 284 542 274 528 q 301 569 294 556 q 284 546 290 558 q 258 508 278 533 m 231 447 l 319 579 q 274 517 315 578 q 232 453 232 457 q 231 447 232 450 m 303 528 l 307 535 l 303 528 m 253 456 l 300 525 q 280 497 299 525 q 253 456 261 469 z "},"":{"ha":486,"x_min":-4,"x_max":483,"o":"m 8 307 l 3 307 l 4 308 l 4 307 l 10 308 l 8 307 m -4 317 l -4 318 l -3 318 l -4 317 m 264 419 l 264 421 l 267 422 l 264 419 m 303 442 l 313 446 l 303 442 m 293 438 l 296 439 l 293 438 m 56 258 l 53 260 l 56 261 l 57 260 l 56 258 m 58 258 l 57 260 l 58 261 l 57 263 l 57 261 l 56 263 l 54 261 q 50 260 53 260 l 50 261 q 35 260 46 260 l 33 261 l 32 260 l 31 261 l 31 260 l 28 263 l 24 263 q 21 267 21 265 l 22 267 l 21 268 l 19 267 l 19 269 l 14 269 l 14 271 l 15 271 l 21 272 q 19 278 21 276 l 7 276 l 4 278 q 17 281 15 281 q 21 281 18 281 q 25 283 24 282 l 18 283 q 28 285 25 285 q 33 286 31 286 q 38 288 35 286 l 15 286 l 21 289 q 36 292 31 289 q 17 290 28 290 q 44 297 35 296 q 63 303 54 299 l 50 303 q 46 301 47 301 q 42 300 44 301 q 32 296 39 299 l 39 301 l 40 301 q 39 303 39 301 l 38 301 q 17 294 19 296 q 8 292 14 292 l 10 294 l 4 292 l 4 294 q 6 295 6 294 q 6 297 6 296 q 10 299 7 297 l 1 296 l 4 299 l 3 299 q 6 301 3 300 q 12 304 8 303 q 17 307 15 306 l 19 307 l 15 308 q 13 311 13 310 l 14 313 l 17 313 q 20 315 18 314 q 26 319 22 315 l 7 311 l 22 319 l 15 319 l 4 314 l 4 317 l 6 318 l 10 318 q -1 314 3 318 q 0 317 -1 317 q 3 319 1 318 q 7 321 4 319 l -4 321 q -3 322 -3 321 l 4 322 q 10 323 8 322 q 14 325 11 324 l 8 326 l 14 326 q 15 328 14 328 q 21 331 15 329 l 17 328 l 25 332 l 19 332 q 23 333 19 333 q 28 334 26 333 q 31 338 31 335 q 22 335 26 338 q 13 331 17 333 q 8 328 8 329 l 7 326 q 6 325 6 326 l 4 326 l 3 325 q 0 324 1 324 l 0 326 l -4 325 l -3 329 l -1 329 q 0 331 0 329 l 1 336 l -1 335 l -1 336 q 3 341 1 339 q 5 344 4 343 q 7 345 6 344 q 10 347 8 346 q 94 392 11 347 q 293 515 176 436 q 313 528 301 518 l 314 531 l 317 532 q 345 553 332 542 q 367 574 358 565 q 375 585 375 583 l 374 588 l 375 588 q 361 589 372 589 q 315 585 349 589 l 304 583 q 174 543 228 569 q 121 511 121 517 l 122 510 q 123 503 122 504 q 125 499 124 501 l 124 496 l 125 494 q 113 471 125 483 l 99 464 q 87 466 93 464 q 74 468 81 468 l 74 469 q 65 474 69 469 l 63 476 q 58 481 58 479 q 52 487 57 482 q 45 497 47 492 q 40 507 43 503 l 40 525 q 94 607 40 571 q 223 664 149 643 q 357 685 297 685 q 451 660 421 685 q 483 604 481 636 q 460 533 483 561 q 403 476 438 504 q 276 386 318 410 q 265 379 268 382 q 274 377 265 378 q 292 376 282 376 q 317 375 314 376 l 322 375 q 331 374 325 374 q 339 372 336 374 l 340 372 l 340 374 l 342 371 l 342 372 l 343 371 l 343 372 l 350 369 l 349 368 q 352 365 349 367 q 360 364 356 364 q 373 357 371 360 q 378 354 375 354 l 378 353 q 376 351 378 351 q 369 350 374 350 l 375 347 q 385 343 385 347 l 381 343 q 381 341 381 342 q 383 340 382 340 l 382 339 l 383 339 l 383 338 l 381 338 l 383 336 l 381 335 l 376 336 l 378 335 l 376 335 q 381 333 378 333 q 389 329 385 332 l 379 328 l 385 328 l 385 325 q 386 324 385 324 l 383 322 l 386 321 l 386 319 q 383 314 386 315 l 382 314 l 381 313 l 383 311 l 383 310 q 382 308 382 308 l 381 307 q 376 306 379 306 l 376 301 l 374 301 q 369 296 374 300 l 364 294 l 365 293 q 364 291 365 292 q 358 290 363 290 q 361 289 358 289 l 357 288 l 357 286 l 350 286 l 346 281 q 307 282 331 282 q 169 275 246 282 q 60 260 92 268 l 58 258 m 18 321 l 19 324 l 10 321 l 18 321 m 11 294 q 18 299 14 294 l 11 294 m 26 321 l 28 324 l 25 322 l 24 324 l 25 321 l 26 321 m 28 325 l 36 326 l 36 328 l 28 325 m 24 310 l 14 311 q 15 310 14 310 l 24 310 m 24 311 q 50 324 42 315 l 49 324 q 37 322 43 324 q 26 317 31 319 q 22 313 22 314 l 24 311 m 28 274 q 31 275 29 275 q 35 278 33 275 l 28 274 m 44 289 l 47 290 l 44 289 m 369 547 l 371 549 l 369 549 l 369 547 m 61 292 l 64 293 l 61 292 m 124 371 q 347 515 282 460 q 292 476 293 476 q 292 476 292 476 q 292 474 292 475 q 274 464 275 465 q 264 457 272 463 q 226 432 242 440 l 214 425 l 214 424 q 188 408 213 424 q 183 408 186 408 q 161 394 181 408 l 126 374 q 124 371 124 374 m 153 376 q 156 378 154 378 q 192 399 157 379 q 272 449 226 419 q 354 510 318 479 q 360 513 357 510 q 366 519 363 515 q 369 524 369 522 q 156 381 279 450 q 149 376 150 376 q 151 378 151 376 l 153 376 m 338 479 l 346 486 l 338 479 m 325 469 l 325 471 l 324 469 l 325 469 m 301 454 l 303 456 l 301 454 m 254 421 l 256 424 l 251 421 l 254 421 m 244 417 l 249 418 l 249 419 l 244 417 m 206 393 q 221 401 211 394 l 229 407 q 219 402 226 407 q 210 396 213 397 q 207 394 208 394 q 206 393 206 394 m 183 379 l 194 386 q 183 379 183 382 m 264 410 l 265 411 q 264 410 264 411 m 281 422 l 288 425 l 281 422 m 293 429 q 390 500 351 465 q 293 429 343 463 m 343 468 q 348 470 346 469 q 350 474 350 471 l 343 469 l 344 469 l 343 468 m 392 501 l 394 503 l 392 501 m 196 376 l 208 382 l 208 381 l 219 386 l 217 386 q 220 388 219 386 q 226 390 221 390 q 232 393 231 390 q 235 397 233 396 q 238 399 236 399 q 243 401 240 400 l 239 400 l 256 408 l 269 418 q 272 422 271 419 q 278 424 274 424 q 282 426 282 425 l 279 425 q 287 431 285 431 q 294 435 289 431 l 296 433 l 294 436 l 296 436 q 314 449 306 440 l 314 447 q 318 451 317 449 q 323 454 319 453 q 326 457 326 456 l 324 456 q 326 458 325 458 q 329 458 328 458 l 328 457 q 333 460 329 457 q 338 465 338 463 l 343 468 l 342 469 q 357 479 342 471 l 383 501 l 382 501 l 399 517 l 350 482 q 214 392 274 425 l 196 381 l 197 381 l 196 376 z "},"":{"ha":460,"x_min":-1,"x_max":444,"o":"m 189 244 q 97 256 136 244 l 69 267 q 56 272 63 268 q 40 279 49 275 l 35 285 q 6 318 14 301 l -1 346 l 0 350 l 0 347 l 1 349 q 3 361 1 361 l 3 367 q 6 376 6 369 q 13 386 6 382 q 15 388 13 388 q 17 390 17 389 q 19 393 18 392 l 24 393 l 24 390 l 28 392 l 28 390 l 31 390 l 31 392 l 33 392 l 33 393 l 35 393 l 36 390 l 36 394 l 38 392 l 40 393 l 42 392 l 46 394 l 56 390 l 56 389 l 58 390 l 61 385 l 64 386 l 64 383 q 67 379 64 381 q 72 378 69 378 q 76 377 75 378 q 79 373 76 376 q 83 366 82 369 q 86 363 85 363 l 86 365 q 88 360 88 363 q 91 353 89 357 q 97 349 93 350 q 100 346 100 347 l 101 347 l 101 346 q 175 332 129 332 q 249 338 211 332 q 312 351 286 343 q 338 367 338 360 l 333 368 q 213 385 261 385 q 153 389 175 385 q 143 392 149 392 q 135 394 138 393 q 132 397 132 396 l 131 397 q 126 400 131 400 l 125 403 l 125 404 l 124 404 l 125 407 l 119 410 q 115 424 119 421 q 111 429 111 428 q 113 436 111 433 q 115 442 115 439 l 113 443 l 115 446 l 115 450 l 113 449 l 115 451 l 115 454 l 114 454 l 114 456 l 113 456 q 117 463 113 458 q 136 482 126 475 q 175 504 153 493 q 179 507 179 506 q 104 504 142 504 l 104 507 l 103 507 q 95 508 97 507 q 89 510 93 510 l 88 508 l 88 510 l 81 510 l 81 514 q 78 515 79 515 q 76 516 76 515 q 74 518 75 517 q 74 521 74 519 l 71 521 l 68 522 l 71 525 l 72 524 l 75 525 l 68 526 l 71 526 l 68 529 l 67 529 l 67 533 l 71 533 l 72 535 l 69 535 l 74 538 l 69 538 l 67 539 l 69 540 l 69 542 l 67 542 l 67 543 l 79 543 l 65 547 l 67 549 l 61 551 l 61 553 l 64 553 l 65 554 l 64 554 l 67 557 l 74 558 l 64 558 l 69 561 l 68 561 l 68 563 l 65 563 q 65 564 65 564 l 68 565 l 71 565 l 69 567 l 74 567 l 69 568 q 64 571 65 568 l 68 571 l 64 574 l 61 574 l 63 575 l 68 575 l 67 576 l 71 576 l 69 578 l 71 578 l 71 579 l 69 579 l 71 582 l 71 583 l 75 583 l 75 585 l 74 585 q 78 590 75 589 q 83 592 81 592 q 89 594 86 593 l 115 593 q 207 598 153 593 q 308 603 261 603 q 389 590 363 603 l 390 588 l 392 589 l 400 581 l 399 581 q 402 577 399 579 q 408 572 406 575 l 407 571 l 410 571 q 411 569 410 569 l 411 567 q 409 565 410 567 q 408 561 408 564 l 410 561 l 408 560 l 410 557 l 411 558 l 411 549 l 410 549 l 411 546 l 413 549 l 413 547 l 415 547 q 414 540 414 544 q 410 535 414 536 q 407 528 407 533 q 404 519 407 522 q 401 515 401 517 q 331 474 401 504 l 331 475 l 324 469 q 318 467 322 468 q 310 465 314 465 q 306 463 307 464 q 303 462 304 463 q 301 460 301 461 l 306 460 q 342 451 311 457 l 342 450 l 350 447 l 351 449 q 366 443 358 444 q 382 438 374 442 q 388 436 383 436 l 390 435 l 392 435 l 393 432 l 399 431 l 399 429 l 400 429 q 401 428 400 428 q 404 427 403 428 q 408 425 406 426 q 412 423 410 424 q 414 421 414 422 l 406 425 q 411 420 410 421 q 414 419 413 419 q 416 416 415 419 q 422 413 417 413 l 421 414 l 424 414 l 424 411 l 426 411 q 429 407 426 408 q 444 363 444 383 q 440 340 444 350 q 432 325 436 331 l 426 318 q 315 263 388 279 q 189 244 243 247 m 408 542 l 411 544 l 410 546 l 408 544 l 410 544 l 408 542 m 135 522 l 228 531 l 132 524 q 135 522 132 522 m 221 539 l 229 540 l 213 539 l 221 539 m 151 554 l 154 556 l 149 556 l 151 554 m 176 556 l 172 557 q 168 556 168 557 l 176 556 m 290 565 l 288 567 l 285 565 l 290 565 m 160 560 l 258 568 q 260 567 258 567 l 264 568 l 265 567 l 268 568 l 285 568 l 285 569 l 271 569 l 289 571 l 294 569 l 293 571 l 296 569 l 307 571 q 321 572 321 571 l 313 574 l 321 574 l 307 575 q 213 570 279 575 q 146 564 146 565 q 147 561 146 561 l 151 561 l 146 560 l 160 560 m 322 453 l 324 454 l 319 454 l 322 453 m 182 293 q 273 303 224 293 q 353 328 322 313 q 327 319 340 322 q 306 311 314 315 q 288 307 297 307 q 277 306 278 307 q 275 304 276 304 l 275 306 q 259 301 271 301 q 238 299 247 300 q 178 294 219 294 q 149 296 153 294 q 143 297 144 297 l 142 297 l 149 296 q 165 294 156 294 q 182 293 175 293 m 333 301 q 340 303 338 303 q 344 307 343 303 l 333 301 m 321 300 q 326 304 326 300 l 321 300 m 172 282 l 171 283 l 169 282 l 168 283 l 163 283 q 172 282 165 282 m 138 283 l 136 285 l 133 285 q 124 286 132 286 l 138 283 m 147 282 q 140 283 144 283 l 138 283 l 144 282 l 147 282 m 279 314 l 314 322 q 315 324 314 324 l 317 322 l 319 325 l 319 324 q 322 324 321 324 q 324 326 324 325 l 279 314 m 274 324 q 299 327 286 324 q 315 333 313 331 l 306 329 q 316 333 308 332 q 331 339 324 335 l 281 325 l 274 324 m 176 301 l 179 303 l 146 306 q 155 304 150 304 q 176 301 160 304 m 124 275 l 125 276 l 115 279 l 124 275 m 65 542 l 64 543 l 65 543 l 65 542 m 222 567 l 243 568 l 222 567 m 211 565 l 207 565 l 210 567 l 211 565 z "},"":{"ha":501,"x_min":-72,"x_max":476,"o":"m -21 244 l -24 246 q -28 247 -26 246 l -29 247 l -29 249 l -33 249 l -33 251 l -37 250 l -36 251 l -46 251 l -46 253 q -47 255 -47 253 q -50 257 -47 257 l -49 258 l -58 260 l -58 263 q -58 265 -58 264 q -56 267 -57 265 l -57 268 l -60 265 l -61 267 l -58 272 q -65 273 -64 272 q -65 276 -65 274 l -67 276 l -65 278 q -69 278 -68 278 q -69 282 -69 279 q -71 286 -69 285 l -71 289 q -72 290 -72 289 q -71 292 -72 292 q -69 305 -69 300 q -56 319 -68 310 q 13 383 -26 344 q 32 403 28 394 q 33 411 33 404 l 35 415 l 35 417 q 37 421 35 418 q 43 427 39 424 q 54 432 47 431 l 53 431 l 68 435 q 329 640 210 565 l 329 642 q 335 642 335 642 q 337 644 336 643 q 338 645 338 644 q 340 647 339 646 l 343 647 l 343 649 l 344 649 l 346 651 l 347 651 l 351 653 q 358 656 356 656 q 361 657 360 657 l 361 658 l 360 658 l 365 661 l 368 661 l 368 663 l 378 667 l 415 672 l 411 669 l 415 669 q 417 667 415 668 q 419 665 418 667 l 419 667 l 422 667 l 421 665 l 424 665 q 425 668 424 668 q 429 665 429 668 l 432 667 q 435 661 435 664 l 436 661 q 439 660 436 660 l 439 658 l 440 658 l 442 656 l 443 656 l 442 657 l 443 660 l 443 657 l 446 657 l 449 651 l 450 651 l 454 640 l 453 640 l 454 635 l 457 635 q 458 617 458 629 l 460 615 q 458 614 458 615 q 457 611 457 613 l 458 608 q 438 554 458 596 q 400 465 421 519 l 435 465 l 435 464 l 440 464 q 458 457 458 460 l 457 457 l 456 454 l 454 454 l 454 453 l 463 453 l 461 451 l 467 449 q 465 447 467 447 l 469 446 q 464 444 469 444 l 467 444 l 467 443 q 461 442 461 443 q 465 440 465 442 l 457 439 l 469 439 l 475 438 q 473 435 475 436 q 467 435 471 435 q 460 434 464 435 q 456 432 456 433 l 472 432 q 476 431 472 431 l 474 429 l 476 428 l 476 424 l 475 422 l 474 422 q 471 419 474 419 l 472 419 q 475 418 472 418 l 475 417 l 468 414 l 472 414 l 467 411 l 469 411 l 469 410 q 468 408 469 408 l 469 406 l 468 406 q 465 403 465 404 q 461 402 464 403 q 454 400 458 401 q 461 399 461 400 q 460 397 460 397 l 458 396 q 456 394 457 394 l 457 394 l 454 393 l 456 393 q 453 391 454 392 q 451 390 451 390 q 449 389 450 389 l 363 376 q 354 359 358 365 q 349 350 350 353 l 349 353 l 336 338 q 335 339 335 338 l 331 336 l 325 336 l 324 339 l 324 338 l 322 338 q 321 339 321 338 l 319 338 l 317 336 l 317 339 l 314 338 l 314 339 q 313 336 314 336 l 311 335 l 311 344 q 313 351 313 350 q 314 353 313 351 l 314 357 q 315 358 315 357 l 315 361 q 313 355 314 361 q 307 340 311 349 l 307 342 l 304 336 l 304 344 q 302 342 303 343 q 301 340 301 340 q 300 339 301 339 l 300 340 l 297 339 l 294 343 l 292 343 l 292 340 q 290 342 290 340 l 290 349 l 288 346 l 288 349 l 286 349 l 288 353 l 286 350 q 283 347 285 347 l 283 349 l 281 349 l 281 354 l 279 354 l 281 363 l 281 367 l 276 361 l 276 363 l 275 363 l 275 364 l 272 364 l 271 368 l 193 360 q 138 353 161 356 q 113 349 114 350 q 99 338 111 349 q 41 282 67 306 q 15 258 15 258 q 12 256 15 257 q 6 255 8 256 q 3 253 4 254 l 1 253 q -2 251 0 251 q -7 247 -4 250 l -8 249 l -15 247 l -21 244 m 8 333 l 8 335 q 47 371 47 367 l 46 371 q 32 360 40 369 q 29 356 29 357 q 28 356 29 356 q 26 354 26 356 l 26 354 l 26 354 q 22 352 25 353 q 19 347 19 351 l 32 358 q 26 351 28 353 q 14 343 24 350 l 17 343 q 12 338 15 342 q 8 333 8 335 m 18 339 l 50 369 l 47 368 l 47 369 q 37 357 44 364 q 24 346 29 350 q 18 342 19 342 l 19 342 l 18 339 m 26 321 q 43 336 38 332 q 64 357 49 340 l 64 358 q 61 357 63 358 q 58 354 60 356 q 47 344 49 346 q 38 334 46 342 q 26 322 29 326 l 28 322 l 26 321 m 36 318 q 41 322 38 321 q 44 325 44 324 q 44 328 44 326 l 44 328 q 49 330 49 328 q 51 333 50 332 q 53 334 53 333 q 53 335 53 335 q 55 337 54 336 q 57 338 56 338 q 60 340 58 339 l 57 339 l 72 353 q 53 337 69 353 q 36 318 36 321 m 40 311 q 65 330 44 311 q 86 353 86 349 q 76 344 83 351 q 58 327 68 336 q 45 315 49 318 q 40 311 42 311 m 157 443 q 310 563 271 536 l 335 581 q 310 565 333 581 q 287 549 288 550 q 285 547 286 547 q 283 546 283 547 q 265 532 282 544 l 251 522 l 253 522 q 248 517 253 518 q 235 509 243 517 q 226 501 226 501 q 225 500 226 500 l 225 501 l 219 494 q 222 499 219 496 q 218 494 219 499 q 206 485 211 490 l 207 486 q 199 479 206 486 q 190 472 192 472 q 160 447 167 454 q 159 445 160 446 q 158 444 158 444 q 156 443 157 444 l 157 443 m 174 446 l 203 471 l 225 489 q 234 497 233 496 q 236 497 235 497 q 238 499 238 499 q 258 515 238 500 q 282 535 278 529 l 282 533 l 292 540 q 251 510 275 529 q 204 474 226 492 q 174 446 182 456 m 179 393 q 186 394 183 393 l 192 394 l 193 396 l 188 396 q 194 397 194 396 q 184 397 190 397 q 175 394 178 396 l 178 394 l 174 393 l 179 393 m 179 386 l 192 388 l 179 386 m 182 413 l 192 414 l 182 414 l 182 413 m 189 413 l 189 414 l 181 413 l 189 413 m 181 408 m 186 415 l 194 417 l 186 415 m 185 417 l 200 418 l 199 419 q 187 417 188 418 q 185 417 186 417 m 111 440 l 110 440 q 117 444 114 440 q 111 440 115 444 m 122 440 l 140 457 q 200 506 172 489 l 201 506 l 199 504 l 199 503 l 193 500 l 193 499 l 196 500 q 214 514 208 508 q 210 513 211 514 q 208 511 208 513 q 206 510 207 510 l 228 526 l 226 526 l 238 536 q 258 551 242 539 q 276 564 275 564 l 272 560 l 272 561 l 258 550 l 257 550 l 257 549 q 252 546 254 549 q 243 540 250 543 q 241 538 242 539 q 240 536 240 538 l 235 533 l 235 532 l 211 514 q 222 519 215 514 q 244 538 243 536 q 246 540 246 539 q 253 546 246 542 q 265 554 261 550 q 275 561 269 558 q 281 566 281 564 q 285 569 282 568 q 296 576 289 569 l 297 576 l 297 578 q 299 578 299 578 q 301 581 300 579 q 304 582 303 582 l 303 582 l 315 589 l 314 589 q 317 591 315 590 q 319 592 318 592 q 319 593 319 592 q 317 592 318 593 q 315 591 315 592 q 313 589 314 590 l 314 589 l 311 588 l 311 589 q 313 591 311 590 q 321 596 314 592 l 321 597 l 325 599 l 325 600 l 299 583 q 308 590 303 586 q 318 596 314 593 q 326 602 322 599 q 335 610 329 606 l 297 583 q 294 579 297 582 q 288 576 290 576 q 276 569 285 575 q 260 557 268 563 q 249 549 253 551 q 243 544 244 546 l 246 544 q 232 538 235 540 q 229 535 229 536 l 229 533 l 226 533 q 224 531 225 532 q 224 529 224 531 l 224 528 l 222 528 q 216 524 219 525 q 209 519 213 522 q 188 501 206 517 l 151 469 q 128 449 138 458 q 122 444 126 449 l 119 442 l 124 443 l 122 440 m 126 440 l 128 442 q 193 497 189 497 l 193 499 q 185 492 189 497 q 179 486 182 492 q 172 483 175 486 q 165 475 169 479 q 151 463 151 464 q 146 460 150 463 q 141 455 142 457 q 133 447 140 453 q 126 440 126 442 m 154 440 l 157 442 l 154 440 m 168 374 q 229 382 229 379 q 217 382 221 382 q 214 381 214 382 l 214 381 l 213 382 l 211 381 q 160 374 183 379 l 168 374 m 242 454 q 253 456 246 456 q 270 458 260 457 q 285 460 281 458 q 295 475 290 461 q 311 513 300 489 l 310 514 l 310 517 q 260 479 293 507 l 229 454 l 242 454 m 190 447 q 197 451 192 447 q 322 549 257 503 l 331 556 l 329 556 l 321 550 l 322 551 q 319 548 321 550 q 315 546 317 546 l 321 550 q 315 546 317 549 q 308 542 313 543 l 311 543 q 289 527 289 528 q 286 524 289 526 q 282 521 283 522 q 274 515 281 519 l 272 515 l 274 514 l 267 511 l 268 510 l 265 511 l 267 510 q 262 506 267 507 q 256 503 257 504 q 253 500 256 501 l 254 500 l 253 499 l 253 500 q 243 491 246 494 q 232 482 240 488 q 242 490 232 483 q 231 483 233 485 q 228 479 229 481 l 226 478 l 225 476 l 225 478 l 224 475 q 221 474 222 475 q 219 473 219 474 q 216 470 219 472 q 210 464 213 468 l 206 461 l 190 447 m 340 522 l 342 525 q 343 526 342 526 q 341 525 342 526 q 340 522 340 524 m 354 526 l 365 551 l 354 526 m 392 554 l 399 571 l 392 554 m 375 554 l 375 556 q 374 554 375 554 l 375 554 m 372 547 l 378 556 l 379 560 l 372 547 m 383 518 l 403 557 l 392 528 q 403 551 399 543 q 410 565 407 558 q 417 579 414 571 l 417 581 q 405 572 410 581 q 399 558 400 563 l 399 554 l 400 556 q 397 551 399 551 q 383 518 397 547 z "},"":{"ha":564,"x_min":4,"x_max":549,"o":"m 186 304 q 180 304 182 304 q 173 305 178 304 q 160 306 168 306 q 149 308 153 307 q 142 309 146 308 q 138 310 139 310 l 136 310 l 136 308 q 118 314 132 308 q 74 331 88 324 l 61 336 q 49 344 49 342 q 40 353 46 344 q 33 362 33 361 q 31 363 33 363 q 26 368 28 364 q 19 377 25 372 q 13 392 14 382 q 8 411 11 403 l 7 411 l 4 431 l 6 432 l 4 432 q 10 454 4 447 l 17 478 q 18 479 17 479 q 19 481 19 479 l 18 481 l 18 483 l 19 482 l 22 490 l 21 489 q 22 490 21 490 l 21 493 l 22 494 q 56 545 24 507 q 96 585 89 583 q 138 614 96 589 q 196 643 167 631 q 225 656 214 650 q 280 674 254 667 q 332 682 306 682 l 357 681 l 351 679 l 358 676 l 357 676 q 359 674 357 675 q 367 671 361 674 q 377 665 372 668 q 383 661 382 663 q 385 659 383 660 q 388 656 386 658 q 390 652 390 654 q 392 649 390 650 q 394 645 393 647 q 396 639 396 643 q 394 626 396 631 q 390 619 392 622 q 386 614 388 617 q 395 613 392 614 q 400 611 399 611 l 422 607 l 425 608 l 425 607 l 428 607 l 428 606 l 432 607 l 433 606 l 435 607 q 436 605 436 606 q 443 604 436 604 l 446 603 l 451 603 l 454 601 l 456 603 l 457 601 l 471 594 l 472 594 q 474 593 472 593 q 481 590 476 593 l 479 593 q 514 567 501 583 l 515 567 l 515 565 l 517 565 l 518 563 l 515 569 q 519 565 517 569 q 523 560 522 561 q 525 557 524 558 l 525 557 l 526 557 q 536 543 529 557 l 538 540 q 543 531 540 533 q 547 510 547 522 l 549 499 l 547 493 l 549 490 q 539 460 549 479 q 526 440 529 442 l 526 439 q 529 442 529 440 q 532 444 529 443 q 516 421 531 435 q 499 407 501 407 q 498 404 499 404 q 494 403 497 404 l 485 397 q 351 332 460 372 l 347 332 q 344 331 344 332 q 343 331 344 331 q 339 328 340 329 q 335 328 338 328 q 333 328 333 328 q 331 327 332 328 q 329 326 331 326 q 328 325 328 326 q 326 324 328 324 l 326 326 l 325 326 q 301 318 322 324 q 186 304 244 304 m 210 340 l 169 340 l 171 342 l 165 343 q 167 342 165 342 q 168 340 168 342 l 140 346 l 136 344 l 126 349 l 126 347 q 128 344 128 347 l 122 347 q 185 340 150 340 q 339 367 251 340 q 453 417 407 386 q 426 403 438 407 l 440 411 l 429 406 q 394 390 415 397 l 367 379 l 340 369 l 338 368 l 336 369 q 333 367 336 368 q 326 366 329 367 q 310 361 324 365 q 246 347 264 349 l 242 346 l 242 347 q 238 346 240 346 q 236 344 236 346 l 208 342 l 210 340 m 182 332 l 214 333 q 328 356 275 340 q 413 387 381 372 q 444 403 444 401 q 251 339 349 354 l 233 338 q 181 333 203 333 q 150 336 153 335 l 151 335 l 125 339 q 182 332 151 332 m 207 353 q 276 364 253 357 l 268 364 q 239 358 239 360 l 236 358 l 235 357 l 232 358 l 231 357 l 210 356 q 208 354 208 356 l 197 354 l 197 353 l 207 353 m 342 386 q 363 392 346 386 q 399 407 381 399 q 429 421 418 415 q 342 386 372 394 m 450 585 q 425 592 450 586 q 372 594 411 594 l 386 594 q 450 585 417 594 m 185 393 q 369 435 289 399 q 450 497 450 471 q 427 517 450 510 q 381 524 404 524 q 272 499 331 524 l 263 496 l 261 497 l 263 499 q 259 497 261 499 q 254 494 257 494 q 248 497 254 496 q 239 499 242 499 l 236 499 q 233 499 235 499 q 231 503 231 500 l 229 503 l 233 508 l 228 506 q 231 510 229 510 q 233 513 232 511 l 225 508 l 225 510 l 219 508 q 217 510 218 508 q 217 514 217 511 l 217 517 l 215 517 q 214 518 214 518 l 214 518 q 213 519 213 518 q 211 522 213 521 l 213 526 l 211 526 l 215 532 l 213 532 l 210 546 l 211 550 q 184 533 207 550 q 138 494 161 517 q 107 456 115 472 l 101 438 l 103 438 l 101 436 l 103 436 l 101 432 l 101 426 q 104 418 103 419 q 185 393 131 393 m 82 475 q 86 482 85 478 q 90 490 88 486 l 92 490 l 90 486 l 94 496 l 93 494 q 92 490 92 493 l 89 490 l 97 501 l 89 493 l 88 493 l 88 492 l 86 492 l 86 490 l 82 481 l 85 485 l 82 475 m 72 475 q 81 488 78 483 q 94 506 83 492 q 87 497 90 500 q 80 488 83 493 q 75 483 76 483 q 72 475 74 482 m 79 475 l 81 478 l 79 475 m 78 394 q 74 397 76 397 l 75 396 q 78 394 76 394 m 69 447 l 71 450 l 69 449 l 68 451 l 71 456 l 72 454 l 72 456 l 74 456 l 74 457 l 72 457 l 72 461 l 74 460 l 74 464 l 72 461 l 72 463 l 69 463 l 69 461 l 71 461 l 71 460 l 69 460 l 68 460 l 68 447 l 69 447 m 72 401 l 68 406 l 71 406 l 67 408 l 67 407 l 67 407 q 69 404 68 406 q 72 401 69 403 m 65 415 l 67 417 l 65 419 l 65 415 m 65 446 l 65 449 l 65 446 m 67 440 l 68 443 l 67 443 l 67 440 m 72 450 l 72 453 q 72 451 72 451 l 71 451 l 72 450 m 68 464 l 71 471 q 68 468 69 471 l 68 464 m 74 479 l 72 479 l 74 479 m 72 467 q 74 469 72 469 l 72 467 m 94 543 q 116 559 111 554 q 132 574 121 564 q 110 556 125 569 l 94 543 m 24 433 m 28 399 l 29 400 l 28 404 l 28 399 m 39 379 q 35 388 36 388 q 35 389 35 388 q 36 382 35 386 l 39 379 m 35 442 l 36 443 l 35 444 l 35 442 m 36 406 l 35 410 l 36 406 m 43 446 l 44 451 l 43 446 m 25 449 q 42 491 29 469 q 70 529 56 513 q 96 557 85 546 l 107 567 l 104 565 q 51 508 76 543 q 25 449 25 474 m 50 468 l 54 476 q 68 497 64 494 q 75 507 72 500 l 71 503 l 76 513 q 63 494 75 513 q 50 468 50 475 m 60 431 l 58 438 l 60 432 l 58 431 l 60 431 m 60 371 l 56 376 l 60 371 m 60 419 l 61 426 l 60 428 l 58 419 l 60 419 m 69 372 l 68 375 q 65 376 67 376 q 69 372 67 372 m 192 356 q 239 360 217 357 q 238 361 239 361 l 231 361 l 231 360 l 221 360 q 227 361 224 361 q 235 363 231 361 l 239 363 l 238 361 q 239 363 239 361 l 240 363 l 240 361 l 242 361 q 244 364 244 363 q 246 363 246 364 l 247 363 l 247 364 l 251 364 q 258 365 256 364 q 260 367 260 365 l 261 365 l 263 367 l 264 365 l 268 367 l 271 365 l 269 367 l 271 368 l 275 368 l 274 369 q 281 371 281 369 l 282 369 l 288 371 l 290 372 l 292 374 l 292 372 l 299 374 l 297 375 l 301 374 l 300 375 l 310 378 q 421 419 365 392 q 411 415 415 418 q 354 393 381 400 l 425 424 l 425 425 l 426 425 l 426 426 l 424 425 q 415 421 424 424 l 413 421 l 418 424 l 414 422 q 328 388 394 411 q 181 364 261 364 q 142 367 160 365 q 121 371 125 369 q 115 372 117 372 l 113 371 l 115 371 q 119 368 118 369 l 107 372 q 122 368 115 368 l 122 367 l 125 365 q 117 367 118 367 q 103 374 115 368 l 104 372 l 103 372 l 104 371 l 103 371 q 100 374 103 372 q 96 376 97 376 l 94 376 l 94 378 l 94 379 q 92 381 93 381 q 88 382 90 382 q 86 383 88 383 l 85 385 l 86 382 l 85 382 l 83 385 l 82 386 l 83 382 l 74 393 l 76 392 l 76 393 q 69 399 71 399 l 74 399 q 72 399 72 399 q 71 401 72 400 l 68 401 l 67 403 l 67 401 l 65 404 l 65 403 q 63 406 63 404 l 63 407 l 61 407 l 63 403 l 63 406 l 64 401 l 67 399 q 68 397 68 399 q 192 356 96 356 m 106 353 l 90 360 q 85 363 90 363 q 79 365 81 364 q 90 358 79 364 q 104 353 101 353 l 106 353 m 81 382 q 78 385 81 385 q 75 386 76 385 q 72 389 74 388 q 81 382 75 383 m 81 356 q 75 360 81 358 l 79 357 q 81 356 79 356 m 206 322 q 344 349 285 331 q 437 387 403 368 q 471 407 471 406 q 372 363 407 371 l 353 356 q 338 349 340 350 q 332 349 335 349 l 331 347 l 329 349 q 325 346 328 346 q 240 328 288 335 l 221 326 q 213 325 213 326 l 211 326 q 178 324 193 324 q 107 335 132 324 l 82 344 q 189 322 125 322 l 206 322 z "},"a":{"ha":607,"x_min":-210,"x_max":621,"o":"m -129 -139 l -136 -139 q -140 -137 -137 -137 q -143 -136 -142 -137 l -144 -136 l -146 -133 l -151 -133 l -151 -129 l -157 -131 l -156 -128 l -158 -129 l -160 -128 l -161 -129 l -168 -129 q -169 -128 -168 -128 l -172 -126 l -172 -124 q -176 -118 -172 -118 l -175 -117 l -176 -117 l -179 -115 l -189 -115 q -190 -112 -190 -115 q -189 -108 -189 -111 l -186 -103 l -187 -101 l -190 -104 l -193 -103 l -189 -93 l -196 -94 q -199 -92 -199 -94 q -200 -86 -200 -90 l -203 -87 l -200 -83 q -205 -83 -204 -83 q -206 -74 -206 -82 q -210 -62 -210 -69 l -206 -39 q -184 -14 -199 -26 q -132 38 -169 -1 q -60 113 -65 107 q -52 122 -54 118 q -50 128 -50 125 l -51 138 q -50 139 -50 138 l -49 139 l -49 140 l -51 143 l -50 147 q -45 155 -49 150 q -37 164 -42 160 q -27 169 -32 168 q -19 172 -22 171 l -21 171 l 1 178 q 397 519 218 396 l 399 522 l 406 522 q 408 524 407 524 q 409 526 408 525 q 411 528 410 528 q 413 531 413 529 q 416 532 414 532 q 419 533 418 532 l 419 535 l 421 535 q 422 537 421 536 q 425 538 424 538 q 428 540 426 539 q 429 542 429 540 l 432 540 q 443 548 440 547 q 446 550 446 549 l 444 550 l 447 551 q 450 553 450 551 l 451 553 l 454 556 l 454 554 l 457 556 l 457 557 q 471 563 467 561 q 477 565 475 564 q 481 566 479 565 q 488 569 483 567 q 507 572 494 569 q 529 574 519 574 l 529 572 l 522 569 q 528 568 528 569 l 529 568 q 535 563 529 565 l 536 564 l 539 564 l 538 563 l 540 563 l 542 564 l 540 565 l 543 567 q 547 566 546 567 q 550 563 549 565 l 553 564 q 558 556 558 558 q 560 552 558 553 q 564 551 561 551 l 564 550 l 567 550 l 567 547 l 569 546 l 569 547 l 568 547 l 569 550 l 571 547 l 574 547 q 576 542 575 544 q 578 538 576 539 q 581 538 579 538 l 588 521 l 585 519 l 586 511 l 588 510 l 589 511 l 592 511 l 594 481 l 596 478 q 592 472 592 478 l 593 467 q 561 375 593 444 q 504 229 538 318 q 506 228 504 228 l 536 229 l 556 228 l 561 225 l 567 225 q 593 215 593 221 q 590 210 593 211 l 588 210 l 588 210 q 599 208 588 208 q 601 207 601 208 l 599 206 l 599 204 q 607 201 607 204 l 607 200 l 601 197 l 610 196 q 601 193 610 193 l 604 193 l 606 192 q 600 191 603 192 q 597 189 597 190 q 604 188 604 189 l 592 185 l 613 185 l 610 183 l 618 182 q 607 178 618 178 q 592 175 600 175 l 586 174 q 582 172 582 174 q 614 171 613 172 l 619 171 l 621 169 l 617 168 q 619 165 619 167 l 621 165 l 621 158 l 619 158 q 617 157 619 157 q 615 156 615 157 l 617 156 q 613 153 617 153 l 615 151 l 614 151 l 614 150 l 617 150 q 618 149 617 149 l 618 147 l 608 143 l 614 142 l 606 138 l 611 138 l 611 135 l 608 133 l 610 129 l 607 128 q 603 126 604 126 q 600 124 601 125 q 596 122 599 124 q 588 119 593 121 q 599 118 599 119 q 595 114 596 115 q 594 112 594 113 q 589 111 593 111 l 590 110 l 586 108 l 589 107 l 589 107 q 585 104 588 106 q 582 102 583 103 q 578 101 581 101 l 449 79 q 433 47 443 61 l 426 36 l 426 40 l 408 15 l 407 15 l 407 17 q 403 15 404 15 q 399 14 401 14 l 397 14 l 390 13 l 390 17 l 389 15 l 386 15 l 386 18 l 383 15 l 383 21 l 382 15 l 379 14 l 379 21 l 375 14 l 375 17 l 374 17 q 369 10 374 10 q 371 22 369 19 l 371 29 q 374 42 371 33 l 375 42 l 375 47 q 376 49 376 47 l 376 56 q 372 45 375 56 q 364 21 369 35 l 364 22 l 360 14 l 360 28 q 358 22 358 24 q 356 18 357 19 q 354 17 356 17 l 353 19 l 350 18 q 342 24 344 24 l 340 21 q 339 22 339 21 l 339 38 l 335 29 l 335 35 l 333 35 q 335 42 335 38 l 329 31 l 329 33 l 328 35 l 325 33 q 324 35 324 33 l 324 36 q 322 43 324 43 l 325 56 q 324 57 325 57 l 322 57 l 324 64 l 324 64 q 323 61 324 63 q 318 54 322 60 l 318 56 l 317 56 l 315 60 l 314 58 q 311 60 311 58 l 310 65 l 190 51 q 68 33 72 38 l -57 -94 l -75 -115 l -76 -115 q -78 -117 -78 -117 q -79 -119 -78 -118 q -83 -119 -81 -119 q -96 -126 -94 -125 q -99 -127 -97 -126 q -104 -129 -101 -128 q -112 -135 -107 -131 l -114 -132 l -121 -135 l -121 -136 l -126 -136 q -128 -137 -126 -137 q -129 -139 -129 -137 m -89 8 l -87 10 q -29 71 -29 64 l -31 71 q -53 53 -39 68 q -57 49 -57 49 l -57 47 q -59 45 -58 46 q -60 44 -60 44 q -62 43 -61 43 l -62 42 l -64 42 q -69 38 -67 40 q -72 32 -72 36 q -58 44 -71 32 l -53 49 q -65 36 -58 42 q -75 26 -71 31 l -79 24 l -76 25 q -83 17 -76 24 q -89 8 -89 10 m -75 18 q -71 20 -74 18 q -68 23 -68 22 q -53 39 -68 24 q -26 68 -26 67 l -29 67 l -31 68 q -44 49 -33 60 q -64 31 -56 38 q -74 21 -72 24 l -72 21 l -75 18 m -61 -12 q -35 13 -43 6 q -3 49 -28 19 l -6 49 l -4 50 l -6 50 q -9 48 -7 50 q -12 43 -11 46 q -28 26 -25 31 q -44 10 -32 22 q -61 -10 -57 -3 l -60 -10 l -61 -12 m -47 -17 l -35 -7 l -35 -3 l -33 -3 l -33 -1 q -29 -1 -31 -1 q -27 1 -28 0 q -26 4 -26 3 q -24 8 -25 6 l -21 10 q -19 12 -21 11 q -18 14 -18 13 q -17 16 -18 15 q -15 17 -17 17 q -12 17 -14 17 q -10 19 -11 18 q -10 21 -10 19 l -14 18 l 8 42 q -22 15 4 42 q -47 -17 -47 -12 m -39 -31 q -27 -20 -37 -31 q -3 3 -17 -10 q 19 27 10 17 q 29 40 29 38 q -35 -25 24 36 l -39 -31 m 135 190 l 138 192 q 263 303 219 265 q 329 360 307 342 q 367 390 351 378 q 407 421 383 403 q 369 395 403 421 q 333 367 335 369 q 330 365 332 365 q 327 363 328 364 q 319 356 326 363 q 281 324 297 336 l 279 322 l 282 324 q 278 318 282 321 q 272 315 275 315 q 242 289 264 311 q 239 286 242 286 l 240 289 q 235 283 239 288 q 231 278 232 278 q 235 283 231 281 q 226 276 232 283 l 221 271 l 211 260 l 213 263 q 201 251 211 263 q 188 240 190 240 q 140 199 151 210 q 140 194 140 194 q 138 194 139 194 q 135 190 136 193 m 161 196 l 206 238 l 242 268 l 240 268 q 253 281 253 279 q 257 282 254 282 l 257 283 q 258 285 258 283 q 290 311 258 288 q 326 343 321 335 l 326 340 l 340 354 q 243 274 301 324 q 161 196 185 224 m 171 108 q 181 110 176 108 q 188 111 186 111 q 190 113 190 111 l 192 113 l 194 114 q 164 110 176 114 l 168 110 l 163 108 l 171 108 m 181 96 q 190 100 188 97 l 168 96 l 181 96 m 175 140 l 189 143 l 174 142 l 175 140 m 172 139 l 182 140 q 186 142 186 140 l 172 139 m 172 133 q 178 135 172 135 l 172 133 m 181 144 l 192 146 l 194 147 l 178 146 q 181 144 178 144 m 181 147 l 201 150 l 200 151 q 188 150 196 151 q 181 147 181 149 m 65 186 q 75 194 71 186 l 65 186 m 83 186 l 85 189 q 203 296 153 261 l 204 294 q 200 292 200 293 q 197 289 200 292 q 193 286 194 286 q 192 283 192 286 q 194 284 194 283 q 196 286 194 285 q 222 310 217 303 q 215 306 217 310 q 211 301 213 303 l 211 303 l 243 331 l 242 331 l 260 347 l 260 346 q 290 372 265 351 q 318 392 315 392 l 311 386 l 311 388 l 293 372 l 293 371 q 288 369 289 371 q 286 367 288 367 q 281 363 285 367 q 271 353 278 358 q 263 347 264 349 q 259 344 263 346 q 255 342 256 342 q 254 339 254 342 l 219 310 q 256 338 229 310 q 272 351 269 351 l 272 353 l 283 361 q 301 376 294 371 q 315 388 307 382 q 325 397 324 393 q 336 405 326 400 q 347 412 346 410 q 348 414 347 414 q 349 415 349 414 q 352 418 349 415 q 360 424 356 421 l 358 422 q 363 424 360 422 q 369 429 365 426 q 376 435 374 432 l 375 435 q 379 438 376 436 q 382 440 382 439 q 376 438 379 440 q 373 435 374 436 q 372 435 372 435 q 371 433 371 435 l 374 433 l 371 432 q 369 433 369 432 q 371 435 371 433 q 386 446 371 439 l 383 446 l 392 453 l 351 425 l 407 468 l 349 425 q 344 418 349 422 q 333 414 339 414 q 290 379 329 408 l 267 360 l 271 361 l 271 360 l 265 358 q 253 350 260 353 q 247 345 247 347 q 242 341 247 343 q 238 336 238 339 q 236 333 238 333 q 226 325 231 328 q 215 317 221 322 l 217 317 q 182 286 206 307 q 157 263 158 265 l 92 200 q 83 193 89 199 q 78 186 78 188 l 89 193 q 85 190 88 192 q 83 186 83 188 m 90 188 l 146 240 q 192 282 189 282 l 192 283 q 183 278 189 283 l 179 272 q 173 268 176 272 q 167 264 169 264 q 160 254 165 264 l 149 244 q 128 224 128 226 l 122 221 q 111 208 114 214 l 90 188 m 133 186 l 136 189 l 133 188 l 133 186 m 143 75 l 154 76 q 246 90 246 85 l 225 89 l 222 88 l 221 89 l 219 88 q 187 85 200 86 q 142 76 174 83 q 143 75 142 75 m 250 210 q 279 213 258 210 q 308 216 293 215 q 330 219 324 217 q 340 227 336 221 q 348 250 343 233 q 371 308 353 267 l 368 310 l 369 314 l 368 314 q 293 253 343 297 l 246 210 l 250 210 m 185 197 l 188 199 q 197 206 190 199 q 388 367 289 290 l 400 378 l 399 379 l 386 369 l 386 371 q 382 366 385 369 q 376 363 379 363 q 381 366 378 364 q 385 369 385 368 q 376 363 379 367 q 367 354 372 358 l 371 358 q 336 331 338 332 q 331 326 335 329 q 325 321 328 324 q 314 313 322 318 l 315 313 l 313 311 l 313 310 l 304 304 l 304 303 l 301 304 l 303 303 q 296 295 303 299 q 287 290 289 292 q 282 286 285 288 l 283 285 l 281 283 l 282 285 l 281 285 q 267 272 272 278 q 250 256 263 267 l 251 258 q 258 265 254 261 q 267 272 263 268 l 244 251 l 246 254 l 242 250 l 243 250 l 240 247 l 239 249 q 238 244 238 247 l 236 244 l 229 239 q 217 225 221 233 l 215 225 q 210 221 214 225 l 204 217 q 207 218 206 217 q 211 221 208 219 l 197 208 l 197 210 l 185 197 m 415 324 l 418 331 l 414 324 l 415 324 m 435 331 q 443 349 440 338 l 453 371 q 451 368 451 371 q 449 363 450 365 q 440 342 447 360 l 435 331 m 492 376 l 503 404 q 492 376 501 403 m 465 375 l 468 381 l 465 375 m 464 364 l 471 378 l 474 386 l 464 364 m 481 315 l 510 381 l 492 332 q 511 372 503 357 q 531 419 531 413 q 526 419 528 419 q 521 415 524 418 q 506 392 511 408 l 503 376 l 504 378 l 503 372 l 500 372 q 481 315 500 364 z "},"b":{"ha":765,"x_min":-67,"x_max":701,"o":"m 449 64 l 457 67 l 457 65 q 449 64 450 65 m 513 83 q 515 85 513 85 l 519 85 l 513 83 m 475 69 l 469 69 l 479 71 l 475 69 m 122 -67 l 68 -58 l 68 -60 l 67 -58 l 65 -60 q 62 -58 64 -58 q 60 -57 60 -58 l 58 -58 l 56 -57 l 57 -58 l 54 -60 q 21 -47 46 -60 l 19 -44 l 17 -46 q 10 -42 15 -46 q 3 -39 6 -39 q -6 -37 0 -39 q -13 -32 -12 -36 q -15 -24 -14 -28 q -21 -19 -17 -19 l -22 -21 q -24 -18 -22 -18 l -26 -24 l -32 -18 q -31 -17 -32 -17 q -33 -12 -32 -14 q -35 -11 -33 -11 q -43 -6 -37 -11 q -48 13 -43 13 q -53 13 -53 13 q -55 16 -54 14 q -57 19 -56 18 l -54 21 l -56 21 l -54 22 l -57 22 q -55 24 -56 24 q -54 28 -54 25 q -58 40 -54 36 l -58 32 q -60 38 -60 35 q -62 42 -61 42 q -67 76 -67 58 q -26 193 -67 136 q 63 297 15 250 l 135 376 q 128 382 135 381 q 117 386 122 383 l 115 386 l 117 390 q 115 394 117 394 l 117 396 q 114 399 117 397 q 108 400 111 400 q 106 402 106 400 q 104 407 106 404 l 106 413 q 103 415 106 414 q 97 417 101 415 l 100 419 l 93 421 q 95 427 94 425 q 99 430 96 429 q 101 432 101 431 l 97 432 l 104 440 q 99 442 99 440 q 98 444 99 443 q 96 444 97 444 l 99 450 l 97 458 q 99 460 97 460 l 97 461 l 99 465 q 225 527 110 503 q 454 551 340 551 q 626 517 593 551 q 635 512 628 515 q 642 506 642 508 q 647 501 642 504 q 653 494 653 497 q 663 480 661 485 q 665 473 665 475 q 667 471 665 471 q 678 425 678 454 l 676 425 q 674 422 674 424 l 676 422 l 675 418 q 674 408 675 410 q 674 405 674 406 q 672 404 674 404 q 619 322 658 357 q 536 261 579 288 q 646 204 618 222 q 675 179 667 190 q 683 170 678 174 q 689 161 688 167 q 692 155 690 156 q 694 152 694 154 q 694 149 693 150 l 693 143 l 696 139 l 696 143 l 699 142 q 699 134 699 135 q 701 128 700 133 l 700 117 l 701 107 q 701 102 701 103 q 699 101 700 101 l 700 89 q 698 88 699 89 q 697 82 697 86 q 694 78 697 78 l 693 79 l 694 76 q 693 77 693 76 q 690 78 693 78 l 693 76 q 689 72 689 76 q 685 62 689 67 q 681 54 681 57 l 682 53 q 671 43 682 49 q 664 39 664 40 l 667 36 q 635 19 667 31 l 625 15 l 638 18 l 622 13 l 622 15 q 619 14 622 14 l 621 13 q 322 -50 463 -35 q 135 -65 182 -65 l 122 -67 m 376 7 l 450 21 q 596 53 524 31 l 593 53 l 583 51 q 457 24 544 40 q 376 7 399 14 m 540 33 l 543 35 l 536 33 l 540 33 m 529 31 l 533 32 q 522 31 525 32 l 529 31 m 160 -8 q 378 19 260 0 q 567 58 496 38 l 449 38 q 144 -7 290 4 l 140 -6 q 110 -7 140 -7 q 160 -8 113 -8 m 38 100 l 40 104 l 39 106 l 40 108 l 38 118 l 40 117 q 42 119 42 117 q 43 131 42 121 q 32 107 35 122 l 33 108 l 33 103 l 35 106 q 38 103 35 103 l 38 100 m 26 114 q 27 119 26 115 q 30 123 28 122 q 33 125 32 124 l 32 125 l 36 135 l 38 133 l 39 138 l 44 150 q 33 132 38 139 q 25 115 28 125 l 25 114 l 26 114 m 64 119 q 108 179 88 149 q 84 149 104 178 q 64 119 64 121 m 46 121 q 52 126 50 122 q 56 134 54 131 q 60 140 58 138 l 58 142 q 64 150 64 144 l 61 147 q 107 203 81 179 l 106 204 l 103 203 l 100 204 q 99 201 100 201 q 96 197 97 200 q 92 193 94 193 l 93 192 l 92 192 l 58 151 l 94 197 l 103 208 q 76 178 89 194 l 74 174 q 68 167 68 174 l 53 143 l 54 147 q 49 138 50 143 q 44 128 47 133 l 46 125 q 53 135 47 132 q 49 128 53 133 q 46 121 46 124 m 29 111 q 33 118 31 115 q 38 131 35 121 l 28 113 q 29 111 29 113 m 49 115 q 51 117 50 117 q 53 119 53 118 q 54 122 54 121 q 51 118 53 118 q 49 118 50 118 l 49 115 m 271 26 l 265 26 l 271 26 m 283 28 l 290 31 l 274 28 l 283 28 m 292 31 q 292 31 292 31 m 342 40 l 361 43 q 506 67 460 57 q 515 67 510 67 q 519 69 519 67 l 518 69 q 361 43 467 63 l 342 40 m 500 71 l 511 72 l 510 74 l 500 71 m 511 74 q 563 83 536 74 q 529 78 547 82 l 511 74 m 540 90 q 544 93 544 90 l 538 90 l 540 90 m 164 21 q 179 24 176 22 q 385 51 225 24 q 553 89 538 78 l 553 90 l 550 90 l 549 93 l 547 93 q 546 92 546 93 q 544 91 546 92 q 542 89 543 90 l 535 90 q 493 83 518 90 q 469 78 481 79 l 467 78 l 467 76 l 464 78 l 464 76 l 451 75 q 439 72 451 72 l 432 71 l 429 69 l 429 71 q 428 72 429 72 l 425 69 l 347 56 q 232 40 269 43 l 232 39 l 225 38 q 224 39 225 39 l 219 39 l 221 38 l 207 38 l 207 36 l 200 36 l 200 35 l 197 38 l 197 35 l 196 36 l 178 35 l 178 33 l 176 35 l 174 33 l 174 35 l 172 35 l 172 33 l 164 35 q 160 34 161 35 q 157 32 158 33 q 151 33 156 33 l 128 33 l 119 32 l 118 31 l 117 32 l 118 32 l 117 33 q 110 32 110 33 q 113 31 113 32 l 107 32 l 104 31 l 104 33 q 101 31 104 32 q 81 31 97 31 l 96 28 l 104 28 l 110 26 l 83 28 q 93 25 83 26 l 76 24 q 85 22 76 22 q 108 21 94 21 l 164 21 m 492 281 l 494 282 q 496 283 496 282 l 492 281 m 501 286 q 507 288 506 288 q 515 294 508 289 q 501 286 513 294 m 500 292 l 506 294 l 500 292 m 519 297 l 529 303 l 528 303 q 519 297 525 303 m 519 103 l 525 104 q 528 106 528 104 l 518 104 l 519 103 m 536 308 l 542 311 l 536 308 m 508 297 l 517 301 l 547 321 q 526 310 538 317 l 515 303 l 517 303 l 508 297 m 551 324 q 557 327 554 324 q 564 333 560 331 l 550 324 l 551 324 m 567 335 l 571 339 l 569 338 q 567 335 567 336 m 568 349 l 574 353 l 572 353 q 568 349 569 353 m 471 283 l 492 293 q 508 299 496 299 l 510 300 l 508 300 l 515 304 l 513 304 q 514 306 513 306 l 526 313 q 575 347 557 331 l 575 346 l 579 347 l 578 349 l 576 347 q 578 350 576 349 q 581 351 579 351 l 581 349 l 583 351 l 582 353 q 584 356 583 354 q 585 357 585 357 q 587 358 586 357 q 589 360 588 360 q 576 354 581 360 q 561 343 572 349 l 563 346 l 560 344 q 557 340 557 342 q 548 335 551 335 q 544 333 544 335 q 541 331 544 332 q 530 325 538 329 q 517 315 522 321 q 513 313 513 315 q 510 311 513 311 q 507 310 507 311 q 505 308 507 308 q 499 304 503 307 l 500 303 l 518 315 l 526 319 l 553 338 q 534 322 549 329 q 517 313 519 314 q 471 283 515 311 m 435 303 l 446 308 q 536 361 469 313 q 544 367 540 361 q 553 374 547 372 l 551 375 q 536 364 543 371 q 533 362 535 364 q 531 360 532 360 q 451 313 508 344 l 435 303 m 447 325 l 446 326 l 446 325 q 455 328 449 325 q 467 334 461 331 q 475 340 472 338 l 447 325 m 479 343 q 488 347 483 344 q 496 352 492 349 q 503 357 500 356 l 479 343 m 457 347 l 457 349 l 465 353 l 458 349 q 482 364 469 349 l 483 364 l 482 363 q 506 376 485 363 q 526 393 526 390 q 488 369 522 393 l 454 347 l 457 347 m 274 307 q 301 315 293 311 q 322 325 308 319 q 349 335 325 325 q 458 389 414 360 q 476 401 476 399 q 474 403 476 403 q 454 404 472 404 q 365 399 404 403 q 311 343 347 372 q 274 307 289 324 m 121 81 q 215 88 157 81 q 333 103 274 94 q 432 120 392 113 q 472 131 472 128 q 386 154 439 144 q 372 157 374 157 q 369 158 369 157 q 368 158 369 158 q 365 160 367 158 q 362 161 364 161 q 360 168 360 161 l 354 171 q 283 149 347 171 l 272 144 l 271 146 l 271 144 q 266 144 267 144 q 260 142 265 143 l 260 140 l 258 142 q 246 139 257 142 q 216 133 235 136 q 179 129 197 129 q 150 136 164 129 l 153 138 q 138 142 153 139 q 128 146 128 144 l 126 149 l 126 147 l 119 139 q 86 88 100 115 q 121 81 90 81 m 158 271 q 210 308 182 271 l 217 318 l 213 317 l 218 322 l 231 338 l 231 339 q 235 342 232 339 q 241 348 238 344 q 246 356 244 351 l 208 321 l 211 325 q 200 315 210 325 q 189 303 190 306 l 201 314 l 158 271 m 11 136 l 15 142 q 201 356 25 164 l 188 342 l 200 357 l 186 344 q 172 330 172 331 q 169 326 172 329 q 166 322 167 322 q 151 308 165 321 q 11 136 47 206 m 29 185 q 186 358 104 275 q 190 363 186 360 q 197 372 193 367 q 138 313 174 350 q 70 239 101 275 q 29 185 39 203 m -12 147 q 51 236 7 185 q 60 246 58 244 q 63 249 63 247 q 74 263 64 251 l 74 261 q 77 266 75 263 q 81 269 79 269 l 82 269 l 82 271 q 84 274 82 272 q 89 276 86 276 q 125 317 93 285 l 138 331 q 154 346 151 346 q 160 353 154 350 l 161 354 q 164 357 163 357 l 164 358 l 172 368 q 143 342 169 368 q 22 206 74 271 q -12 147 -8 165 m 122 -37 q 345 -15 200 -37 q 608 39 490 7 l 611 40 l 610 42 q 603 39 606 42 l 547 26 q 488 14 490 14 q 482 13 486 14 q 472 11 478 11 l 469 11 q 419 1 469 8 q 353 -11 369 -7 l 318 -17 q 133 -33 215 -33 l 72 -29 l 122 -37 z "},"c":{"ha":651,"x_min":-62,"x_max":749,"o":"m 225 354 q 246 368 243 368 l 225 354 m 190 -83 l 172 -83 q 77 -69 104 -79 q 39 -49 50 -58 q 13 -33 28 -39 q 22 -42 19 -40 q 32 -50 24 -43 l 17 -40 l 17 -43 q 0 -32 7 -39 q -9 -22 -7 -25 q -12 -17 -11 -18 l -11 -15 l -14 -15 l -12 -14 l -15 -14 l -14 -12 l -17 -12 l -15 -11 l -17 -11 l -17 -10 q -19 -6 -18 -7 l -21 -6 l -22 -4 l -24 0 l -26 0 l -28 -1 l -26 1 l -29 0 l -29 -1 q -62 90 -62 31 q -57 121 -62 107 l -50 149 l -51 151 q -47 162 -51 154 q -42 179 -43 169 l -54 154 q -40 190 -54 158 q 21 288 -22 238 q 75 347 39 317 q 78 352 75 350 q 83 354 81 354 l 85 357 l 86 357 q 90 361 86 361 q 179 435 163 424 l 126 396 q 134 404 129 400 q 144 413 139 408 q 153 419 149 417 q 159 424 157 422 q 163 427 161 426 q 167 428 165 428 q 169 431 168 429 q 172 433 169 432 q 175 438 174 433 l 178 436 l 179 439 l 179 436 q 181 438 181 438 q 182 440 182 439 l 186 442 l 185 443 l 188 446 l 189 446 q 191 448 190 447 q 193 449 192 449 q 197 450 194 450 q 200 453 200 450 l 197 451 q 199 453 199 453 q 200 454 200 453 l 203 453 q 206 457 203 456 l 206 456 l 208 456 q 252 487 208 461 q 361 537 296 513 q 490 561 426 561 q 576 539 550 561 q 588 535 582 538 l 592 531 q 629 446 629 501 q 622 386 629 407 l 622 385 l 624 386 l 622 376 l 621 376 l 613 356 q 584 306 604 335 q 529 249 564 276 q 522 244 525 244 l 522 246 q 490 231 507 236 l 485 232 l 483 231 q 477 233 478 231 q 476 236 476 235 l 463 233 q 454 235 460 235 l 453 240 l 454 240 l 456 243 l 450 242 l 444 249 l 436 247 l 436 249 q 433 250 435 249 q 431 254 432 251 q 431 260 431 257 l 429 258 l 424 258 l 424 261 q 422 263 422 261 l 421 263 l 421 264 q 419 265 421 265 l 418 265 l 418 267 q 435 285 418 268 q 447 296 447 294 l 419 276 l 418 278 l 426 289 q 422 288 422 289 q 421 285 421 286 l 417 285 l 417 292 l 414 292 l 417 299 q 410 313 410 299 q 447 363 421 338 q 471 388 461 376 q 481 410 481 400 l 481 413 l 476 413 q 233 296 349 388 q 89 115 117 204 q 83 100 83 107 q 183 67 83 67 q 337 83 246 67 q 529 133 428 100 q 595 154 533 136 q 675 172 657 172 q 678 171 675 171 q 685 169 681 171 q 697 169 696 169 q 699 167 697 168 l 701 167 q 710 163 710 167 l 707 158 q 719 157 711 157 l 717 154 l 719 151 l 724 151 q 725 150 725 151 l 725 147 q 725 145 725 146 q 726 144 725 144 l 731 146 l 724 142 l 726 142 l 721 139 l 724 139 l 721 136 l 721 135 l 735 139 q 735 135 735 136 q 738 133 736 135 l 739 133 l 740 131 l 743 131 l 740 128 l 742 128 l 739 124 l 740 124 l 739 122 l 746 124 l 743 122 l 744 122 l 742 118 l 747 121 l 746 111 l 747 111 l 744 108 l 744 107 l 746 107 l 744 104 l 747 104 l 746 101 l 749 100 l 744 96 l 744 90 l 740 78 l 742 75 q 738 65 742 71 q 731 54 735 60 q 723 46 726 49 q 718 40 719 43 l 718 39 l 717 39 l 717 40 l 717 39 q 714 36 715 38 q 712 33 713 35 q 710 32 711 32 q 674 18 701 26 q 572 -11 614 -1 q 334 -67 408 -56 q 258 -78 260 -78 q 257 -79 257 -78 l 256 -78 l 256 -79 l 254 -79 l 254 -76 l 251 -78 l 251 -79 l 249 -79 l 249 -78 l 246 -79 l 243 -78 l 242 -81 l 240 -78 l 239 -81 l 238 -81 q 217 -83 231 -82 q 190 -83 204 -83 m 238 7 l 253 11 l 300 18 q 383 38 378 29 l 396 40 l 397 39 l 383 35 q 399 36 389 36 l 406 40 l 404 42 l 399 39 l 401 42 l 400 42 l 400 43 l 401 42 l 408 42 l 407 40 l 429 47 l 429 46 l 426 46 l 425 44 l 431 44 q 436 47 433 46 q 439 49 439 47 l 432 47 q 454 53 443 53 q 474 58 465 54 l 474 60 l 465 58 l 503 69 l 472 64 l 481 67 l 463 64 l 463 65 l 461 65 l 461 64 l 451 61 q 447 59 451 60 q 429 56 442 58 q 428 54 429 54 l 426 54 q 407 51 417 54 l 413 51 l 400 49 l 403 51 l 400 51 l 390 47 l 390 46 l 385 47 l 376 46 l 369 46 q 365 44 368 44 q 357 40 363 43 l 360 40 l 357 39 q 347 35 354 38 q 326 33 339 33 l 331 35 q 335 36 333 36 q 349 39 338 36 l 310 33 l 318 33 q 316 32 318 32 q 309 31 314 32 q 299 28 304 29 q 293 28 294 28 l 294 29 q 289 28 290 29 l 288 29 l 285 28 q 183 18 232 18 q 124 21 138 18 l 115 21 l 147 15 l 115 18 l 113 17 l 125 15 q 153 11 136 13 q 188 10 171 10 l 188 8 l 192 11 l 204 11 q 375 35 249 11 l 324 24 q 280 16 301 19 q 246 13 258 13 q 244 11 246 11 l 238 11 l 236 8 l 238 7 m 372 -11 q 500 19 442 3 l 468 13 q 375 -8 425 1 l 369 -10 l 372 -11 m 178 -25 q 321 -8 222 -25 q 476 28 419 8 l 465 26 l 478 29 q 453 24 469 29 q 219 -18 417 10 l 214 -18 q 215 -19 214 -19 q 218 -21 217 -19 l 164 -21 l 165 -19 q 163 -22 164 -21 q 160 -22 163 -22 q 157 -22 158 -22 q 178 -25 157 -25 m 225 1 q 276 7 250 3 l 296 10 l 292 10 q 238 4 260 10 l 214 1 l 225 1 m 233 7 l 235 10 l 226 8 l 229 8 q 233 7 233 8 m 297 11 l 390 29 q 297 11 371 29 m 396 31 q 408 32 401 32 q 420 33 414 32 q 431 38 426 35 q 419 36 426 38 q 405 33 411 35 q 396 31 399 32 m 65 183 l 81 210 l 79 210 q 82 214 79 211 q 86 217 85 217 q 84 213 86 215 q 82 210 82 211 q 208 335 132 278 l 214 339 q 297 399 263 375 l 332 421 q 226 360 292 407 q 99 240 161 313 q 74 203 83 221 q 65 183 65 185 m 174 326 l 183 333 q 174 326 182 333 m 225 371 l 283 410 l 282 410 l 264 399 l 225 371 m 282 403 q 284 404 283 404 q 285 405 285 404 q 286 407 286 406 l 281 404 l 282 403 m 261 392 l 269 396 l 268 396 l 265 394 q 261 392 261 393 m 293 406 l 303 411 l 301 411 q 293 406 293 407 m 338 419 l 343 422 l 338 419 m 315 410 l 328 414 q 325 414 326 414 q 320 413 324 414 q 315 410 317 411 m 189 300 q 193 303 192 300 l 192 303 q 235 338 192 306 q 347 406 278 369 q 186 300 257 365 l 189 300 m 342 425 q 344 426 343 425 q 346 428 344 426 l 342 425 m 336 475 l 342 476 q 338 478 340 478 l 336 478 l 336 475 m 14 192 l 17 199 q 183 381 82 311 q 325 469 285 451 l 335 475 q 167 373 239 433 q 54 259 94 313 q 14 192 14 206 m 81 297 q 88 303 88 301 q 92 308 89 304 l 81 297 m 106 324 q 118 333 107 324 l 132 347 l 106 324 m 135 350 q 165 375 144 360 q 206 405 186 390 q 236 426 226 419 q 199 402 233 426 q 157 369 165 378 q 135 350 135 353 m 246 432 l 276 450 l 246 432 m 246 443 l 254 449 q 246 443 249 447 m -24 144 q -22 149 -22 146 q -19 156 -21 153 q -17 163 -18 158 q 32 253 -15 182 l 42 264 q 160 383 111 347 l 161 386 l 163 386 l 161 385 q 171 392 164 385 q 174 394 171 393 l 174 393 q 185 403 175 397 q 197 411 194 410 q 213 422 210 422 l 214 422 l 214 424 q 217 426 214 425 q 222 428 221 428 l 219 428 l 225 432 l 225 431 l 244 443 l 242 442 q 248 447 246 444 q 259 452 250 449 q 268 457 268 456 l 268 458 l 269 458 q 274 459 271 458 q 281 464 276 460 q 329 490 294 474 q 115 350 225 449 q -24 144 4 251 m 7 4 q 3 9 7 7 q -1 14 0 11 l -3 14 l -6 22 l -7 22 l -12 28 l -14 26 q -9 19 -14 22 q -4 13 -4 15 q 7 4 -4 10 m 7 150 l 10 157 q 56 240 31 207 q 94 285 82 274 q 99 289 99 288 q 115 304 115 301 l 114 304 l 119 308 l 117 307 q 119 308 118 307 q 121 311 119 310 l 122 311 l 121 308 q 124 313 124 311 q 128 317 125 314 q 138 325 132 321 q 158 347 158 346 q 160 346 160 347 q 167 349 167 346 q 169 353 168 351 l 168 353 l 169 356 q 175 360 171 357 q 181 364 179 364 l 181 363 l 183 364 l 182 365 l 192 372 l 190 369 q 194 372 193 371 q 195 374 194 372 q 199 377 196 375 q 213 388 203 379 l 214 388 l 214 389 q 223 396 214 390 q 244 410 232 401 q 271 426 257 418 l 313 453 q 158 350 228 411 q 65 255 99 299 q 19 183 32 211 q 7 150 7 154 m 178 -36 l 221 -35 q 235 -33 222 -33 l 300 -24 l 275 -25 q 171 -33 231 -33 q 83 -21 125 -33 q 105 -29 83 -22 q 178 -36 126 -36 m 181 -53 q 547 15 311 -53 l 508 7 q 201 -49 292 -49 l 174 -49 l 92 -39 l 89 -37 l 88 -39 l 181 -53 m 168 307 q 211 343 181 321 l 168 307 z "},"d":{"ha":621,"x_min":-112,"x_max":646,"o":"m 522 278 q 525 282 522 279 q 531 285 528 285 l 531 286 l 522 278 m 563 318 q 568 326 564 321 q 574 338 572 331 l 576 339 q 570 327 576 336 q 563 318 564 318 m 290 72 q 292 74 290 74 q 296 75 294 75 l 290 72 m 253 44 l 256 46 l 253 44 m 279 64 q 281 66 279 65 q 283 68 282 67 q 282 65 283 67 l 279 64 m 374 136 q 375 138 375 136 l 374 136 m -36 -185 l -33 -182 l -32 -182 l -32 -181 l -49 -182 l -53 -181 l -54 -182 q -59 -181 -56 -181 q -64 -179 -62 -181 l -65 -179 q -69 -174 -67 -178 q -74 -171 -71 -171 q -76 -169 -76 -171 l -78 -165 l -79 -165 l -81 -162 l -85 -162 q -92 -159 -92 -162 q -94 -154 -93 -156 l -92 -153 l -93 -151 l -92 -149 l -93 -149 q -97 -147 -97 -149 l -99 -147 l -94 -144 l -97 -143 l -96 -142 l -106 -142 l -97 -135 l -97 -132 q -107 -131 -107 -132 q -104 -127 -107 -129 q -94 -119 -101 -125 l -110 -124 l -107 -119 l -107 -110 q -111 -108 -107 -108 l -111 -100 l -112 -97 l -111 -96 l -112 -96 l -112 -92 l -106 -85 q -103 -73 -106 -76 q -98 -67 -100 -69 q -94 -64 -96 -65 l -93 -62 l -96 -62 l -94 -61 q -87 -57 -93 -60 q -75 -46 -87 -51 q -50 -32 -62 -40 q 144 89 49 26 q 364 254 240 151 l 367 256 l 365 258 q 378 267 369 258 l 397 285 q 493 403 469 350 l 493 400 l 494 401 l 496 414 q 479 433 496 425 q 389 449 429 449 q 342 447 356 449 q 318 444 328 444 l 314 442 l 314 443 l 308 442 l 307 443 q 269 432 294 438 l 226 422 q 231 407 226 415 q 232 401 231 403 l 231 381 q 232 376 231 376 l 231 374 l 232 372 l 232 375 l 235 365 q 194 278 235 349 q 108 136 153 208 q 54 44 72 78 l 49 31 l 49 33 l 47 32 q 32 21 39 32 q 25 15 26 15 l 25 14 l 18 11 l 10 11 l 8 13 l 1 13 l -6 7 l -8 11 l -15 11 l -15 13 q -18 14 -18 13 l -18 15 l -29 14 q -35 16 -32 14 q -40 21 -39 18 l -40 24 l -43 24 q -53 30 -53 24 q -56 36 -53 36 q -57 42 -56 39 q -59 46 -58 44 q -61 47 -60 47 l -61 54 l -62 58 l -67 58 q -75 75 -72 58 l -74 90 l -76 90 q -75 97 -75 93 q -65 127 -67 125 q -63 130 -64 129 q -61 131 -62 131 l -61 132 l -62 132 l -61 135 l -60 135 l -60 139 q 26 289 -35 196 q 54 338 54 332 q 53 341 54 340 q 50 342 51 342 q 48 344 49 343 q 46 347 47 344 q 41 348 43 347 q 37 351 39 349 q 32 355 35 353 q 26 362 29 357 q 19 368 24 367 q 13 382 13 376 l 13 393 l 8 399 q 4 408 4 403 q 3 415 4 414 l 3 428 q 59 503 17 476 q 147 549 101 531 l 160 554 q 385 599 281 599 q 567 553 506 599 l 589 538 l 593 531 q 611 515 600 524 q 628 482 619 504 l 640 457 q 644 439 640 447 l 643 438 l 643 428 q 644 422 644 428 q 646 408 644 417 l 643 394 q 493 172 643 313 q 338 46 446 129 q -36 -185 33 -185 m 593 422 q 596 428 596 422 q 597 435 596 433 l 594 438 l 594 431 l 593 432 l 593 422 m 528 361 l 531 367 q 528 361 528 364 m 526 329 l 528 332 q 542 356 538 343 l 536 346 q 525 331 529 335 q 526 329 525 329 m 164 28 l 172 32 q 321 139 210 54 q 522 324 471 250 l 521 326 l 518 322 q 514 317 514 319 q 390 196 458 251 q 364 176 365 176 q 358 172 363 175 q 353 168 354 168 q 339 154 350 164 q 335 153 336 153 q 331 151 333 153 q 327 148 328 149 q 326 147 326 147 q 325 146 325 147 q 219 67 299 124 l 164 28 m 478 244 q 486 254 485 249 q 482 249 486 253 q 478 244 478 246 m 451 221 q 476 244 476 240 l 451 221 m 454 219 l 457 221 l 454 219 m 426 196 q 428 197 426 197 q 429 200 429 197 l 425 196 l 426 196 m 350 135 l 424 194 q 413 188 421 194 q 378 158 406 181 q 350 135 350 136 m 408 178 l 421 188 l 408 178 m 400 169 q 403 172 403 171 q 406 175 403 174 l 403 174 q 400 169 400 172 m 388 161 q 392 163 389 163 q 397 165 394 164 q 399 169 399 167 q 392 166 393 167 q 388 161 392 165 m 379 153 l 379 154 q 381 156 379 156 l 382 156 l 386 160 q 380 156 381 158 q 376 153 379 154 l 379 153 m 365 143 q 372 149 368 143 l 365 143 m 342 129 l 347 132 l 344 132 l 342 129 m 335 119 q 340 124 340 119 q 333 119 336 124 l 335 119 m 338 125 l 340 128 l 336 125 l 338 125 m 319 108 l 322 110 l 324 110 q 325 113 325 111 l 319 108 m 310 104 q 314 106 313 104 q 318 110 315 108 q 313 108 317 110 q 310 104 310 106 m 267 72 l 310 104 q 297 96 304 101 q 281 84 289 90 q 267 72 272 78 m 239 53 q 253 63 242 56 q 265 72 265 71 l 238 53 l 239 53 m 229 44 l 231 46 q 233 49 231 47 q 238 51 235 50 l 236 53 l 226 46 l 229 44 m 211 33 q 226 44 226 42 q 217 39 224 43 q 211 33 211 35 m 204 28 l 206 29 l 204 28 m 147 29 q 425 242 307 135 l 424 242 l 425 243 q 421 240 421 242 q 418 238 421 238 q 385 210 418 236 l 374 200 q 339 172 347 178 q 325 161 325 164 l 326 161 q 204 71 325 158 q 147 29 147 31 m 158 22 q 160 24 158 24 q 163 26 161 25 q 160 25 161 26 q 158 22 158 24 m 426 244 q 447 264 443 256 l 426 244 m 449 264 q 451 265 450 265 q 453 267 453 265 q 454 269 454 268 q 450 266 451 267 q 449 264 449 265 m 456 272 q 460 274 457 272 q 463 278 463 276 q 458 276 461 278 q 456 272 456 274 m 464 279 q 469 283 465 281 q 472 289 472 286 l 464 279 m 499 319 l 501 322 l 500 322 l 499 319 m 135 43 q 153 53 146 50 q 153 55 153 54 q 156 56 154 56 q 176 69 165 60 q 194 81 188 78 l 197 83 q 202 86 200 86 q 204 88 204 86 l 204 88 q 210 92 207 90 q 214 94 214 93 l 214 96 q 238 113 221 99 q 257 127 254 126 q 272 138 260 128 l 349 196 q 510 358 482 303 l 497 340 l 497 343 l 496 342 q 345 199 432 267 q 174 71 258 131 l 135 43 m 111 26 l 117 31 q 111 26 114 31 m 225 19 q 239 29 232 22 l 225 19 m 244 33 l 257 42 q 464 206 444 181 q 244 33 367 119 m 317 79 l 321 82 q 317 79 319 82 m 322 83 q 331 89 325 85 q 344 98 338 93 q 354 107 350 103 l 358 110 l 357 110 q 351 105 356 108 q 339 97 346 101 q 328 88 332 92 l 322 83 m 363 114 l 400 143 q 382 130 397 143 q 363 114 367 117 m 408 151 l 424 163 l 422 163 q 415 158 419 161 q 408 151 411 154 m 432 169 q 519 251 486 215 q 551 289 551 288 q 540 278 550 289 q 457 193 518 249 l 432 169 m 500 239 l 501 240 q 503 242 501 242 q 500 240 501 242 l 500 239 m 507 247 l 511 251 l 507 247 m 583 342 l 586 346 q 585 343 586 344 q 583 342 585 342 m 88 -65 q 192 3 142 -32 q 165 -17 189 -3 l 142 -33 q 285 65 215 14 q 400 153 354 117 q 449 196 446 190 q 456 199 451 196 q 464 208 460 203 q 468 214 468 213 l 469 213 l 474 218 l 474 217 q 485 228 475 221 q 532 276 503 242 q 538 285 532 279 q 553 303 543 290 l 554 301 l 554 306 l 557 307 l 558 310 l 558 311 q 586 354 563 311 q 600 403 600 386 q 603 411 600 410 l 603 433 l 599 446 l 599 442 l 596 443 l 599 439 l 596 439 q 600 436 597 436 q 599 417 599 431 l 599 418 q 597 422 597 418 l 593 414 l 594 413 l 597 417 l 597 411 l 596 406 q 594 404 594 406 l 594 397 l 596 397 l 596 393 l 597 393 l 597 392 l 594 393 l 594 396 l 593 396 l 593 392 l 596 390 l 596 388 l 592 390 l 588 379 q 582 367 583 372 q 580 360 581 363 q 578 354 579 358 l 576 354 l 575 351 l 574 351 q 567 338 572 343 q 565 336 565 338 q 563 333 564 335 l 560 328 q 506 263 554 317 q 338 117 457 208 q 325 106 325 106 l 324 104 q 317 99 321 101 q 312 96 314 97 q 308 93 310 94 q 304 90 307 92 q 300 88 301 88 l 289 81 q 274 68 281 75 l 275 68 l 267 64 l 267 61 q 260 60 263 61 q 258 58 258 58 q 256 56 257 57 q 253 53 256 54 q 249 49 251 51 l 249 51 l 246 49 q 242 44 243 44 q 239 43 240 44 l 240 43 l 238 42 l 238 43 q 228 36 232 39 q 218 28 224 33 l 204 17 l 206 17 l 197 13 l 197 11 l 199 11 l 197 11 l 193 7 l 192 7 l 88 -65 m 608 454 q 604 461 606 458 q 603 467 603 464 l 601 465 q 603 458 603 461 q 607 454 603 456 l 608 454 m 606 403 l 606 406 l 606 403 m 606 421 l 607 422 l 607 425 l 604 422 l 606 421 m 604 376 q 607 381 607 376 l 606 381 l 606 378 l 604 376 m 226 26 q 232 31 228 29 l 236 33 q 233 29 236 32 q 226 26 229 26 m 218 19 l 225 25 l 218 19 z "},"e":{"ha":574,"x_min":-112,"x_max":571,"o":"m 161 -42 q 7 -8 51 -42 l -3 1 q -7 7 -7 1 l -8 7 l -10 7 l -10 10 l -11 8 q -15 10 -12 10 q -22 17 -18 11 q -30 29 -26 24 q -35 38 -33 35 q -37 40 -36 40 l -37 36 q -39 38 -39 36 l -43 38 l -42 39 q -44 41 -43 39 q -47 46 -46 43 q -47 50 -47 49 l -44 46 l -43 49 l -40 47 q -43 53 -43 50 q -45 54 -43 54 q -47 57 -47 54 l -49 56 l -47 53 l -50 53 l -50 54 q -51 56 -50 56 l -50 57 l -54 65 l -53 68 l -54 68 l -53 69 l -53 74 l -54 75 l -56 72 l -60 114 q -53 163 -60 149 l -53 164 q -56 167 -53 167 q -61 169 -58 168 q -71 174 -71 169 q -78 178 -76 178 q -81 181 -79 179 l -83 181 l -79 182 l -83 186 l -87 186 l -89 188 l -86 193 q -90 195 -86 194 q -99 200 -94 196 q -101 203 -101 200 l -103 206 l -104 207 l -103 210 q -103 213 -103 213 q -106 214 -104 214 l -106 215 l -104 215 q -106 217 -106 217 q -108 218 -107 218 l -108 219 l -101 222 l -103 224 l -110 224 l -111 225 q -106 228 -108 226 q -102 230 -103 229 q -101 232 -101 231 l -103 233 l -110 233 l -111 235 q -110 237 -111 236 q -108 238 -110 238 q -104 240 -107 239 q -111 242 -110 240 q -112 247 -112 243 l -112 249 q -110 249 -111 249 q -108 251 -110 250 l -106 257 q -108 258 -107 257 q -109 259 -108 258 q -110 264 -110 260 l -110 267 l -107 267 l -110 272 l -108 272 q -107 274 -107 272 l -106 276 l -99 285 q -83 296 -96 290 q -79 297 -81 296 q -78 299 -78 297 l -81 297 q -67 301 -81 301 q -59 303 -62 303 q -55 305 -56 304 q 42 311 -54 306 l 43 313 q 46 317 43 314 q 58 331 49 321 l 68 339 q 113 379 79 350 l 133 397 q 218 464 150 413 q 404 583 311 544 q 406 585 404 585 q 410 586 407 585 l 413 586 q 411 585 413 585 q 407 583 410 585 l 404 582 l 421 586 l 414 586 l 432 589 l 432 588 l 435 590 l 456 592 q 486 586 485 592 l 492 585 l 490 583 q 499 578 493 581 q 510 572 506 576 q 517 565 515 568 q 522 560 518 563 q 535 543 535 554 l 535 542 q 549 513 544 528 l 547 513 l 547 510 q 549 507 549 508 q 550 506 549 506 l 550 503 l 547 506 l 546 504 l 551 496 l 550 496 l 549 489 l 550 481 l 551 481 l 549 479 l 550 475 q 542 447 550 469 q 536 434 539 439 q 533 422 533 429 l 532 424 q 526 411 526 418 q 526 410 526 410 q 524 409 525 410 q 521 408 522 408 q 519 404 519 407 l 521 403 l 521 406 l 522 404 q 521 402 522 403 q 518 400 519 401 q 515 399 517 399 l 515 397 l 518 397 q 515 392 518 393 q 510 389 511 392 l 511 389 q 508 382 511 386 q 496 367 497 369 q 488 360 494 365 l 486 361 q 483 359 485 360 q 478 358 481 358 q 471 354 475 357 l 469 356 l 474 360 l 467 356 l 476 365 l 460 351 l 471 365 q 465 361 469 365 q 435 333 438 335 l 429 333 l 428 335 l 422 335 l 421 338 l 406 336 q 405 338 406 338 q 403 340 404 339 q 400 342 403 342 l 401 346 l 397 344 l 397 346 q 395 348 396 347 q 393 349 394 349 q 390 350 392 350 q 388 351 389 350 l 386 351 l 385 354 l 386 363 l 385 363 q 380 365 381 363 q 376 368 379 368 q 383 376 376 371 l 378 376 l 383 385 l 379 382 l 378 385 q 379 388 378 388 l 379 390 l 381 394 l 379 394 q 371 391 376 394 q 359 383 365 388 q 349 374 353 378 q 342 371 344 371 q 271 318 340 371 q 267 314 267 317 l 336 314 q 383 306 383 314 l 382 303 q 389 301 389 303 q 390 297 389 299 l 392 297 q 396 297 394 297 q 399 294 397 296 q 407 289 400 292 q 425 276 425 282 q 426 269 425 271 q 435 265 433 267 q 438 256 436 263 l 433 256 q 432 253 432 256 q 438 252 436 253 q 439 250 439 251 l 439 240 q 440 238 439 239 q 442 236 440 238 l 438 235 l 440 235 l 440 232 q 438 224 439 228 q 435 218 436 219 q 426 208 428 211 l 426 207 l 425 207 l 422 204 q 406 194 410 196 q 402 192 403 193 q 401 190 401 192 q 401 188 401 189 q 397 188 400 188 l 394 188 l 394 186 l 396 186 l 394 185 l 390 185 q 386 182 386 182 l 385 179 q 383 176 383 176 q 381 174 382 175 l 382 174 q 364 172 376 172 q 240 169 293 169 q 107 158 119 168 q 94 132 107 153 q 88 119 88 122 q 113 108 88 113 l 179 106 q 349 122 265 106 l 425 132 q 506 143 492 140 q 513 138 513 143 q 531 133 513 133 q 539 129 538 131 q 540 126 540 128 l 544 126 q 536 121 544 125 q 538 119 536 119 q 547 119 544 119 q 549 117 549 118 l 547 117 l 549 115 l 547 114 l 553 115 l 556 114 l 551 108 l 556 110 l 554 107 l 557 108 l 556 107 l 558 107 l 556 103 l 557 103 l 557 103 q 554 101 556 101 q 553 99 553 100 l 564 101 l 564 100 q 566 98 565 99 q 569 97 567 97 l 568 94 l 571 94 l 565 88 l 568 89 l 564 85 l 567 86 l 567 88 l 571 88 l 568 83 l 571 83 l 569 65 l 554 35 l 556 35 q 549 25 556 32 l 540 17 q 533 11 535 17 l 539 11 q 529 3 539 10 q 497 -7 519 -3 q 348 -29 446 -17 q 161 -42 250 -42 m 131 314 l 143 321 l 142 321 q 143 324 142 324 q 158 335 144 325 q 161 339 158 339 l 164 339 l 161 339 l 178 353 l 176 350 q 180 351 178 350 q 182 354 182 353 l 181 354 q 183 357 181 357 q 186 360 186 357 q 189 363 186 363 q 194 365 192 363 q 197 368 196 368 q 211 378 199 368 q 233 396 233 394 q 235 397 233 397 l 235 396 q 243 403 238 397 l 240 403 q 244 406 242 403 q 247 411 247 408 q 251 414 251 411 q 180 360 231 401 q 129 314 129 319 l 131 314 m 189 336 l 192 338 q 204 347 199 342 l 251 385 q 189 336 218 363 m 225 360 l 229 363 q 226 362 228 363 q 225 360 225 361 m 181 329 q 185 331 183 331 q 188 333 186 331 q 181 329 185 333 m 171 315 l 206 343 q 187 330 203 343 q 171 315 171 317 m 190 315 q 197 319 193 315 l 249 360 q 278 385 278 383 l 229 349 q 226 347 226 349 q 225 346 226 346 l 192 318 q 190 317 190 318 l 190 315 m 322 421 l 325 425 l 319 421 l 322 421 m 181 314 q 192 319 189 314 l 190 319 l 315 417 l 272 388 l 274 388 l 268 385 l 265 386 l 267 385 q 264 383 265 385 q 255 377 263 381 q 244 368 247 374 l 244 369 q 235 361 238 363 q 230 358 232 360 q 225 356 228 356 l 225 354 q 213 346 221 354 q 208 340 210 342 q 204 338 207 339 q 201 335 201 336 q 200 335 201 335 q 197 333 199 335 q 194 330 196 331 q 185 322 192 329 l 186 322 q 179 317 186 317 l 182 319 q 180 318 181 319 q 178 315 179 317 l 181 314 m 111 314 l 114 315 q 272 443 190 382 l 307 469 q 199 389 288 458 q 111 314 111 319 m 117 325 q 121 328 118 325 q 124 332 124 331 q 119 329 122 331 q 117 325 117 328 m 146 351 q 174 374 158 360 l 188 386 q 167 370 186 386 q 146 351 147 354 m 208 401 q 211 403 210 403 q 214 407 213 404 q 210 403 211 404 q 208 401 208 403 m 89 313 q 92 315 92 314 q 94 317 93 317 q 96 319 96 317 q 190 397 96 322 l 272 465 q 200 413 243 446 q 122 349 157 379 q 88 314 88 319 l 89 313 m -25 153 l -21 161 l -24 161 q -25 157 -25 161 l -25 153 m -32 108 l -31 110 l -29 135 q -31 131 -31 135 q -33 121 -32 126 q -33 111 -33 115 q -32 108 -33 108 m -24 69 q -24 73 -24 71 q -28 75 -25 75 l -25 69 l -24 69 m -19 57 l -18 60 l -22 68 l -19 61 l -21 60 l -19 57 m -11 51 l -11 53 l -12 54 q -18 57 -15 57 q -15 54 -17 57 q -11 51 -14 51 m 182 49 l 197 50 l 183 50 l 278 58 q 268 60 278 60 l 269 60 q 274 61 272 60 l 282 61 q 289 63 286 63 q 293 64 292 63 q 232 61 263 64 q 129 57 196 58 l 132 56 l 110 56 l 107 54 l 107 56 l 103 56 q 108 53 103 53 l 108 51 q 103 53 104 51 l 101 53 q 111 50 101 51 q 182 49 121 49 m 285 60 q 286 61 286 60 l 279 60 l 285 60 m 258 8 l 250 10 l 239 8 l 258 8 m 218 6 q 227 7 218 7 q 238 8 236 7 l 218 7 l 214 8 q 213 7 214 7 q 208 7 213 7 q 211 6 208 6 l 217 7 q 218 6 217 6 m 158 15 q 271 24 182 15 l 276 24 l 265 25 q 228 24 253 25 q 180 20 203 22 q 146 18 157 18 q 158 15 146 15 m 167 39 q 244 43 211 40 q 276 47 276 46 l 146 40 l 167 39 m 260 53 l 257 54 q 250 53 250 54 l 260 53 m 257 10 l 274 11 l 276 13 l 272 13 l 271 11 l 269 13 l 257 10 m 42 140 q 45 145 43 140 q 47 157 47 150 l 46 161 l 44 161 l 44 149 q 43 151 43 149 q 42 156 43 154 l 40 151 q 39 146 39 149 l 40 144 q 42 140 42 143 m 39 154 l 40 156 q 40 158 42 158 l 39 154 m 7 25 q 6 28 7 26 q 1 31 4 31 q 3 27 3 29 q 7 25 3 25 m 19 15 q 15 19 19 17 l 15 18 q 16 16 15 17 q 19 15 17 15 m 21 106 q 19 108 21 108 l 19 110 q 18 108 18 110 l 18 107 q 19 108 19 107 l 21 106 m 203 -12 q 308 -1 258 -8 q 229 -6 265 -1 q 146 -10 193 -10 q 76 -3 110 -10 q 147 -12 103 -12 l 203 -12 m 313 65 q 311 67 313 67 l 308 67 l 308 65 l 313 65 z "},"f":{"ha":599,"x_min":-75,"x_max":821,"o":"m 217 285 q 225 296 224 296 l 217 285 m 192 250 q 197 260 196 257 q 204 268 199 263 l 192 250 m 207 269 l 206 271 q 210 276 207 272 q 214 281 213 281 q 207 272 207 274 q 207 269 207 271 m -6 -94 l -7 -94 l -7 -93 l -14 -92 l -12 -86 l -15 -89 l -17 -87 l -14 -83 l -17 -86 l 8 -42 q -22 -87 -12 -76 l -24 -82 l -26 -85 q -33 -87 -31 -87 q -36 -87 -35 -87 q -39 -85 -37 -86 q -40 -79 -40 -83 q -49 -76 -49 -79 l -47 -75 l -49 -75 l -49 -69 l -54 -75 l -56 -72 l -51 -61 q -53 -63 -53 -62 q -57 -64 -54 -64 q -53 -51 -57 -57 l -57 -57 l -57 -56 l -61 -57 q -64 -50 -64 -57 q -65 -43 -64 -43 q -65 -42 -65 -43 q -65 -40 -65 -42 l -68 -43 q -75 -24 -75 -43 q -67 17 -75 -8 q -26 100 -58 43 l -36 108 l -32 108 q -35 110 -32 110 q -40 113 -39 110 q -43 119 -40 115 l -42 122 q -44 126 -42 124 q -47 131 -46 129 q -48 134 -47 133 q -50 135 -49 135 q -49 136 -50 136 q -47 138 -47 136 q -47 140 -47 139 q -46 140 -47 140 q -44 142 -44 140 q -47 142 -46 142 q -49 144 -49 142 l -42 149 q -45 150 -43 150 q -47 153 -47 150 q -47 154 -47 154 q -44 156 -46 154 l -46 157 l -43 163 l -47 171 q -44 172 -44 171 q -44 174 -44 172 l -46 175 l -43 179 l -44 179 q -40 181 -43 181 q -37 185 -37 182 q -36 188 -37 188 q -34 192 -35 189 q -26 197 -33 194 q -3 206 -12 204 l -4 207 l 36 213 q 49 215 46 213 q 53 222 53 218 q 78 260 54 225 l 94 283 q 136 342 131 338 l 140 347 q 99 343 119 344 q 71 339 79 342 l 69 339 q 72 340 69 340 l 65 342 l 65 344 l 64 344 l 69 347 l 67 347 q 60 352 60 349 q 52 356 60 356 q 44 358 44 357 q 40 361 43 360 q 38 365 38 363 l 39 368 l 33 372 l 35 374 q 31 376 35 375 q 26 381 28 376 l 25 383 q 26 388 25 388 q 22 390 25 389 q 19 393 19 392 q 18 395 19 394 q 17 397 17 396 q 21 400 19 400 q 22 404 22 400 l 19 406 q 24 408 22 407 q 28 411 26 410 q 31 414 29 413 l 21 413 l 22 424 l 21 426 l 22 431 l 21 432 l 24 435 l 22 435 l 24 438 q 28 446 25 443 q 33 449 32 449 q 35 451 33 450 q 41 455 36 453 q 47 458 46 457 l 38 456 q 45 460 40 457 q 54 468 50 463 q 99 482 60 471 q 253 522 204 513 q 278 538 265 525 l 296 553 q 306 558 303 558 q 319 563 310 558 l 324 565 l 333 563 l 343 565 q 344 564 344 565 q 346 563 344 563 l 349 564 q 350 563 349 563 l 350 557 l 354 560 l 354 554 l 358 558 l 353 542 l 365 553 l 365 550 l 369 553 l 371 549 q 378 553 375 553 q 380 549 379 553 q 392 546 381 546 q 494 556 411 546 q 649 565 594 565 q 789 528 744 565 q 799 517 799 521 q 801 513 799 513 q 804 507 801 510 q 821 446 819 494 l 819 447 q 819 441 819 446 q 815 429 818 436 q 813 426 814 428 q 811 425 813 425 l 813 424 q 813 421 813 422 q 808 419 813 419 l 810 417 q 808 410 808 414 q 797 397 807 407 q 793 394 796 394 q 799 404 799 400 q 790 396 797 404 q 789 392 789 394 l 792 392 l 790 389 l 789 390 q 788 385 789 386 q 787 384 788 385 q 783 382 786 383 q 778 381 779 381 q 775 379 776 381 q 769 375 774 378 l 768 376 l 768 375 l 764 374 l 765 376 l 761 375 q 740 365 750 368 q 719 357 729 361 q 718 359 718 358 q 717 360 718 360 q 715 361 715 360 q 713 363 715 363 q 710 363 710 363 q 708 364 710 364 q 706 365 707 364 q 706 369 706 365 q 702 372 703 371 q 699 372 701 372 q 696 373 696 372 q 694 374 696 374 q 692 376 692 374 q 690 379 692 379 q 688 381 688 379 l 696 388 l 685 385 l 688 389 l 685 388 l 686 389 q 680 392 686 390 q 674 399 674 393 l 676 407 q 672 408 675 408 q 669 410 669 408 q 668 413 669 413 q 667 415 667 413 q 658 417 660 415 q 625 419 657 418 q 375 390 540 419 l 360 388 q 268 269 350 385 l 243 235 q 251 233 243 233 q 303 236 267 233 q 396 242 354 242 q 432 239 417 242 l 429 236 l 432 235 l 426 233 l 438 229 q 476 208 476 217 q 474 207 475 207 q 474 206 474 207 q 480 203 476 204 q 483 199 483 201 q 488 197 483 197 q 489 193 488 194 l 490 192 q 486 189 490 190 l 483 188 l 485 186 q 488 185 486 185 q 490 182 489 185 q 492 178 490 179 q 493 176 493 178 q 489 171 492 176 l 492 169 l 489 168 q 494 165 494 168 l 493 163 q 484 145 490 151 q 478 135 478 139 l 479 133 q 477 132 479 132 q 474 131 475 132 q 469 127 474 129 q 465 124 465 125 q 460 122 464 122 q 456 118 456 121 l 454 118 q 453 114 454 114 q 449 113 451 114 q 449 109 449 110 q 444 108 449 108 q 417 104 435 106 l 381 101 q 308 93 325 97 l 365 97 l 364 94 l 135 72 l 106 21 q 63 -52 82 -21 q 32 -83 43 -83 q 23 -87 26 -85 q 14 -90 19 -90 l 10 -89 q 3 -92 7 -90 q -6 -94 -1 -94 m 249 346 l 250 349 l 249 346 m 100 282 q 104 289 103 283 l 100 283 l 100 282 m 51 215 l 54 217 l 54 219 l 53 218 q 51 215 51 217 m 92 218 l 140 285 q 190 358 188 351 l 188 356 l 189 358 q 138 292 185 358 q 90 218 90 225 l 92 218 m 175 318 l 176 322 l 174 319 l 175 318 m 110 218 q 214 363 178 315 q 163 297 208 361 l 117 232 l 110 218 m 125 221 q 138 228 133 222 q 148 243 143 233 q 164 265 153 253 q 215 338 196 314 q 235 367 235 361 l 233 368 q 197 324 229 365 q 128 225 165 282 q 125 221 125 222 m 156 224 l 160 228 l 247 350 l 247 351 q 199 290 243 351 q 156 224 156 228 m 217 304 q 219 306 218 304 l 221 308 q 219 307 219 308 q 217 304 218 306 m 176 225 l 179 228 q 239 310 215 279 q 263 346 263 342 q 260 349 260 346 q 213 286 251 342 q 171 228 188 249 q 222 301 181 243 q 256 350 256 349 q 219 301 235 324 q 174 238 182 247 q 165 225 165 228 l 169 225 q 174 227 172 225 q 178 231 176 229 l 175 226 l 176 225 m 526 525 q 560 529 560 528 q 514 525 519 526 l 526 525 m 518 506 l 515 507 q 513 506 513 507 l 518 506 m 522 472 q 530 474 525 474 q 540 474 535 474 q 546 475 544 474 l 551 474 q 553 475 553 475 q 554 476 554 475 l 556 475 l 586 476 l 586 478 l 592 476 l 589 478 l 597 478 l 599 479 l 592 479 q 545 476 578 479 q 513 472 513 474 l 522 472 m 522 493 l 529 494 l 526 494 q 522 493 522 494 m 542 494 l 542 496 q 544 497 542 497 q 546 499 546 497 l 539 499 q 532 497 532 499 q 542 494 538 497 m 549 496 l 551 497 l 549 496 m 556 496 l 560 499 l 565 497 q 563 499 565 499 l 561 499 l 561 500 l 556 496 m 582 497 l 583 499 l 581 500 q 574 499 576 499 q 572 497 572 499 l 574 497 l 579 499 l 582 497 m 507 504 l 511 506 l 506 506 l 507 504 m 507 507 l 508 508 l 496 508 l 507 507 m 500 440 l 549 444 l 538 444 l 500 440 m 553 444 l 561 446 l 579 447 l 582 449 q 546 446 564 449 l 549 446 q 553 444 553 446 m 594 447 l 593 449 q 594 447 593 447 m 510 458 q 603 464 603 463 l 592 465 l 593 464 l 581 464 q 510 458 563 464 m 610 464 l 611 465 l 607 465 l 610 464 m 618 464 l 615 465 q 614 464 614 465 l 618 464 m 528 503 l 619 511 l 651 513 l 657 514 l 624 514 q 632 515 624 515 q 628 517 632 517 l 563 515 l 556 517 l 557 515 l 547 513 l 533 515 q 531 514 531 515 l 535 514 l 522 511 l 525 510 l 522 508 l 526 507 l 518 508 l 515 507 l 526 507 q 531 506 529 506 q 532 504 532 506 l 528 503 m 768 378 l 771 379 l 768 378 m 239 317 l 242 321 q 239 317 242 319 z "},"g":{"ha":788,"x_min":-81,"x_max":881,"o":"m 203 -62 q 71 -49 126 -62 l 71 -47 l 69 -47 l 69 -49 l 68 -46 l 67 -49 l 67 -47 q 65 -46 67 -46 l 64 -47 l 63 -46 l 63 -47 q 49 -44 57 -47 q 35 -40 42 -40 l 35 -39 q 24 -35 28 -39 q 13 -30 15 -32 q 10 -28 11 -28 l 4 -25 l 1 -25 q -12 -18 -10 -19 q -16 -14 -15 -17 q -18 -10 -17 -11 q -22 -10 -19 -10 l -24 -11 l -24 -8 q -35 -2 -28 -8 q -47 12 -42 4 q -53 22 -53 19 q -51 24 -51 22 l -49 24 l -49 25 q -51 26 -50 25 q -53 28 -51 28 l -53 29 l -50 26 l -56 38 q -68 62 -65 56 q -72 68 -71 68 l -71 72 l -72 72 l -72 76 l -74 76 l -74 72 l -76 78 l -74 78 q -76 78 -75 78 q -81 86 -78 79 q -74 144 -81 131 q -67 160 -71 154 q -63 169 -64 167 q -61 178 -62 171 l -60 181 l -64 175 q -62 182 -64 176 q -57 192 -60 188 q -53 199 -54 197 q 94 373 -1 296 q 243 483 189 450 q 265 500 265 499 q 263 501 264 500 q 263 503 263 501 l 265 503 l 263 507 q 264 508 264 507 q 265 510 264 508 q 266 514 265 513 q 269 517 267 515 l 271 517 q 267 518 268 517 l 267 522 l 268 522 l 267 522 l 267 524 l 265 524 l 265 525 l 268 528 l 267 531 q 275 540 271 535 q 281 547 279 544 q 286 551 282 550 q 295 554 290 553 q 303 557 300 556 l 304 557 l 303 558 l 306 557 l 306 558 l 307 557 q 332 561 310 561 l 394 560 q 422 562 414 560 q 439 565 431 564 q 457 565 447 565 l 456 564 q 493 557 476 564 q 640 564 560 557 q 788 571 719 571 l 788 569 q 790 568 790 569 l 800 568 l 801 565 q 800 563 801 564 q 796 563 799 563 l 801 560 l 839 560 l 839 558 q 851 556 844 557 q 859 552 857 554 q 863 549 861 550 q 860 545 863 546 q 856 543 858 544 q 847 540 853 542 l 860 542 q 864 540 863 540 q 865 539 865 540 l 861 536 q 874 535 874 536 l 864 531 l 869 531 l 876 526 l 857 521 l 875 521 q 876 519 875 519 q 881 518 878 519 l 879 515 l 878 515 l 875 513 l 881 510 l 876 507 l 881 507 q 878 503 881 506 q 875 496 875 500 l 876 493 l 867 483 l 868 482 l 865 478 q 856 470 861 474 q 847 466 851 467 q 840 465 843 465 q 838 463 838 464 l 843 463 l 843 460 q 839 458 843 458 q 817 453 835 458 l 822 450 q 752 433 822 440 q 596 420 682 425 q 454 413 510 415 l 415 410 l 353 372 q 213 274 290 335 q 83 140 136 214 l 82 140 l 76 131 l 76 129 l 74 128 l 75 126 l 72 126 l 74 125 l 71 124 l 71 118 l 69 118 l 67 113 q 74 103 67 106 q 89 97 81 100 q 94 97 92 97 q 99 94 96 96 q 103 93 101 93 q 106 92 106 93 l 107 92 l 107 90 l 108 92 l 108 90 l 111 90 l 111 89 l 113 90 l 117 89 q 148 88 132 89 q 182 86 164 86 q 363 105 272 86 q 513 144 453 124 q 574 171 574 165 q 563 173 567 172 q 553 174 558 174 q 533 175 542 174 q 428 164 490 175 q 311 138 347 150 q 283 129 290 129 l 285 132 l 275 128 l 269 129 l 265 128 l 263 131 l 258 129 l 256 132 l 253 132 l 251 133 l 240 132 q 234 136 236 132 q 231 144 232 140 l 239 154 l 228 151 l 236 158 l 218 153 l 214 156 l 219 164 l 214 161 l 215 164 l 213 164 q 211 165 213 165 l 213 167 l 207 167 l 204 169 l 206 171 l 201 172 q 243 199 208 179 q 231 196 235 197 q 225 193 228 194 q 215 189 222 192 q 203 183 210 183 q 206 187 203 185 q 215 194 210 189 l 206 193 l 208 197 l 203 199 l 206 204 l 203 204 l 201 206 q 206 211 201 207 l 208 215 l 208 217 l 203 215 l 203 217 l 200 217 l 201 219 l 203 219 l 203 221 q 221 243 206 235 l 217 243 l 254 264 q 283 277 269 271 q 297 284 296 283 q 301 285 299 285 q 304 286 303 285 q 310 289 307 286 l 317 289 q 319 291 318 290 q 322 292 319 292 q 328 294 324 293 q 501 321 421 321 q 575 317 539 321 l 576 315 l 579 317 l 589 314 l 643 306 l 650 301 l 656 301 q 657 300 656 300 l 657 297 l 660 297 l 657 300 l 660 299 l 660 297 l 665 297 l 665 296 l 668 296 l 668 294 l 669 296 l 678 292 q 685 288 681 292 q 692 281 689 285 q 701 272 700 272 q 704 271 703 272 l 694 282 q 701 278 696 282 q 718 261 718 265 l 719 261 l 719 257 l 721 257 q 727 252 725 256 q 731 246 729 249 q 733 242 732 243 l 733 240 l 736 240 l 736 239 q 738 230 736 233 q 742 219 740 226 l 743 217 l 746 215 l 746 214 q 749 215 749 214 l 749 219 l 756 175 q 746 154 756 154 l 749 151 l 746 151 l 744 146 q 741 140 743 144 q 739 129 739 136 q 749 140 743 138 q 747 135 749 139 q 744 131 744 132 q 736 122 743 129 l 736 117 q 729 110 732 117 l 740 121 q 731 105 740 117 q 708 81 721 93 q 688 64 696 69 l 686 65 q 682 61 682 65 l 676 60 q 674 58 675 58 q 672 56 672 57 l 669 56 l 667 54 l 667 53 l 661 50 q 653 46 656 46 q 650 44 651 46 l 650 42 l 649 43 q 648 41 649 42 q 647 40 647 40 q 644 39 646 39 q 615 26 633 35 q 578 11 596 18 q 551 1 561 4 l 553 3 l 551 3 q 549 1 549 3 l 550 1 q 203 -62 382 -54 m -6 189 q 228 413 81 314 l 243 424 q 108 320 185 389 q -6 189 31 251 m -35 169 l -31 176 l -31 175 l -29 176 q -17 197 -21 193 q 151 374 46 290 l 186 401 l 235 438 q 78 317 160 393 q -35 169 -3 242 m -7 160 q -1 170 -4 163 q 7 182 3 178 q 10 188 7 188 l 38 222 l 33 221 q 35 224 35 222 q 38 225 35 225 q 44 233 42 225 q 50 240 46 240 l 46 233 q 49 235 47 233 q 51 240 51 238 q 56 247 51 242 q 76 265 67 265 l 74 267 l 125 317 l 126 317 l 125 314 l 139 326 l 135 324 q 140 329 138 329 l 142 328 q 143 330 143 328 q 145 332 143 332 q 147 333 147 332 q 150 338 147 333 l 153 340 l 151 338 l 153 339 q 167 349 161 349 q 169 354 167 351 l 168 350 q 174 357 171 356 q 182 364 178 358 l 218 390 l 213 388 q 88 286 138 336 q 15 201 39 236 q -8 160 -8 165 l -7 160 m 25 165 q 31 172 28 168 q 35 178 33 175 q 39 186 36 181 q 42 188 42 186 q 88 241 42 190 q 138 292 133 292 q 140 295 138 294 q 143 297 142 296 l 142 297 q 143 299 143 297 q 146 301 143 300 q 150 303 149 301 q 164 315 158 313 q 158 312 163 315 q 149 304 153 308 q 142 299 144 300 q 58 214 99 261 l 38 190 q 43 198 42 197 q 46 206 44 199 l 35 188 q 35 184 35 185 q 32 182 35 183 l 24 167 l 25 165 m 182 -32 q 488 14 308 -32 l 531 28 q 619 58 585 43 q 686 100 654 72 q 688 101 688 100 q 689 102 688 101 q 693 104 690 103 q 696 108 696 106 l 697 108 l 699 113 q 688 104 693 113 q 676 94 682 96 q 663 83 671 92 l 658 82 q 581 47 628 64 q 560 40 581 44 l 532 32 q 428 4 532 26 l 379 -8 l 378 -7 q 376 -8 375 -7 q 375 -8 376 -8 l 372 -7 l 360 -10 q 358 -11 360 -11 q 357 -12 357 -11 q 356 -12 357 -12 q 340 -14 340 -12 l 338 -14 l 338 -15 l 336 -14 l 333 -15 l 308 -18 l 290 -21 l 290 -19 l 289 -22 l 289 -21 q 288 -21 289 -21 q 272 -22 281 -22 q 258 -23 264 -22 q 253 -25 253 -24 q 229 -26 243 -25 q 192 -28 215 -28 q 58 -17 104 -28 l 53 -14 l 56 -14 q 39 -8 50 -14 q 24 -2 28 -3 q 18 0 21 -1 q 7 6 10 6 q 17 -3 10 -3 q 26 -6 24 -4 q 64 -20 28 -8 q 182 -32 100 -32 m 214 -3 q 483 42 358 8 q 644 104 607 76 l 631 97 l 631 99 l 619 93 l 619 94 l 618 94 l 615 92 q 608 88 613 88 l 615 92 l 599 85 l 599 86 l 558 71 l 565 72 q 557 69 561 69 l 553 69 q 544 65 547 65 q 538 64 542 65 l 542 64 l 533 61 l 533 63 q 531 61 532 61 q 472 46 529 61 q 331 15 414 31 q 172 0 249 0 q 101 6 133 0 l 108 3 l 82 7 q 167 -3 117 -3 l 214 -3 m 190 19 q 402 47 314 26 q 503 72 490 67 q 360 40 411 50 q 274 27 308 31 q 200 22 240 24 l 157 21 l 190 19 m 178 -15 q 491 32 361 -6 q 631 85 621 69 l 608 74 l 597 69 q 182 -12 379 -12 q 82 -6 131 -12 q 74 -2 82 -4 q 61 0 65 0 l 61 -1 q 178 -15 119 -15 m 636 276 q 532 293 603 293 l 511 292 q 601 283 581 292 q 611 282 606 282 q 613 281 611 281 q 636 276 624 278 m 515 111 l 533 117 q 610 147 582 131 q 594 141 603 147 q 515 111 586 135 m 193 29 l 310 38 q 316 39 310 39 q 328 42 322 39 l 326 40 l 351 46 l 351 44 q 360 47 358 46 q 365 49 361 49 l 364 46 q 367 48 365 47 q 374 49 369 49 l 374 50 q 418 58 385 50 q 560 100 493 76 l 572 104 q 597 114 585 111 l 597 115 q 612 124 603 117 q 621 133 621 131 q 614 129 618 133 q 615 132 614 132 q 617 133 615 132 q 608 131 610 133 q 602 126 606 128 q 593 122 599 124 q 588 119 588 121 q 597 124 592 122 q 606 128 601 125 q 603 124 606 125 q 597 120 600 122 q 591 118 593 118 q 585 117 589 118 l 585 118 l 583 117 q 582 114 582 115 l 583 114 l 575 110 l 575 111 l 581 115 l 408 67 q 289 46 324 49 q 268 42 269 43 q 267 43 267 42 l 265 43 q 263 42 264 43 q 250 42 263 42 q 185 39 211 39 q 140 41 160 39 q 103 43 119 43 l 107 40 q 95 42 100 40 q 85 43 90 43 l 82 42 l 69 44 q 126 35 83 39 l 169 32 l 154 32 q 117 35 139 33 q 74 42 94 38 q 193 29 125 29 m 25 146 l 28 147 l 28 149 q 236 356 104 263 l 239 358 l 190 325 l 229 354 q 260 378 260 375 l 242 365 q 213 346 214 346 q 210 344 211 346 l 213 346 l 211 344 q 175 317 194 336 q 172 316 174 317 q 169 314 171 315 l 167 311 l 165 311 l 164 308 l 163 308 q 131 278 151 293 q 121 271 125 275 q 124 274 121 272 q 128 278 126 276 q 131 281 131 279 l 129 281 l 133 285 l 133 286 l 131 283 q 123 276 126 281 q 117 269 119 272 l 113 265 q 115 266 114 265 q 121 272 115 267 q 82 231 111 260 q 66 210 72 218 q 60 199 60 201 q 59 195 60 196 q 58 194 58 194 q 55 192 57 193 q 49 183 53 190 l 44 178 q 49 183 47 181 q 51 187 50 186 q 53 189 53 188 q 60 201 54 190 q 49 188 56 199 q 34 167 42 178 q 26 151 26 156 q 33 161 31 151 q 36 165 33 165 q 31 154 36 160 q 25 146 25 149 z "},"h":{"ha":656,"x_min":-119,"x_max":774,"o":"m 375 96 l 374 97 q 376 100 374 100 q 378 100 378 100 q 379 107 379 100 l 381 104 l 379 100 q 375 96 378 96 m 276 -135 l 276 -131 l 269 -131 l 269 -128 l 267 -129 l 265 -121 q 260 -122 261 -122 q 258 -124 258 -122 l 244 -124 q 243 -119 243 -122 q 240 -117 243 -117 q 235 -116 236 -117 q 235 -114 235 -115 q 224 -106 224 -114 l 222 -106 l 222 -100 l 225 -97 l 225 -96 q 217 -89 217 -96 l 214 -89 l 214 -87 l 211 -87 l 211 -85 l 210 -85 l 210 -78 q 208 -76 210 -76 l 208 -81 l 206 -81 l 207 -72 l 204 -71 q 197 -49 197 -64 l 203 -21 q 246 61 208 -1 l 319 176 q 318 178 319 178 l 315 178 q 143 165 154 165 q 121 161 125 165 q 102 128 110 140 q 89 103 94 115 q 72 67 78 75 l 72 64 l 69 64 q 66 63 67 64 q 65 60 65 61 q 63 57 64 58 q 62 55 63 56 q 60 53 61 54 q 58 50 60 51 q 49 40 51 44 q 43 35 46 36 l 42 35 l 42 33 l 39 32 l 33 33 q 26 32 26 33 l 25 31 l 25 29 l 22 31 l 21 28 l 18 31 l 14 29 q 11 31 13 29 q 7 33 10 32 q 3 33 4 33 l -3 32 q -10 36 -6 32 q -15 40 -14 40 q -28 47 -24 40 q -37 71 -32 54 q -42 74 -39 74 l -43 72 q -47 78 -44 72 q -50 89 -50 85 l -53 88 q -51 105 -53 99 q -50 117 -50 111 l -53 111 l -54 113 q -46 144 -53 126 l -39 165 l -79 176 l -79 179 l -89 185 l -89 186 q -95 190 -90 188 q -100 197 -100 193 q -101 201 -100 200 q -102 204 -101 203 q -106 207 -103 206 q -110 213 -108 208 q -112 224 -112 217 q -118 238 -112 231 l -119 240 l -115 250 l -117 253 q -115 254 -115 253 l -114 254 l -114 256 q -111 268 -114 261 l -110 269 l -111 272 l -111 278 q -114 279 -111 279 l -114 281 l -110 281 l -110 282 q -83 303 -110 293 q -28 313 -57 313 q -3 311 -12 313 l -1 313 q 0 311 -1 311 l 0 310 l 1 310 q 14 308 11 310 l 25 308 l 31 307 q 43 315 38 307 q 52 328 49 322 q 57 338 56 335 q 121 426 92 388 q 200 514 150 464 l 206 517 l 208 515 q 214 518 211 515 q 224 525 217 521 l 224 522 l 232 525 q 233 524 233 525 l 235 524 l 235 522 l 240 524 l 240 525 q 249 524 247 525 l 250 521 l 254 524 q 253 518 254 518 l 253 517 q 251 515 251 517 q 249 513 250 514 l 251 513 q 253 515 251 514 q 256 517 254 515 l 257 517 l 254 513 l 267 519 l 261 508 q 265 512 263 510 q 269 516 267 514 q 274 518 272 518 l 274 515 l 279 517 l 279 515 l 283 515 l 283 510 q 282 508 282 510 q 281 506 282 507 l 286 510 l 288 508 l 288 506 l 290 507 q 292 506 292 507 q 293 504 293 506 l 292 501 l 293 501 l 292 499 l 294 501 l 293 494 l 294 492 l 299 494 q 300 494 300 494 q 301 490 300 493 q 303 486 301 488 l 303 481 l 304 478 l 303 469 l 306 469 l 304 461 q 306 457 304 457 l 306 456 l 307 456 l 304 443 l 306 438 l 301 432 l 301 425 q 290 406 301 421 q 282 396 286 400 q 274 385 278 392 q 262 369 269 379 q 247 349 254 360 l 228 321 q 343 328 257 321 q 429 338 429 335 q 462 387 429 342 q 538 488 494 432 q 619 585 582 543 q 665 628 657 628 l 667 626 l 675 626 q 679 628 676 626 q 682 632 682 631 l 685 631 l 693 633 l 692 631 l 699 631 l 707 635 q 711 633 710 633 q 713 633 713 633 q 715 631 714 632 q 715 628 715 631 l 722 631 l 719 625 l 725 628 l 724 626 q 725 625 724 625 l 731 625 l 731 622 q 733 623 732 622 q 736 624 733 624 q 743 622 739 625 l 743 619 q 744 619 744 619 q 746 615 744 618 l 750 615 l 750 611 l 753 611 l 753 606 q 751 603 751 606 l 754 604 q 755 601 754 601 q 758 597 756 600 l 758 596 q 760 592 758 592 l 761 581 l 757 569 l 757 565 l 760 565 l 757 553 l 765 554 l 761 535 q 707 463 747 513 q 676 422 681 429 q 631 365 642 376 q 621 353 621 354 l 622 351 q 667 354 653 354 q 703 356 688 354 q 719 354 713 356 q 728 351 725 353 q 731 349 731 350 q 733 347 731 349 q 740 341 735 344 q 751 332 746 338 q 754 330 753 331 q 756 328 756 329 q 757 325 757 328 q 753 321 757 321 l 744 322 l 740 321 l 749 321 l 763 315 l 761 314 q 768 307 761 307 l 761 306 q 765 304 764 304 q 767 303 767 304 l 742 303 l 672 299 q 765 300 697 300 q 764 299 765 299 l 756 299 l 757 297 l 768 297 l 772 294 l 750 292 l 732 292 l 733 290 l 708 292 q 703 290 703 292 l 736 288 l 769 288 l 769 286 l 768 286 l 768 285 l 772 283 l 767 282 l 774 279 l 774 278 l 771 278 l 771 276 l 774 275 l 769 275 q 765 273 768 274 q 760 271 763 272 q 744 267 758 269 l 764 267 l 763 265 q 772 264 772 265 l 772 263 l 771 263 q 770 261 771 261 q 768 260 769 261 l 758 260 l 757 258 l 765 258 l 767 256 q 763 255 764 256 q 763 251 763 254 l 764 251 l 756 240 l 756 239 q 753 236 754 239 l 750 235 l 750 232 q 747 229 749 232 q 731 213 742 219 q 730 209 731 211 q 711 206 729 207 q 665 203 693 204 q 579 199 625 203 l 513 193 q 500 185 506 193 q 349 -79 357 -25 q 336 -108 340 -104 l 333 -110 l 335 -115 l 332 -114 l 332 -115 l 335 -117 q 333 -118 335 -118 l 329 -118 l 329 -119 l 315 -125 l 315 -126 l 313 -125 l 313 -124 l 311 -124 q 306 -124 307 -124 q 303 -128 306 -125 q 298 -131 300 -131 q 294 -131 296 -131 q 292 -133 293 -132 q 283 -132 283 -133 l 276 -135 m 222 -93 l 225 -92 q 224 -90 225 -90 l 222 -93 m 425 279 q 430 283 429 281 q 433 289 431 286 l 432 289 q 424 281 429 289 l 425 279 m 424 247 l 426 253 q 422 249 424 253 l 424 247 m 417 215 q 422 221 422 217 q 421 222 422 222 l 417 219 l 418 222 q 415 220 417 221 q 414 217 414 219 l 417 215 m 385 129 q 399 150 386 131 q 411 171 411 169 q 392 140 408 168 l 385 129 m 382 110 q 383 112 382 111 q 384 113 383 113 q 386 114 385 114 l 386 115 q 388 120 386 118 q 392 124 390 122 q 385 119 389 124 q 382 110 382 115 m 374 111 l 375 115 l 382 125 q 381 122 382 124 q 376 117 379 121 l 374 111 m 404 246 l 406 249 q 404 250 406 250 l 400 246 l 404 246 m 400 215 q 403 217 401 215 q 404 221 404 218 q 401 218 403 221 l 400 217 l 400 215 m 329 281 q 319 282 329 282 l 317 282 q 324 281 317 281 l 329 281 m 188 260 l 194 261 l 331 272 q 383 276 378 275 q 389 280 388 278 q 393 283 390 282 q 390 285 393 285 l 288 276 q 195 269 201 271 q 189 265 189 267 q 186 261 189 263 l 188 260 m 378 213 q 381 215 379 214 q 383 217 382 215 q 385 219 383 218 l 383 219 l 381 218 q 378 213 378 215 m 371 267 l 382 268 l 378 268 q 371 267 371 268 m 351 264 l 354 265 l 347 265 l 351 264 m 261 257 l 269 258 l 256 258 q 261 257 256 257 m 232 254 l 240 256 l 225 256 q 232 254 226 254 m 201 251 l 208 253 l 201 254 l 199 253 l 201 251 m 164 226 q 367 246 357 238 l 367 247 l 183 232 q 164 230 164 232 q 164 226 164 228 m 344 228 q 333 229 344 229 l 321 228 l 344 228 m 288 224 q 297 225 288 225 l 306 225 l 306 226 l 297 226 q 290 225 293 225 q 286 224 286 225 l 288 224 m 254 222 l 282 224 q 281 225 282 225 l 281 225 l 254 222 m 219 218 q 233 220 219 219 q 246 222 246 221 l 200 218 l 219 218 m 176 215 l 196 218 l 192 218 q 176 215 179 218 m 169 215 l 175 217 l 156 215 l 169 215 m 143 196 q 220 201 178 197 q 296 206 263 204 q 342 210 329 208 l 344 214 q 342 215 344 215 l 165 201 q 152 201 160 201 q 143 196 144 201 m 263 26 l 265 29 q 328 132 281 58 l 358 181 l 357 182 q 308 106 354 182 q 263 26 263 31 m 350 149 q 353 152 353 151 q 354 156 354 153 l 353 153 q 350 149 350 150 m 278 22 l 281 25 q 330 108 311 79 q 360 153 349 138 q 379 183 371 169 q 317 92 357 157 q 278 22 278 26 m 322 69 l 325 71 l 325 72 l 326 74 q 328 76 326 76 l 397 183 l 394 183 q 390 182 392 183 q 388 178 389 181 q 385 174 386 175 l 386 172 l 332 89 l 322 69 m 338 28 q 352 51 344 38 q 366 74 360 64 q 376 88 372 83 l 369 78 q 363 64 363 67 l 369 75 q 385 100 376 86 q 401 125 394 114 q 408 138 408 136 q 420 153 414 144 q 431 169 426 163 q 437 178 436 176 q 439 181 438 179 q 441 183 440 182 q 443 188 442 185 l 440 189 q 425 171 436 189 q 418 159 421 163 q 413 153 415 156 q 410 149 411 151 l 411 150 q 407 143 411 149 q 399 129 403 138 l 382 106 l 381 107 l 382 108 l 378 107 l 376 103 l 379 103 q 376 102 378 103 q 372 96 375 101 l 374 96 q 373 94 374 94 q 371 92 372 93 l 369 92 l 367 85 l 365 85 l 365 81 l 363 78 l 363 76 q 364 77 364 76 q 366 83 364 78 q 371 88 368 88 l 338 28 m 442 249 q 444 250 443 249 q 444 253 444 251 l 439 251 l 440 254 q 436 250 438 254 l 442 249 m 446 281 q 447 282 446 282 q 450 285 449 282 q 453 289 451 288 l 453 290 q 446 281 449 286 m 465 219 q 469 225 468 219 l 461 224 l 460 219 l 465 221 l 465 219 m 463 282 q 467 283 464 282 q 470 285 469 283 q 472 290 471 288 l 471 292 l 468 290 l 465 292 q 463 285 464 288 q 460 283 461 283 q 463 282 460 282 m 467 339 q 471 341 468 339 q 474 346 474 343 q 481 354 476 346 q 526 417 521 406 l 544 442 q 530 425 543 442 q 499 385 517 408 q 465 339 482 361 l 467 339 m 483 251 l 488 254 l 488 253 l 490 256 q 488 257 490 257 q 483 256 483 257 l 483 251 m 494 289 l 497 293 l 493 289 l 494 289 m 499 276 l 503 278 l 497 278 q 499 276 497 276 m 489 340 q 494 345 490 340 q 500 354 497 350 q 572 453 572 451 q 529 397 569 451 q 489 340 489 343 m 510 342 q 530 369 514 346 q 546 393 546 392 l 543 390 l 556 408 q 529 374 538 385 q 517 360 521 364 q 513 353 514 356 q 510 349 513 351 q 507 344 508 346 l 506 343 q 506 342 506 342 q 510 342 507 342 m 513 286 q 510 288 513 288 q 507 286 507 288 l 513 286 m 511 288 q 517 291 517 289 q 518 296 517 293 q 508 293 514 293 l 508 294 l 507 293 l 510 292 l 508 290 q 507 288 507 289 l 508 289 q 510 288 508 288 l 511 288 m 535 225 l 569 229 l 569 231 l 571 229 l 576 231 l 568 231 l 568 232 l 565 231 l 558 232 q 529 226 535 232 q 535 225 529 225 m 583 371 q 593 382 586 371 l 583 371 m 553 344 l 557 346 q 596 400 596 397 q 588 392 593 400 q 582 383 583 383 l 611 425 q 589 396 610 425 q 556 354 557 354 l 560 360 q 565 369 563 365 q 568 374 568 372 l 565 372 l 567 372 l 557 363 l 558 363 l 556 357 q 554 354 556 356 q 552 351 553 353 q 550 349 551 350 q 549 348 549 349 q 547 346 549 347 l 549 344 l 549 346 l 550 349 q 552 352 550 351 q 556 353 554 353 l 550 346 l 553 344 m 696 289 l 699 290 l 692 290 l 696 289 m 732 264 l 739 265 l 736 265 q 732 264 733 265 z "},"i":{"ha":281,"x_min":-99,"x_max":510,"o":"m 201 440 l 200 442 l 199 440 l 199 442 q 197 440 197 442 l 194 442 q 193 440 194 440 l 193 442 l 132 447 q 128 446 132 446 l 126 446 q 121 450 122 449 q 117 451 119 451 q 110 453 114 451 q 90 463 90 460 q 89 465 90 465 q 88 468 88 465 q 86 472 88 471 q 85 474 85 472 l 89 476 l 83 478 q 72 481 72 479 q 71 490 71 483 q 68 492 71 492 q 65 495 65 493 q 65 498 64 497 q 63 500 65 499 l 64 500 q 60 501 63 500 q 57 508 57 503 q 60 512 57 510 q 66 514 63 514 q 69 516 69 514 q 73 519 69 518 q 78 521 76 519 q 76 523 78 522 q 74 524 75 524 l 71 522 q 69 524 71 525 q 67 525 68 524 l 76 531 l 74 532 l 63 532 l 63 535 l 68 540 q 65 543 68 543 q 63 549 65 549 q 67 560 67 557 q 68 564 68 563 l 69 564 q 71 570 71 564 q 75 578 71 576 q 79 581 79 581 q 80 582 79 582 q 81 583 81 582 q 81 585 81 585 q 83 585 82 585 q 97 591 90 589 q 117 596 103 593 l 129 597 q 139 594 131 594 q 150 592 147 593 q 183 588 163 588 q 233 590 207 588 q 301 604 294 599 q 306 606 303 604 q 315 607 310 607 q 319 610 319 607 l 321 608 q 322 611 322 608 l 326 608 q 326 610 326 610 q 329 611 326 611 q 333 613 332 611 q 340 614 335 614 l 342 617 l 342 614 l 349 618 l 349 617 q 383 628 353 617 q 432 640 418 640 q 453 639 444 640 q 459 638 456 638 q 465 635 463 638 q 469 632 468 632 q 472 628 469 632 q 475 625 474 625 q 467 617 475 621 q 471 614 467 614 q 476 615 472 615 q 482 618 479 615 l 483 617 l 488 618 q 490 615 490 618 l 488 611 l 493 615 l 497 613 l 496 604 l 499 606 l 499 604 l 501 606 l 499 600 q 501 594 499 596 q 506 590 503 593 l 504 586 l 507 586 l 507 582 l 506 583 l 506 581 l 508 582 q 510 581 510 582 l 508 581 q 506 570 508 575 q 504 551 504 565 q 500 543 504 547 q 495 531 496 539 q 489 517 494 524 l 482 510 l 482 511 l 479 508 l 481 508 q 465 497 465 501 l 472 499 l 443 485 q 440 483 440 485 l 439 485 l 439 482 l 438 485 q 435 483 436 483 q 435 482 435 483 l 433 483 q 433 481 433 482 q 428 479 432 481 q 204 442 408 468 l 201 440 m 68 546 q 65 550 68 550 l 67 546 l 68 546 m 71 560 l 72 561 q 72 563 72 563 q 69 563 71 563 l 71 560 m 68 503 q 67 506 68 506 q 65 506 67 506 l 64 504 l 68 503 m 74 497 l 75 499 l 71 504 l 74 497 m 89 478 q 87 481 89 481 q 85 482 85 481 l 83 481 q 88 478 83 478 l 89 478 m 215 522 q 247 525 228 522 q 279 531 265 528 q 293 535 293 533 l 238 526 l 206 524 l 215 522 m 208 499 l 224 500 q 285 510 257 501 l 282 510 l 282 511 l 281 510 l 276 511 q 240 507 275 510 q 204 503 204 504 q 215 501 204 501 l 203 500 l 208 499 m 208 535 q 267 540 244 535 q 290 547 290 546 l 254 543 q 259 545 256 544 q 265 546 263 546 l 235 543 q 203 539 203 540 l 213 539 l 201 536 l 208 535 m 199 486 q 285 497 272 492 l 236 492 q 190 488 190 489 q 199 486 192 486 m 225 485 l 222 485 l 225 485 m 201 469 q 354 494 272 474 l 347 493 q 247 479 324 488 q 179 469 179 471 l 201 469 m 368 514 q 368 514 369 514 q 368 514 365 514 m -18 -61 l -21 -61 l -21 -53 l -24 -57 l -25 -56 q -23 -53 -24 -54 q -22 -51 -22 -53 q -22 -49 -22 -50 q -24 -49 -24 -49 q -25 -51 -25 -50 l -28 -50 q -19 -33 -24 -40 q -15 -21 -15 -25 l -33 -49 l -22 -28 q -7 1 -7 -1 l -8 -3 q -17 -12 -10 -6 l -18 -14 q -21 -15 -18 -15 q -31 -33 -21 -18 q -43 -49 -40 -49 q -25 -12 -35 -26 l -15 6 q -21 1 -18 1 q -19 0 -19 1 q -35 -24 -21 0 q -51 -49 -50 -49 l -50 -44 q -52 -47 -51 -46 q -54 -49 -53 -49 l -57 -47 l -56 -44 q -60 -43 -56 -43 q -64 -37 -64 -43 l -62 -35 l -64 -32 l -61 -28 q -65 -30 -64 -29 q -68 -32 -67 -31 q -72 -36 -69 -33 l -74 -35 q -72 -27 -74 -32 q -66 -17 -69 -22 q -61 -7 -62 -11 q -65 -13 -62 -8 q -69 -23 -67 -18 q -75 -28 -72 -28 q -67 -10 -75 -22 q -51 18 -58 3 q -46 25 -49 18 q -37 40 -43 32 q -26 60 -28 56 l -78 -22 l -76 -14 q -79 -17 -78 -14 q -83 -21 -81 -21 l -85 -18 q -79 -6 -85 -15 l -76 0 l -78 1 l -79 0 l -62 33 q -74 17 -64 33 q -89 -6 -86 -6 q -93 2 -92 -6 q -97 12 -94 10 q -99 15 -99 14 l -99 25 q -35 135 -99 61 l 60 269 q 174 421 161 421 q 176 419 176 421 l 181 421 l 182 419 q 185 423 182 422 q 189 424 188 424 q 192 424 190 424 q 194 424 193 424 q 198 425 194 425 q 202 426 201 425 q 208 428 203 428 l 207 426 l 211 424 l 214 426 l 214 424 l 219 428 q 218 426 218 426 q 217 425 218 425 l 218 421 l 221 425 l 219 422 l 222 425 l 224 417 l 222 417 l 221 411 l 224 411 l 222 407 l 224 403 l 222 401 l 222 399 q 233 413 228 410 q 239 419 238 417 l 240 410 l 243 413 l 243 411 q 249 415 246 415 l 250 410 l 254 413 l 253 410 l 254 411 l 256 410 l 254 407 l 257 408 l 258 407 q 256 403 257 407 q 255 399 256 400 q 251 394 254 399 l 253 393 q 256 397 254 393 q 260 400 257 400 q 258 396 260 399 q 256 390 256 393 l 261 392 q 263 390 263 392 q 268 389 263 389 l 265 383 l 267 382 q 270 384 268 382 q 275 386 272 386 l 274 382 l 275 382 q 277 372 275 375 q 279 361 279 368 l 276 350 l 278 349 l 279 350 l 276 338 l 278 332 q 268 311 278 328 q 92 58 249 282 q 60 8 75 35 q 34 -37 46 -19 q 11 -56 22 -56 l 6 -54 l -4 -58 l -7 -57 l -18 -61 m -15 -19 q -11 -14 -14 -19 l -15 -19 m 133 267 l 139 274 q 133 267 136 274 m -8 117 q 50 194 14 143 q 110 281 108 276 q 114 285 113 285 l 129 310 q 58 213 125 307 q -8 117 -8 118 m 113 265 q 117 269 115 265 q 118 274 118 272 l 113 265 m -14 108 l -10 115 q -14 108 -14 111 m -4 -3 l 0 3 q -3 1 -1 3 q -4 -3 -4 -1 m -4 92 q 108 250 14 110 l 132 286 q 97 239 122 275 l 64 193 l 65 193 q 65 191 65 192 q 63 190 64 190 q 61 189 63 189 l -4 92 m 36 129 l 51 149 l 49 143 q 74 179 57 153 l 79 188 q 86 197 85 197 q 82 190 86 193 l 85 192 q 88 199 88 194 l 86 200 q 89 201 89 200 q 92 203 89 201 l 89 203 q 91 205 89 204 q 93 207 93 206 l 90 206 q 93 208 92 207 q 96 213 94 208 q 97 211 97 213 q 101 215 99 211 q 103 219 103 218 q 101 218 101 219 q 100 216 100 217 q 99 215 100 215 q 101 219 100 219 q 106 224 103 219 q 132 265 128 253 l 111 236 q 107 231 107 233 q 103 225 107 229 l 75 188 q 47 147 61 165 l 36 129 m 61 126 q 92 171 92 168 q 61 126 74 150 m 42 78 l 83 133 l 64 103 q 142 211 93 146 l 171 253 q 165 249 169 253 l 167 251 l 165 256 q 159 251 161 256 q 154 244 157 247 l 156 244 q 151 240 153 242 q 149 238 150 239 q 147 235 149 236 q 121 198 146 233 q 90 153 96 163 l 89 151 q 86 149 88 150 q 85 146 85 147 q 83 143 85 144 q 74 131 78 138 q 67 117 71 124 l 71 121 l 64 113 l 67 114 q 63 112 64 113 q 61 108 61 111 q 60 104 61 104 l 42 78 m 115 169 l 128 188 q 115 169 117 174 m 133 193 l 135 197 l 132 193 l 133 193 m 154 224 l 163 235 q 154 224 158 233 m 163 238 q 165 240 164 239 q 172 251 167 242 l 163 238 m 257 375 l 263 379 l 258 378 l 263 382 q 259 379 261 382 q 257 375 257 376 m 64 528 l 61 528 l 63 531 l 64 528 z "},"j":{"ha":581,"x_min":-29,"x_max":746,"o":"m 101 -75 l 96 -74 q 89 -72 89 -74 l 86 -72 l 86 -74 l 89 -75 q 73 -74 75 -75 q 71 -69 71 -74 l 69 -71 l 68 -69 l 65 -71 q 54 -67 61 -71 q 43 -64 47 -64 l 43 -65 l 40 -62 l 40 -60 l 38 -61 l 38 -60 l 38 -58 q 35 -57 36 -58 q 32 -55 33 -56 q 29 -54 31 -54 l 28 -57 q 22 -51 28 -53 q 14 -44 17 -49 l 13 -44 l 13 -47 l 11 -47 q 6 -42 8 -46 q 1 -32 4 -39 q -7 -19 -3 -25 l -7 -21 l -10 -15 l -11 -15 l -11 -10 l -15 -11 l -12 -8 l -15 -10 l -14 -7 l -15 -6 l -14 -4 l -17 -6 l -15 -3 l -17 -3 l -17 -4 l -18 -4 q -21 6 -21 -4 q -23 11 -22 8 q -25 14 -24 14 l -24 15 l -25 15 l -25 18 l -26 18 l -26 19 l -25 19 l -28 21 l -28 35 l -26 33 l -28 38 l -26 39 l -28 39 l -26 43 l -29 42 l -26 43 q -22 119 -26 69 l -15 199 l -17 199 l -17 201 l -19 199 q -11 244 -19 210 q 10 310 -3 278 q 38 349 22 342 l 54 358 l 54 357 l 56 357 q 57 358 57 357 q 86 365 65 365 l 94 361 l 100 363 l 104 360 q 108 361 106 361 q 114 360 114 361 l 115 360 l 115 358 q 117 357 115 357 l 117 354 l 122 350 l 124 351 l 125 350 q 136 335 135 342 q 140 324 138 328 q 143 310 143 321 q 144 304 143 304 l 146 307 q 144 276 144 297 l 149 283 q 147 276 149 279 q 145 272 146 274 q 142 254 144 269 q 136 218 140 239 q 121 111 121 135 q 122 107 121 107 q 222 210 169 150 q 311 319 274 271 l 347 367 l 329 364 q 247 353 294 360 q 176 347 199 347 l 172 349 l 175 353 l 164 353 q 155 356 158 353 q 149 360 151 360 q 146 361 147 361 l 147 363 l 146 365 l 146 368 l 144 368 l 144 372 l 143 372 q 138 374 142 374 q 133 375 133 374 l 135 378 l 132 383 l 133 389 l 121 400 l 131 407 l 125 407 l 124 410 l 129 415 l 126 417 l 125 417 l 126 418 l 124 418 l 124 426 q 122 433 124 432 l 121 439 l 124 442 l 122 446 q 131 459 128 451 q 146 474 133 467 q 303 510 217 507 q 318 511 311 510 l 371 515 q 517 524 425 524 q 685 507 643 524 l 679 507 q 683 505 681 506 q 689 503 686 504 l 693 503 l 694 501 l 685 501 l 710 489 q 726 480 719 485 q 732 471 732 475 q 738 461 732 467 q 743 453 743 456 l 743 451 q 742 449 742 450 q 740 449 742 449 q 745 442 744 444 q 746 438 746 439 q 740 436 740 438 l 743 433 l 740 433 l 744 431 l 746 426 q 744 425 744 426 q 742 419 743 424 q 739 411 742 415 q 728 399 728 400 l 721 394 q 707 389 717 389 q 704 388 704 389 l 704 382 l 701 382 q 695 381 697 382 q 690 378 693 381 q 682 376 688 376 l 679 376 q 674 374 678 375 q 658 374 671 374 q 603 376 644 376 l 536 375 l 461 267 l 460 267 q 394 186 460 263 l 328 110 q 240 17 272 49 q 192 -26 207 -14 l 161 -49 l 161 -50 l 160 -49 l 158 -50 l 158 -49 l 156 -50 q 154 -51 154 -50 l 154 -53 l 153 -51 l 144 -56 l 143 -60 l 142 -58 q 132 -61 136 -58 q 122 -64 128 -64 q 115 -71 117 -64 l 114 -68 q 110 -71 113 -69 q 106 -74 108 -72 q 101 -75 104 -75 m 258 182 q 268 192 267 190 q 275 201 269 194 q 258 182 265 193 m 232 153 l 253 175 q 232 153 240 168 m 213 140 q 224 152 217 143 q 240 170 232 161 q 251 183 247 179 l 213 140 m 226 146 q 227 148 226 147 q 228 149 228 149 q 231 150 229 150 q 228 149 229 150 q 226 146 226 147 m 197 125 q 208 135 200 126 q 197 125 197 124 m 190 108 l 193 111 l 190 108 m 113 -12 q 149 13 128 -6 l 142 8 l 143 11 l 142 11 l 139 8 q 128 1 131 1 q 126 -1 126 1 q 124 -4 125 -3 q 111 -12 115 -7 l 113 -12 m 133 31 q 186 77 157 49 q 238 131 215 106 q 260 157 260 156 l 253 150 q 136 32 149 40 l 133 31 m 168 33 l 171 35 q 243 103 188 42 l 299 165 l 299 167 l 301 168 l 300 169 l 292 161 q 283 151 286 151 l 285 154 l 254 121 l 189 53 l 189 51 q 188 49 189 49 l 168 33 m 122 -19 l 128 -17 q 256 99 186 19 l 263 107 l 261 103 q 263 106 263 104 q 267 110 264 108 q 269 114 269 111 l 269 115 q 271 114 271 115 l 272 117 l 274 118 q 303 151 283 128 l 335 189 q 328 182 333 189 q 217 61 251 93 q 193 40 197 42 l 193 39 l 169 18 q 131 -12 135 -11 q 122 -19 126 -14 m 294 136 l 304 146 l 304 147 l 294 136 m 249 86 q 265 103 250 86 l 281 119 l 249 86 m 147 -10 l 150 -8 q 207 43 175 10 q 221 56 219 56 q 224 58 222 56 l 222 58 q 208 44 215 51 q 147 -10 201 38 m 140 -15 l 144 -11 l 143 -11 q 140 -15 140 -12 m 97 -37 l 97 -36 q 103 -33 101 -36 l 106 -31 l 106 -29 q 98 -31 101 -31 q 94 -33 94 -32 l 96 -35 l 92 -36 l 93 -37 l 94 -36 l 97 -37 m 97 -31 l 97 -29 l 96 -29 q 93 -31 93 -29 l 97 -31 m 85 82 q 90 125 90 101 l 90 128 q 83 85 89 128 q 85 82 83 82 m 85 35 l 86 36 q 84 38 85 39 q 83 36 83 38 q 85 35 83 35 m 75 15 l 76 18 l 75 18 l 75 15 m 74 8 l 75 10 l 71 10 l 74 8 m 74 132 q 75 138 75 132 l 74 139 l 74 132 m 74 121 m 72 78 q 76 119 76 97 q 73 103 75 119 q 71 81 71 88 l 72 78 m 67 82 l 72 146 l 64 94 q 67 82 64 83 m 68 79 l 69 83 l 72 110 q 71 111 72 111 q 68 82 68 101 l 68 79 m 56 67 l 57 69 l 61 124 q 57 102 60 124 q 54 71 54 81 q 56 67 54 67 m 54 92 l 54 94 q 53 99 54 99 l 53 96 q 54 92 53 92 m 29 74 q 32 90 29 82 q 33 89 32 89 l 36 97 l 38 118 q 32 107 35 118 l 35 143 q 33 129 35 140 q 29 105 31 118 q 28 82 28 92 l 29 74 m 31 58 l 29 65 l 28 64 l 28 60 q 28 58 28 58 q 31 58 29 58 m 28 67 q 29 68 29 67 l 29 74 q 28 69 28 74 l 28 67 m 4 18 l 6 19 q 1 28 3 28 l 1 25 q 4 18 1 19 m 11 68 l 11 74 l 11 68 m 1 39 l 3 40 l 1 46 l 1 46 q 3 47 3 46 l 3 50 l 1 50 l 3 51 l 1 53 l 3 53 l 3 54 q 1 81 1 63 q 6 92 4 81 q 21 235 6 135 q 6 138 13 193 q -1 54 -1 82 q 1 39 -1 40 m 17 117 l 17 126 l 15 119 l 17 117 m 14 93 l 15 96 l 15 115 l 14 93 m 21 -21 l 19 -15 q 21 -12 19 -12 q 22 -10 22 -12 q 18 -6 18 -10 q 15 1 18 -1 l 18 -17 l 21 -21 m 18 38 l 18 42 l 15 40 l 18 38 m 17 53 l 18 54 l 21 92 q 33 207 22 119 q 17 75 21 156 q 17 67 17 68 q 18 63 18 65 l 15 65 l 15 60 q 17 53 15 53 m 31 33 q 32 35 32 33 q 31 40 31 38 q 29 42 31 42 q 31 43 31 42 q 32 47 32 44 q 31 57 32 56 l 28 56 l 28 54 q 31 46 28 50 l 28 47 l 29 46 l 28 46 l 28 39 l 31 33 m 43 -40 l 44 -39 q 43 -35 44 -36 q 39 -28 42 -33 l 39 -29 l 38 -28 l 29 -28 q 33 -33 29 -32 q 40 -37 38 -35 q 43 -40 42 -39 m 44 -32 q 44 -32 46 -33 m 50 67 q 54 83 54 67 l 53 90 q 51 83 53 86 q 50 74 50 81 q 50 67 50 68 m 57 -36 l 54 -33 l 57 -32 l 63 -32 l 56 -28 l 56 -32 l 53 -26 l 51 -28 l 54 -32 l 53 -32 l 53 -33 l 54 -35 q 57 -36 56 -36 m 64 11 l 69 13 q 67 15 68 15 l 63 13 l 64 11 m 74 19 l 74 21 l 68 19 l 74 19 m 83 3 q 78 10 83 8 q 76 8 76 10 q 75 6 76 6 l 74 7 l 71 4 l 76 4 l 72 3 l 83 3 m 90 -19 l 93 -18 l 92 -17 l 90 -18 q 89 -16 89 -17 q 85 -15 89 -15 l 88 -12 q 81 -12 83 -12 q 78 -15 78 -12 l 86 -17 q 85 -18 86 -18 q 82 -19 83 -18 l 90 -19 m 290 71 q 293 74 293 72 q 294 76 293 75 l 289 71 l 290 71 m 297 79 l 304 86 l 297 79 m 307 90 q 312 93 310 90 q 315 99 314 96 l 307 90 m 93 -49 q 199 17 149 -32 q 299 121 250 65 l 343 174 l 336 167 q 172 -1 207 24 q 151 -18 164 -7 l 147 -19 l 149 -21 q 140 -26 147 -21 q 119 -39 132 -32 q 89 -47 106 -46 l 90 -49 l 93 -49 m 338 194 q 340 196 339 194 q 342 199 342 197 l 340 196 q 338 194 339 194 m 344 201 q 347 203 346 203 q 349 207 349 204 l 344 201 m 333 460 l 382 464 q 379 465 382 465 q 352 463 371 465 q 333 460 333 461 z "}}}
